<svg width="20" height="20" viewBox="0 0 20 20" fill="none" xmlns="http://www.w3.org/2000/svg">
<path d="M7.16671 11.7667L10.9917 15.5917C11.1478 15.7469 11.3591 15.834 11.5792 15.834C11.7994 15.834 12.0106 15.7469 12.1667 15.5917C12.2448 15.5142 12.3068 15.422 12.3491 15.3205C12.3914 15.2189 12.4132 15.11 12.4132 15C12.4132 14.89 12.3914 14.7811 12.3491 14.6795C12.3068 14.578 12.2448 14.4858 12.1667 14.4083L8.33338 10.5917C8.25527 10.5142 8.19327 10.422 8.15097 10.3205C8.10866 10.2189 8.08688 10.11 8.08688 9.99999C8.08688 9.88998 8.10866 9.78106 8.15097 9.67951C8.19327 9.57796 8.25527 9.48579 8.33338 9.40833L12.1667 5.59166C12.3236 5.43584 12.4122 5.22408 12.413 5.00294C12.4138 4.7818 12.3267 4.56941 12.1709 4.41249C12.0151 4.25557 11.8033 4.16698 11.5822 4.16619C11.361 4.16541 11.1486 4.25251 10.9917 4.40833L7.16671 8.23332C6.69854 8.70208 6.43558 9.33749 6.43558 9.99999C6.43558 10.6625 6.69854 11.2979 7.16671 11.7667Z" fill="white" fill-opacity="0.2"/>
</svg>
