<svg width="20" height="20" viewBox="0 0 20 20" fill="none" xmlns="http://www.w3.org/2000/svg">
<path d="M12.8333 8.23334L9.00829 4.40834C8.85216 4.25313 8.64095 4.16602 8.42079 4.16602C8.20064 4.16602 7.98943 4.25313 7.83329 4.40834C7.75518 4.48581 7.69319 4.57798 7.65088 4.67953C7.60857 4.78108 7.58679 4.89 7.58679 5.00001C7.58679 5.11002 7.60857 5.21894 7.65088 5.32049C7.69319 5.42204 7.75518 5.51421 7.83329 5.59168L11.6666 9.40834C11.7447 9.48581 11.8067 9.57798 11.849 9.67953C11.8913 9.78108 11.9131 9.89 11.9131 10C11.9131 10.11 11.8913 10.2189 11.849 10.3205C11.8067 10.422 11.7447 10.5142 11.6666 10.5917L7.83329 14.4083C7.67637 14.5642 7.58778 14.7759 7.58699 14.9971C7.58621 15.2182 7.67331 15.4306 7.82912 15.5875C7.98494 15.7444 8.19671 15.833 8.41784 15.8338C8.63898 15.8346 8.85137 15.7475 9.00829 15.5917L12.8333 11.7667C13.3015 11.2979 13.5644 10.6625 13.5644 10C13.5644 9.33751 13.3015 8.70209 12.8333 8.23334Z" fill="#DB1E1E"/>
</svg>
