<svg width="85" height="85" viewBox="0 0 85 85" fill="none" xmlns="http://www.w3.org/2000/svg">
<g filter="url(#filter0_d_1025_1724)">
<path d="M28.333 74.375H56.6663" stroke="#FF0000" stroke-width="2" stroke-linecap="round" stroke-linejoin="round"/>
<path d="M42.5 60.208V74.3747" stroke="#FF0000" stroke-width="2" stroke-linecap="round" stroke-linejoin="round"/>
<path d="M24.792 14.167H60.2087" stroke="#FF0000" stroke-width="2" stroke-linecap="round" stroke-linejoin="round"/>
<path d="M60.2087 14.167V42.5003C60.2087 47.1969 58.343 51.7011 55.022 55.022C51.7011 58.343 47.1969 60.2087 42.5003 60.2087C37.8038 60.2087 33.2996 58.343 29.9786 55.022C26.6577 51.7011 24.792 47.1969 24.792 42.5003V14.167" stroke="#FF0000" stroke-width="2" stroke-linecap="round" stroke-linejoin="round"/>
<path d="M10.625 31.8753C10.625 33.7539 11.3713 35.5556 12.6997 36.884C14.028 38.2124 15.8297 38.9587 17.7083 38.9587C19.587 38.9587 21.3886 38.2124 22.717 36.884C24.0454 35.5556 24.7917 33.7539 24.7917 31.8753C24.7917 29.9967 24.0454 28.195 22.717 26.8667C21.3886 25.5383 19.587 24.792 17.7083 24.792C15.8297 24.792 14.028 25.5383 12.6997 26.8667C11.3713 28.195 10.625 29.9967 10.625 31.8753Z" stroke="#FF0000" stroke-width="2" stroke-linecap="round" stroke-linejoin="round"/>
<path d="M60.208 31.8753C60.208 33.7539 60.9543 35.5556 62.2827 36.884C63.6111 38.2124 65.4127 38.9587 67.2913 38.9587C69.17 38.9587 70.9716 38.2124 72.3 36.884C73.6284 35.5556 74.3747 33.7539 74.3747 31.8753C74.3747 29.9967 73.6284 28.195 72.3 26.8667C70.9716 25.5383 69.17 24.792 67.2913 24.792C65.4127 24.792 63.6111 25.5383 62.2827 26.8667C60.9543 28.195 60.208 29.9967 60.208 31.8753Z" stroke="#FF0000" stroke-width="2" stroke-linecap="round" stroke-linejoin="round"/>
</g>
<defs>
<filter id="filter0_d_1025_1724" x="-4" y="0" width="93" height="93" filterUnits="userSpaceOnUse" color-interpolation-filters="sRGB">
<feFlood flood-opacity="0" result="BackgroundImageFix"/>
<feColorMatrix in="SourceAlpha" type="matrix" values="0 0 0 0 0 0 0 0 0 0 0 0 0 0 0 0 0 0 127 0" result="hardAlpha"/>
<feOffset dy="4"/>
<feGaussianBlur stdDeviation="2"/>
<feComposite in2="hardAlpha" operator="out"/>
<feColorMatrix type="matrix" values="0 0 0 0 0 0 0 0 0 0 0 0 0 0 0 0 0 0 0.25 0"/>
<feBlend mode="normal" in2="BackgroundImageFix" result="effect1_dropShadow_1025_1724"/>
<feBlend mode="normal" in="SourceGraphic" in2="effect1_dropShadow_1025_1724" result="shape"/>
</filter>
</defs>
</svg>
