<svg width="85" height="85" viewBox="0 0 85 85" fill="none" xmlns="http://www.w3.org/2000/svg">
<path d="M74.3186 44.3771C74.7076 37.787 73.0408 31.2388 69.5485 25.6366C66.0562 20.0345 60.9106 15.6548 54.8224 13.1026C48.7341 10.5503 42.0037 9.95137 35.5604 11.3884C29.1172 12.8255 23.2791 16.2276 18.8523 21.125C14.4256 26.0224 11.6287 32.1735 10.8478 38.7287C10.067 45.2839 11.3407 51.9198 14.4931 57.7201C17.6455 63.5203 22.521 68.1987 28.4464 71.1091C34.3717 74.0195 41.0546 75.0184 47.572 73.9677" stroke="#FF0000" stroke-width="2" stroke-linecap="round" stroke-linejoin="round"/>
<path d="M42.5 24.792V42.5003L53.125 53.1253" stroke="#FF0000" stroke-width="2" stroke-linecap="round" stroke-linejoin="round"/>
<path d="M67.2913 56.667L60.208 67.292H74.3747L67.2913 77.917" stroke="#FF0000" stroke-width="2" stroke-linecap="round" stroke-linejoin="round"/>
</svg>
