<svg width="50" height="50" viewBox="0 0 50 50" fill="none" xmlns="http://www.w3.org/2000/svg">
<path d="M47.4052 46.6476C47.3432 46.7379 47.245 46.7899 47.1358 46.7899H39.591C38.8843 46.7899 38.2025 46.5789 37.619 46.1799C37.0355 45.7811 36.5915 45.2224 36.335 44.5639L31.2547 31.5216H20.3812C20.2692 31.5216 20.1617 31.4624 20.094 31.3634C20.029 31.2686 20.0137 31.1581 20.0517 31.0596L21.605 27.0511C21.656 26.9194 21.8115 26.8594 21.9342 26.8594H44.92C45.054 26.8594 45.1765 26.9431 45.2248 27.0679L46.7773 31.0764C46.817 31.1786 46.804 31.2891 46.7422 31.3796C46.6802 31.4699 46.582 31.5216 46.4728 31.5216H41.6962L47.4405 46.3444C47.48 46.4466 47.4672 46.5571 47.4052 46.6476Z" fill="#FBFFFE"/>
<path d="M39.3433 25.6728C39.3081 25.7241 39.2521 25.7536 39.1898 25.7536H29.2301C29.0943 25.7536 28.9746 25.6718 28.9253 25.5453L25.5918 16.9868C25.5618 16.9111 25.5616 16.8271 25.5913 16.7501L28.1906 10.0431L30.4768 4.14259C30.5266 4.01384 30.6433 3.93359 30.7813 3.93359C30.9193 3.93359 31.0363 4.01384 31.0861 4.14259L39.3633 25.5003C39.3858 25.5583 39.3786 25.6213 39.3433 25.6728Z" fill="#FBFFFE"/>
<path d="M24.5652 16.414L20.5312 26.824L20.2934 27.4392L19.1617 30.3595L18.7054 31.5365L13.6594 44.5572C13.4037 45.2172 12.9599 45.7775 12.3759 46.1775C11.7919 46.5772 11.1092 46.7887 10.4014 46.7887H2.86517C2.75542 46.7887 2.65692 46.7367 2.59492 46.6462C2.53292 46.556 2.52017 46.4455 2.55967 46.3432L14.1949 16.3675C14.2882 16.127 14.5197 15.9688 14.7777 15.9688H24.2607C24.3699 15.9688 24.4682 16.0205 24.5302 16.1107C24.5922 16.2012 24.6047 16.3117 24.5652 16.414Z" fill="#FBFFFE"/>
<path d="M29.2296 4.36712L25.2428 14.6546C25.1941 14.7794 25.0716 14.8634 24.9381 14.8634H15.2538C15.1441 14.8634 15.0456 14.8114 14.9836 14.7209C14.9216 14.6306 14.9088 14.5201 14.9483 14.4181L18.1573 6.15188C18.4131 5.49238 18.8568 4.93263 19.4408 4.53288C20.0248 4.13313 20.7073 3.92188 21.4146 3.92188H28.9248C29.0343 3.92188 29.1326 3.97362 29.1943 4.06362C29.2563 4.15412 29.2691 4.26462 29.2296 4.36712Z" fill="#FBFFFE"/>
</svg>
