<svg width="50" height="50" viewBox="0 0 50 50" fill="none" xmlns="http://www.w3.org/2000/svg">
<rect width="50" height="50" rx="10" fill="#FF0000" fill-opacity="0.1"/>
<g clip-path="url(#clip0_37_202)">
<path d="M37.5 21.3542C37.5 20.9398 37.3354 20.5423 37.0424 20.2493C36.7493 19.9563 36.3519 19.7917 35.9375 19.7917C35.9375 19.7917 35.3292 19.7917 35.2865 19.8C34.5075 18.3568 33.6152 16.9778 32.6177 15.676C32.0972 14.9993 31.376 14.5045 30.5573 14.2625C28.7229 13.3708 21.2771 13.3708 19.4427 14.2625C18.624 14.5045 17.9028 14.9993 17.3823 15.676C16.3848 16.9778 15.4924 18.3568 14.7135 19.8C14.6708 19.7917 14.0625 19.7917 14.0625 19.7917C13.6481 19.7917 13.2507 19.9563 12.9576 20.2493C12.6646 20.5423 12.5 20.9398 12.5 21.3542V28.125C12.5002 28.8562 12.6928 29.5745 13.0585 30.2077C13.4242 30.8409 13.9501 31.3667 14.5833 31.7323V33.3333C14.5833 34.1621 14.9126 34.957 15.4986 35.543C16.0847 36.1291 16.8795 36.4583 17.7083 36.4583C18.5371 36.4583 19.332 36.1291 19.918 35.543C20.5041 34.957 20.8333 34.1621 20.8333 33.3333V32.2917H29.1667V33.3333C29.1667 34.1621 29.4959 34.957 30.082 35.543C30.668 36.1291 31.4629 36.4583 32.2917 36.4583C33.1205 36.4583 33.9153 36.1291 34.5014 35.543C35.0874 34.957 35.4167 34.1621 35.4167 33.3333V31.7323C36.0499 31.3667 36.5758 30.8409 36.9415 30.2077C37.3072 29.5745 37.4998 28.8562 37.5 28.125V21.3542ZM19.0354 16.9438C19.2906 16.6147 19.6431 16.3744 20.0427 16.2573C21.625 15.475 28.376 15.475 29.9573 16.2573C30.3569 16.3744 30.7094 16.6147 30.9646 16.9438C32.5465 19.018 33.8493 21.2909 34.8396 23.7042C28.3144 22.7521 21.6856 22.7521 15.1604 23.7042C16.1507 21.2909 17.4535 19.018 19.0354 16.9438ZM18.75 33.3333C18.75 33.6096 18.6403 33.8746 18.4449 34.0699C18.2496 34.2653 17.9846 34.375 17.7083 34.375C17.4321 34.375 17.1671 34.2653 16.9718 34.0699C16.7764 33.8746 16.6667 33.6096 16.6667 33.3333V32.2917H18.75V33.3333ZM33.3333 33.3333C33.3333 33.6096 33.2236 33.8746 33.0282 34.0699C32.8329 34.2653 32.5679 34.375 32.2917 34.375C32.0154 34.375 31.7504 34.2653 31.5551 34.0699C31.3597 33.8746 31.25 33.6096 31.25 33.3333V32.2917H33.3333V33.3333ZM33.3333 30.2083H16.6667C16.1141 30.2083 15.5842 29.9888 15.1935 29.5981C14.8028 29.2074 14.5833 28.6775 14.5833 28.125V25.8927C18.032 25.3655 21.5119 25.0673 25 25C28.4881 25.0673 31.968 25.3655 35.4167 25.8927V28.125C35.4167 28.6775 35.1972 29.2074 34.8065 29.5981C34.4158 29.9888 33.8859 30.2083 33.3333 30.2083ZM18.75 28.125C18.75 28.4013 18.6403 28.6662 18.4449 28.8616C18.2496 29.0569 17.9846 29.1667 17.7083 29.1667C17.4321 29.1667 17.1671 29.0569 16.9718 28.8616C16.7764 28.6662 16.6667 28.4013 16.6667 28.125C16.6667 27.8487 16.7764 27.5838 16.9718 27.3884C17.1671 27.1931 17.4321 27.0833 17.7083 27.0833C17.9846 27.0833 18.2496 27.1931 18.4449 27.3884C18.6403 27.5838 18.75 27.8487 18.75 28.125ZM33.3333 28.125C33.3333 28.4013 33.2236 28.6662 33.0282 28.8616C32.8329 29.0569 32.5679 29.1667 32.2917 29.1667C32.0154 29.1667 31.7504 29.0569 31.5551 28.8616C31.3597 28.6662 31.25 28.4013 31.25 28.125C31.25 27.8487 31.3597 27.5838 31.5551 27.3884C31.7504 27.1931 32.0154 27.0833 32.2917 27.0833C32.5679 27.0833 32.8329 27.1931 33.0282 27.3884C33.2236 27.5838 33.3333 27.8487 33.3333 28.125Z" fill="#DB1E1E"/>
</g>
<defs>
<clipPath id="clip0_37_202">
<rect width="25" height="25" fill="white" transform="translate(12.5 12.5)"/>
</clipPath>
</defs>
</svg>
