<svg width="50" height="50" viewBox="0 0 50 50" fill="none" xmlns="http://www.w3.org/2000/svg">
<rect width="50" height="50" rx="10" fill="#FF0000" fill-opacity="0.1"/>
<g clip-path="url(#clip0_37_185)">
<path d="M32.2917 14.5833H31.25V13.5417C31.25 13.2654 31.1403 13.0004 30.9449 12.8051C30.7496 12.6097 30.4846 12.5 30.2083 12.5C29.9321 12.5 29.6671 12.6097 29.4718 12.8051C29.2764 13.0004 29.1667 13.2654 29.1667 13.5417V14.5833H20.8333V13.5417C20.8333 13.2654 20.7236 13.0004 20.5282 12.8051C20.3329 12.6097 20.0679 12.5 19.7917 12.5C19.5154 12.5 19.2504 12.6097 19.0551 12.8051C18.8597 13.0004 18.75 13.2654 18.75 13.5417V14.5833H17.7083C16.3275 14.585 15.0037 15.1343 14.0273 16.1106C13.0509 17.087 12.5017 18.4108 12.5 19.7917L12.5 32.2917C12.5017 33.6725 13.0509 34.9963 14.0273 35.9727C15.0037 36.9491 16.3275 37.4983 17.7083 37.5H32.2917C33.6725 37.4983 34.9963 36.9491 35.9727 35.9727C36.9491 34.9963 37.4983 33.6725 37.5 32.2917V19.7917C37.4983 18.4108 36.9491 17.087 35.9727 16.1106C34.9963 15.1343 33.6725 14.585 32.2917 14.5833ZM14.5833 19.7917C14.5833 18.9629 14.9126 18.168 15.4986 17.582C16.0847 16.9959 16.8795 16.6667 17.7083 16.6667H32.2917C33.1205 16.6667 33.9153 16.9959 34.5014 17.582C35.0874 18.168 35.4167 18.9629 35.4167 19.7917V20.8333H14.5833V19.7917ZM32.2917 35.4167H17.7083C16.8795 35.4167 16.0847 35.0874 15.4986 34.5014C14.9126 33.9153 14.5833 33.1205 14.5833 32.2917V22.9167H35.4167V32.2917C35.4167 33.1205 35.0874 33.9153 34.5014 34.5014C33.9153 35.0874 33.1205 35.4167 32.2917 35.4167Z" fill="#DB1E1E"/>
<path d="M25 29.6875C25.8629 29.6875 26.5625 28.9879 26.5625 28.125C26.5625 27.2621 25.8629 26.5625 25 26.5625C24.1371 26.5625 23.4375 27.2621 23.4375 28.125C23.4375 28.9879 24.1371 29.6875 25 29.6875Z" fill="#DB1E1E"/>
<path d="M19.791 29.6875C20.654 29.6875 21.3535 28.9879 21.3535 28.125C21.3535 27.2621 20.654 26.5625 19.791 26.5625C18.9281 26.5625 18.2285 27.2621 18.2285 28.125C18.2285 28.9879 18.9281 29.6875 19.791 29.6875Z" fill="#DB1E1E"/>
<path d="M30.209 29.6875C31.0719 29.6875 31.7715 28.9879 31.7715 28.125C31.7715 27.2621 31.0719 26.5625 30.209 26.5625C29.346 26.5625 28.6465 27.2621 28.6465 28.125C28.6465 28.9879 29.346 29.6875 30.209 29.6875Z" fill="#DB1E1E"/>
</g>
<defs>
<clipPath id="clip0_37_185">
<rect width="25" height="25" fill="white" transform="translate(12.5 12.5)"/>
</clipPath>
</defs>
</svg>
