<svg width="50" height="50" viewBox="0 0 50 50" fill="none" xmlns="http://www.w3.org/2000/svg">
<rect width="50" height="50" rx="10" fill="#FF0000" fill-opacity="0.1"/>
<g clip-path="url(#clip0_37_217)">
<path d="M34.8549 16.8063C34.6443 15.5992 34.0143 14.5053 33.0759 13.7175C32.1375 12.9296 30.951 12.4985 29.7258 12.5H20.2622C19.036 12.4981 17.8486 12.9297 16.9096 13.7184C15.9707 14.5071 15.3408 15.6023 15.131 16.8104L12.5799 31.3938C12.4489 32.1423 12.4833 32.9104 12.6806 33.6442C12.878 34.378 13.2335 35.0597 13.7222 35.6416C14.211 36.2234 14.8211 36.6913 15.5098 37.0123C16.1986 37.3334 16.9492 37.4998 17.7091 37.5H32.2924C33.0528 37.5001 33.804 37.3337 34.4932 37.0125C35.1824 36.6912 35.793 36.223 36.2819 35.6407C36.7708 35.0583 37.1263 34.376 37.3234 33.6415C37.5205 32.9071 37.5543 32.1385 37.4226 31.3896L34.8549 16.8063ZM34.6883 34.301C34.3947 34.6507 34.028 34.9319 33.6141 35.1246C33.2002 35.3173 32.749 35.417 32.2924 35.4167H17.7091C17.253 35.4167 16.8025 35.3169 16.3891 35.1242C15.9757 34.9316 15.6095 34.6508 15.3162 34.3016C15.0228 33.9524 14.8095 33.5432 14.6911 33.1028C14.5728 32.6623 14.5522 32.2013 14.631 31.7521L17.182 17.1688C17.309 16.4442 17.6876 15.7877 18.251 15.3148C18.8144 14.8418 19.5266 14.5828 20.2622 14.5833H29.7258C30.4605 14.5835 31.1717 14.8425 31.7345 15.315C32.2972 15.7874 32.6755 16.443 32.8029 17.1667L35.3685 31.75C35.4481 32.1991 35.4285 32.6602 35.311 33.1009C35.1935 33.5416 34.9809 33.9512 34.6883 34.301ZM26.0424 17.7083V19.7917C26.0424 20.0679 25.9327 20.3329 25.7373 20.5282C25.542 20.7236 25.277 20.8333 25.0008 20.8333C24.7245 20.8333 24.4596 20.7236 24.2642 20.5282C24.0689 20.3329 23.9591 20.0679 23.9591 19.7917V17.7083C23.9591 17.4321 24.0689 17.1671 24.2642 16.9718C24.4596 16.7764 24.7245 16.6667 25.0008 16.6667C25.277 16.6667 25.542 16.7764 25.7373 16.9718C25.9327 17.1671 26.0424 17.4321 26.0424 17.7083ZM26.0424 23.9583V26.0417C26.0424 26.3179 25.9327 26.5829 25.7373 26.7782C25.542 26.9736 25.277 27.0833 25.0008 27.0833C24.7245 27.0833 24.4596 26.9736 24.2642 26.7782C24.0689 26.5829 23.9591 26.3179 23.9591 26.0417V23.9583C23.9591 23.6821 24.0689 23.4171 24.2642 23.2218C24.4596 23.0264 24.7245 22.9167 25.0008 22.9167C25.277 22.9167 25.542 23.0264 25.7373 23.2218C25.9327 23.4171 26.0424 23.6821 26.0424 23.9583ZM26.0424 30.2083V32.2917C26.0424 32.5679 25.9327 32.8329 25.7373 33.0282C25.542 33.2236 25.277 33.3333 25.0008 33.3333C24.7245 33.3333 24.4596 33.2236 24.2642 33.0282C24.0689 32.8329 23.9591 32.5679 23.9591 32.2917V30.2083C23.9591 29.9321 24.0689 29.6671 24.2642 29.4718C24.4596 29.2764 24.7245 29.1667 25.0008 29.1667C25.277 29.1667 25.542 29.2764 25.7373 29.4718C25.9327 29.6671 26.0424 29.9321 26.0424 30.2083Z" fill="#DB1E1E"/>
</g>
<defs>
<clipPath id="clip0_37_217">
<rect width="25" height="25" fill="white" transform="translate(12.5 12.5)"/>
</clipPath>
</defs>
</svg>
