<svg width="85" height="85" viewBox="0 0 85 85" fill="none" xmlns="http://www.w3.org/2000/svg">
<path d="M56.6667 63.7503C58.5453 63.7503 60.347 64.4966 61.6753 65.825C63.0037 67.1534 63.75 68.955 63.75 70.8337C63.75 68.955 64.4963 67.1534 65.8247 65.825C67.153 64.4966 68.9547 63.7503 70.8333 63.7503C68.9547 63.7503 67.153 63.004 65.8247 61.6757C64.4963 60.3473 63.75 58.5456 63.75 56.667C63.75 58.5456 63.0037 60.3473 61.6753 61.6757C60.347 63.004 58.5453 63.7503 56.6667 63.7503ZM56.6667 21.2503C58.5453 21.2503 60.347 21.9966 61.6753 23.325C63.0037 24.6534 63.75 26.455 63.75 28.3337C63.75 26.455 64.4963 24.6534 65.8247 23.325C67.153 21.9966 68.9547 21.2503 70.8333 21.2503C68.9547 21.2503 67.153 20.504 65.8247 19.1757C64.4963 17.8473 63.75 16.0456 63.75 14.167C63.75 16.0456 63.0037 17.8473 61.6753 19.1757C60.347 20.504 58.5453 21.2503 56.6667 21.2503ZM31.875 63.7503C31.875 58.1145 34.1138 52.7095 38.099 48.7243C42.0841 44.7392 47.4891 42.5003 53.125 42.5003C47.4891 42.5003 42.0841 40.2615 38.099 36.2763C34.1138 32.2912 31.875 26.8862 31.875 21.2503C31.875 26.8862 29.6362 32.2912 25.651 36.2763C21.6659 40.2615 16.2609 42.5003 10.625 42.5003C16.2609 42.5003 21.6659 44.7392 25.651 48.7243C29.6362 52.7095 31.875 58.1145 31.875 63.7503Z" stroke="#FF0000" stroke-width="2" stroke-linecap="round" stroke-linejoin="round"/>
</svg>
