<svg width="530" height="136" viewBox="0 0 530 136" fill="none" xmlns="http://www.w3.org/2000/svg">
<path d="M41.4423 47.231L49.4515 26.4036C49.8852 25.2917 49.0917 25.6082 47.6361 25.5656H40.243C39.6697 25.5656 39.1439 26.1117 38.9287 26.6447L31.0083 46.9326C30.6896 47.7755 30.9015 48.3626 31.5587 48.3626H39.9621C40.7556 48.3626 41.0004 48.2511 41.4423 47.231Z" fill="#FF0000"/>
<path d="M19.3039 104.02L39.7761 51.2819C40.0488 50.4619 39.5723 50.4619 38.4617 50.4619L30.8847 50.4783C30.3113 50.4783 29.4685 50.9834 29.2582 51.5148L7.7214 106.993C7.66609 107.134 7.64609 107.286 7.66313 107.437C7.68017 107.587 7.73374 107.732 7.8192 107.857C7.90465 107.982 8.01942 108.085 8.15353 108.155C8.28765 108.226 8.43708 108.264 8.58885 108.264H12.908C15.6632 108.264 18.2968 106.742 19.3039 104.02Z" fill="#FF0000"/>
<path d="M85.7594 108.204H70.809C69.4054 108.204 68.0344 107.782 66.8752 106.992C65.7159 106.202 64.8224 105.081 64.3113 103.776L54.2584 78.0126H46.8966C46.4037 78.0126 45.8698 77.6846 45.6348 77.0287L42.5248 69.2602C42.4279 68.6796 42.9355 68.6895 43.223 68.6895H81.3614C81.5032 68.6882 81.642 68.73 81.7594 68.8094C81.8768 68.8888 81.9672 69.002 82.0185 69.1339L85.0957 77.0615C85.1367 77.1675 85.1511 77.2819 85.1376 77.3948C85.1241 77.5077 85.0832 77.6156 85.0184 77.709C84.9536 77.8025 84.8669 77.8787 84.7658 77.9311C84.6647 77.9834 84.5524 78.0103 84.4385 78.0094H75.0477L86.4018 107.253C86.4428 107.359 86.4572 107.474 86.4437 107.586C86.4302 107.699 86.3893 107.807 86.3245 107.901C86.2597 107.994 86.173 108.07 86.0719 108.123C85.9709 108.175 85.8585 108.202 85.7446 108.201L85.7594 108.204Z" fill="#FF0000"/>
<path d="M51.884 26.3906C52.4557 25.2722 54.2465 25.2722 54.8116 26.7186L70.3978 66.0317C70.4224 66.0951 70.4311 66.1635 70.4232 66.231C70.4154 66.2985 70.3911 66.363 70.3526 66.4191C70.3141 66.4751 70.2625 66.521 70.2022 66.5526C70.142 66.5843 70.0749 66.6008 70.0068 66.6007H50.108C49.9662 66.6023 49.8272 66.5605 49.7098 66.4811C49.5924 66.4017 49.502 66.2884 49.4509 66.1563L43.0435 49.5173C42.9795 49.3533 42.9811 49.3648 43.0435 49.2008" fill="#FF0000"/>
<path d="M54.9453 107.46C55.0373 107.695 55.1178 108.264 54.7712 108.264H47.5917C46.8714 108.264 46.1679 108.047 45.5734 107.641C44.9789 107.235 44.5211 106.659 44.2599 105.989L39.1012 92.7761H26.6053C26.5452 92.7746 26.4864 92.7592 26.4333 92.7311C26.3803 92.7029 26.3346 92.6628 26.2998 92.6139C26.265 92.565 26.2422 92.5087 26.233 92.4495C26.2239 92.3902 26.2287 92.3297 26.2471 92.2726L27.8259 88.2055C27.8586 88.1394 27.9099 88.0843 27.9735 88.047C28.0372 88.0097 28.1104 87.9919 28.1841 87.9956H47.1514C47.2227 87.9964 47.2922 88.0186 47.3507 88.0592C47.4093 88.0999 47.4543 88.1571 47.48 88.2236" fill="#FF0000"/>
<path d="M37.3515 63.927C37.4698 63.622 38.0267 63.622 38.145 63.927L46.4154 85.5023C46.4712 85.6433 46.3661 85.9566 46.2166 85.9566H36.7403C36.6693 85.9554 36.6002 85.9333 36.5417 85.8931C36.4832 85.8528 36.438 85.7961 36.4117 85.7302L32.6955 76.2185C32.6627 76.1352 32.6627 76.0427 32.6955 75.9594" fill="#FF0000"/>
<path d="M114.646 85.1445L128.844 48.6719H137.563L151.709 85.1445H143.409L140.328 76.9136H125.871L122.845 85.1462L114.646 85.1445ZM128.168 70.2947H138.025L133.178 56.6437H133.014L128.168 70.2947Z" fill="white"/>
<path d="M154.054 79.7786L158.961 74.985C160.63 76.7562 163.561 78.9964 167.573 78.9964C171.488 78.9964 173.471 76.912 173.471 74.7767C173.471 68.3153 155.516 71.4411 155.516 58.5707C155.516 52.4241 160.937 47.8896 168.513 47.8896C174.62 47.8896 179.11 50.8088 180.884 53.049L175.977 57.8425C174.725 56.5913 172.167 54.7676 169.035 54.7676C165.434 54.7676 163.711 56.5913 163.711 58.5198C163.711 64.9813 181.719 61.8539 181.719 74.7243C181.719 80.7675 176.552 85.9268 168.148 85.9268C161.049 85.9334 156.142 82.5403 154.054 79.7786Z" fill="white"/>
<path d="M188.605 85.1445V48.6719H196.436V85.1445H188.605Z" fill="white"/>
<path d="M201.653 85.1445L215.851 48.6719H224.569L238.714 85.1445H230.414L227.335 76.9136H212.878L209.85 85.1462L201.653 85.1445ZM215.173 70.2947H225.03L220.175 56.6437H220.011L215.173 70.2947Z" fill="white"/>
<path d="M248.627 85.1445L262.825 48.6719H271.542L285.689 85.1445H277.389L274.309 76.9136H259.851L256.825 85.1462L248.627 85.1445ZM262.146 70.2947H272.004L267.149 56.6437H266.985L262.146 70.2947Z" fill="white"/>
<path d="M290.903 85.1445V48.6719H298.733V77.85H315.601V85.1445H290.903Z" fill="white"/>
<path d="M321.333 85.1445V48.6719H329.161V77.85H346.023V85.1445H321.333Z" fill="white"/>
<path d="M351.762 85.1445V48.6719H359.59V85.1445H351.762Z" fill="white"/>
<path d="M364.81 85.1445L379.008 48.6719H387.725L401.87 85.1445H393.57L390.491 76.9136H376.034L373.006 85.1462L364.81 85.1445ZM378.329 70.2947H388.186L383.333 56.6437H383.177L378.329 70.2947Z" fill="white"/>
<path d="M407.085 85.1445V48.6719H414.028L431.827 72.1233H432.036V48.6719H439.71V85.1445H432.819L414.968 61.6456H414.803V85.1445H407.085Z" fill="white"/>
<path d="M446.908 66.9102C446.908 56.3325 455.364 47.8867 466.743 47.8867C474.52 47.8867 479.74 51.7947 482.403 54.9205L477.131 59.6108C474.995 57.4788 471.964 55.0189 466.743 55.0189C460.007 55.0189 454.842 60.229 454.842 66.8987C454.842 73.516 460.01 78.7277 466.743 78.7277C471.964 78.7277 475.095 76.3301 477.34 74.0375L482.664 78.7277C479.845 82.0077 474.52 85.9173 466.743 85.9173C455.364 85.9337 446.908 77.4338 446.908 66.9102Z" fill="white"/>
<path d="M488.507 85.1445V48.6719H515.388V55.7056H496.33V63.1051H511.207V69.8782H496.337V78.1107H515.91V85.1445H488.507Z" fill="white"/>
</svg>
