<svg width="530" height="135" viewBox="0 0 530 135" fill="none" xmlns="http://www.w3.org/2000/svg">
<g clip-path="url(#clip0_1025_1676)">
<path d="M77.3476 0H32.7613C14.6905 0 0 14.6971 0 32.7549V77.3455C0 95.4013 14.6905 110.1 32.7613 110.1H77.3476C95.4012 110.1 110.098 95.4013 110.098 77.3455V32.7549C110.098 14.6971 95.4012 0 77.3476 0Z" fill="#FF0000"/>
<path d="M59.5094 75.2927C56.7699 79.3027 53.1933 81.4209 49.164 81.4209C44.4687 81.4209 40.9177 79.3155 38.302 74.9682C35.5625 70.4157 34.1724 63.5957 34.1724 54.6896C34.1724 46.5243 35.6436 40.0353 38.5433 35.3997C41.27 31.0501 44.6864 29.0173 49.2922 29.0173C53.3919 29.0173 56.5926 30.7234 59.377 34.3939C62.36 38.3335 64.8817 44.8396 66.686 53.2056C64.4205 64.516 62.202 71.3531 59.5094 75.2927ZM89.8066 68.5815L89.7682 69.0727C89.6102 70.9837 88.4123 72.9162 86.4265 72.9162C84.9062 72.9162 83.6848 72.3524 82.6876 71.1972C81.4919 69.8179 80.4136 68.1631 79.3246 65.1609C82.4122 54.6832 91.9354 21.119 91.9354 21.119H73.8605C73.8605 21.119 72.1907 28.9896 70.6853 36.1491C70.6084 35.9762 70.5316 35.8011 70.4547 35.6367C68.9472 32.4189 66.5429 28.8423 63.8696 26.327C59.2126 21.9475 53.7357 19.8145 47.1249 19.8145C37.9988 19.8145 30.2777 23.1903 24.1772 29.8501C18.1046 36.4694 14.8975 44.9635 14.8975 54.4078C14.8975 64.9281 17.9445 73.5674 23.9509 80.0778C30.2158 86.8807 37.7062 90.0473 47.5199 90.0473C53.236 90.0473 58.6937 88.3498 63.7521 85.0038C67.0212 82.8473 70.0042 79.8578 72.8228 75.976C74.0057 79.8066 75.1972 82.4266 76.6257 84.3846C78.9317 87.5491 82.3908 89.364 86.1083 89.364C89.9774 89.364 93.5049 87.3804 95.3156 84.1924C96.9192 81.3632 97.5746 77.855 97.5746 72.0834V68.5815H89.8066Z" fill="white"/>
<path d="M146.206 33.3748L148.196 24.3555C148.519 22.8972 149.655 20.6701 152.633 20.6701C155.61 20.6701 156.744 22.8972 157.068 24.3555L159.058 33.3748H146.206ZM165.216 22.7134C163.967 17.0871 160.418 13.1582 152.633 13.1582C145.307 13.1582 141.293 17.0871 140.044 22.7134L134.39 48.1828H140.435C141.814 48.1828 143.185 47.0811 143.479 45.7358L144.624 40.5536H160.641L161.785 45.7358C162.082 47.0811 163.45 48.1828 164.83 48.1828H170.875L165.216 22.7134Z" fill="#FF0000"/>
<path d="M185.774 21.6627H199.258V48.1805H207.605V13.9844H182.432C179.68 13.9844 177.425 16.2371 177.425 18.9915V36.2721C177.425 38.5868 176.36 40.058 174.508 40.4274L172.796 40.8352L174.346 48.1805H175.935C181.644 48.1805 185.774 43.9335 185.774 36.7034V21.6627Z" fill="#FF0000"/>
<path d="M280.146 40.6303H277.106V21.539H280.146C285.862 21.539 288.561 25.1562 288.561 31.0814C288.561 37.0132 285.862 40.6303 280.146 40.6303ZM265.716 40.6303C260.002 40.6303 257.299 37.0132 257.299 31.0814C257.299 25.1562 260.002 21.539 265.716 21.539H268.757V40.6303H265.716ZM280.146 13.9844H277.106V10.0107H271.262C269.882 10.0107 268.757 11.1317 268.757 12.5112V13.9844H265.716C255.399 13.9844 248.95 21.0179 248.95 31.0814C248.95 41.1492 255.399 48.1827 265.716 48.1827H268.757V52.3272H274.601C275.98 52.3272 277.106 51.1999 277.106 49.8269V48.1827H280.146C290.464 48.1827 296.912 41.1492 296.912 31.0814C296.912 21.0179 290.464 13.9844 280.146 13.9844Z" fill="#FF0000"/>
<path d="M233.508 40.5073H221.529V30.3349H233.508C235.545 30.3349 237.919 32.1584 237.919 35.4189C237.919 38.6774 235.545 40.5073 233.508 40.5073ZM233.508 22.6565H221.529V13.9873H213.178V45.6789C213.178 47.0561 214.307 48.1814 215.685 48.1814H233.508C240.787 48.1814 246.264 42.7002 246.264 35.4189C246.264 28.1419 241.666 22.6565 233.508 22.6565Z" fill="#FF0000"/>
<path d="M309.036 33.3748L311.019 24.3555C311.348 22.8972 312.482 20.6701 315.456 20.6701C318.437 20.6701 319.569 22.8972 319.896 24.3555L321.883 33.3748H309.036ZM328.046 22.7134C326.792 17.0871 323.248 13.1582 315.456 13.1582C308.139 13.1582 304.12 17.0871 302.869 22.7134L297.215 48.1828H303.264C304.639 48.1828 306.014 47.0811 306.307 45.7358L307.449 40.5536H323.468L324.61 45.7358C324.905 47.0811 326.278 48.1828 327.655 48.1828H333.696L328.046 22.7134Z" fill="#FF0000"/>
<path d="M368.758 89.0708H353.365V82.3255H368.758C369.868 82.4622 371.384 83.5533 371.384 85.697C371.384 87.8216 369.868 89.0708 368.758 89.0708ZM368.089 69.0634C369.198 69.0634 370.716 70.3082 370.716 72.435C370.716 74.5767 369.198 75.6678 368.089 75.8044H353.365V69.0634H368.089ZM376.436 78.4243C377.91 76.9745 378.856 75.0015 378.856 72.2642C378.856 66.2021 374.162 61.9658 368.096 61.9658H347.689C346.312 61.9658 345.185 63.089 345.185 64.4683V93.6616C345.185 95.0367 346.312 96.1641 347.689 96.1641L369.386 96.1663C375.779 96.1663 380.026 91.5925 380.026 85.5326C380.026 82.4814 378.576 80.092 376.436 78.4243Z" fill="#FF0000"/>
<path d="M312.777 79.0637C312.777 72.9312 316.044 68.2443 321.798 68.2443H323.652C329.4 68.2443 332.667 72.9312 332.667 79.0637C332.667 85.1983 329.4 89.8894 323.652 89.8894H321.798C316.044 89.8894 312.777 85.1983 312.777 79.0637ZM321.294 61.1787C310.975 61.1787 303.762 68.5283 303.762 79.0637C303.762 89.5948 310.975 96.9508 321.294 96.9508H324.151C334.475 96.9508 341.684 89.5948 341.684 79.0637C341.684 68.5283 334.475 61.1787 324.151 61.1787H321.294Z" fill="#FF0000"/>
<path d="M165.503 61.9658L166.605 67.1396C166.897 68.5189 168.266 69.6421 169.641 69.6421H177.424V96.1642H185.773V69.6421H193.313C194.688 69.6421 196.052 68.5189 196.342 67.1396L197.444 61.9658H165.503Z" fill="#FF0000"/>
<path d="M446.707 61.9658V75.544H430.464V61.9658H422.115V96.1642H430.464V82.8786H446.707V96.1642H455.056V61.9658H446.707Z" fill="#FF0000"/>
<path d="M243.655 81.357L245.641 72.3377C245.966 70.8815 247.097 68.6501 250.078 68.6501C253.057 68.6501 254.191 70.8815 254.517 72.342L256.503 81.357H243.655ZM262.663 70.6978C261.41 65.0693 257.87 61.1426 250.078 61.1426C242.763 61.1426 238.744 65.0693 237.499 70.6978L231.841 96.1629H237.888C239.267 96.1629 240.636 95.0654 240.935 93.7202L242.075 88.5358H258.087L259.23 93.7202C259.522 95.0654 260.897 96.1629 262.277 96.1629H268.32L262.663 70.6978Z" fill="#FF0000"/>
<path d="M393.758 81.357L395.748 72.3377C396.077 70.8815 397.206 68.6501 400.183 68.6501C403.161 68.6501 404.297 70.8815 404.622 72.342L406.61 81.357H393.758ZM412.772 70.6978C411.519 65.0693 407.976 61.1426 400.183 61.1426C392.863 61.1426 388.851 65.0693 387.598 70.6978L381.943 96.1629H387.993C389.37 96.1629 390.741 95.0654 391.033 93.7202L392.18 88.5358H408.194L409.339 93.7202C409.638 95.0654 411.006 96.1629 412.379 96.1629H418.433L412.772 70.6978Z" fill="#FF0000"/>
<path d="M168.101 96.069V96.1672H151.792C141.919 96.1672 135.02 89.138 135.02 79.0638C135.02 68.996 141.919 61.9668 151.792 61.9668H164.164L162.953 67.2067C162.645 68.5498 161.264 69.6409 159.887 69.6409H151.792C146.514 69.6409 143.371 73.5805 143.371 79.0638C143.371 84.5471 146.514 88.4888 151.792 88.4888H163.848C165.223 88.4888 166.604 89.5842 166.914 90.9273L168.101 96.069Z" fill="#FF0000"/>
<path d="M219.819 79.8123H207.844V69.6507H219.819C221.856 69.6507 224.234 71.4699 224.234 74.7325C224.234 77.991 221.856 79.8123 219.819 79.8123ZM219.819 61.9658L201.998 61.9701C200.618 61.9701 199.493 63.0954 199.493 64.4705V96.1663H207.844V87.4907H219.819C227.988 87.4907 232.581 82.0053 232.581 74.7325C232.581 67.4556 227.098 61.9658 219.819 61.9658Z" fill="#FF0000"/>
<path d="M525.827 88.9436H507.844V82.3799H527.392V75.7819H507.844V69.1818H525.827C527.307 69.1818 528.479 68.5348 528.887 66.7434L529.999 61.9668H502C500.625 61.9668 499.495 63.0899 499.495 64.4693V93.6604C499.495 95.0376 500.625 96.1672 502 96.1672H529.999L528.887 91.3885C528.479 89.5991 527.307 88.9436 525.827 88.9436Z" fill="#FF0000"/>
<path d="M460.781 96.1631V61.9648H469.13V84.526L483.594 63.9805C484.41 62.8745 486.197 61.9648 487.583 61.9648H493.773V96.1631H485.422V73.602L470.954 94.1454C470.144 95.2557 468.351 96.1631 466.973 96.1631H460.781Z" fill="#FF0000"/>
<path d="M293.5 78.8824L305.152 61.9648H297.485C295.826 61.9648 294.662 62.4687 293.637 64.0766L287.43 73.824H286.32L280.106 64.0766C279.085 62.4687 277.924 61.9648 276.258 61.9648H268.343L280.245 79.2433L268.593 96.1631H276.258C277.924 96.1631 279.085 95.6634 280.106 94.0535L286.32 84.3018H287.43L293.637 94.0535C294.662 95.6634 295.826 96.1631 297.485 96.1631H305.4L293.5 78.8824Z" fill="#FF0000"/>
<path d="M135.702 122.265C135.702 117.842 138.674 113.839 143.81 113.839C145.898 113.839 147.25 114.304 148.454 115.09L147.373 116.736C146.438 116.098 145.285 115.682 143.761 115.682C139.977 115.682 138.036 118.776 138.036 122.215C138.036 125.705 139.904 128.922 143.81 128.922C145.578 128.922 146.831 128.333 147.766 127.547L148.749 129.119C147.914 129.905 146.071 130.789 143.761 130.789C138.576 130.789 135.702 126.687 135.702 122.265Z" fill="#FF0000"/>
<path d="M151.867 114.132H160.491V116H154.077V120.937H159.706V122.78H154.077V128.628H160.662V130.494H151.867V114.132Z" fill="#FF0000"/>
<path d="M168.425 122.216C171.152 122.216 172.281 121.11 172.281 118.996C172.281 117.179 171.25 115.951 168.498 115.951H166.582V122.216H168.425ZM164.347 114.132H168.696C172.061 114.132 174.568 115.729 174.568 118.947C174.568 122.216 172.281 124.033 168.425 124.033H166.582V130.494H164.347V114.132Z" fill="#FF0000"/>
<path d="M182.329 128.701C185.033 128.701 186.286 127.866 186.286 125.901C186.286 124.01 185.278 122.854 182.477 122.854H180.117V128.701H182.329ZM182.231 121.11C184.591 121.11 185.622 120.249 185.622 118.407C185.622 116.686 184.467 115.926 182.28 115.926H180.117V121.11H182.231ZM177.907 114.132H182.453C185.498 114.132 187.881 115.238 187.881 118.21C187.881 120.177 186.751 121.381 184.958 121.847V121.896C186.948 122.242 188.594 123.64 188.594 125.901C188.594 129.241 186.064 130.494 182.378 130.494H177.907V114.132Z" fill="#FF0000"/>
<path d="M192.106 114.132H194.169V125.066C194.169 126.294 194.096 127.057 194.073 127.351H194.12C194.391 126.907 194.882 126.049 195.694 124.868L203.015 114.132H205.225V130.494H203.186V118.849C203.186 118.014 203.261 117.277 203.261 116.982H203.212C202.941 117.45 202.426 118.36 201.886 119.169L194.169 130.494H192.106V114.132Z" fill="#FF0000"/>
<path d="M208.786 122.265C208.786 117.842 211.758 113.839 216.894 113.839C218.982 113.839 220.334 114.304 221.538 115.09L220.457 116.736C219.522 116.098 218.369 115.682 216.845 115.682C213.061 115.682 211.12 118.776 211.12 122.215C211.12 125.705 212.988 128.922 216.894 128.922C218.662 128.922 219.917 128.333 220.85 127.547L221.833 129.119C220.998 129.905 219.155 130.789 216.845 130.789C211.66 130.789 208.786 126.687 208.786 122.265Z" fill="#FF0000"/>
<path d="M234.875 128.677C237.627 128.677 238.757 127.546 238.757 125.506C238.757 123.713 237.702 122.485 234.975 122.485H232.567V128.677H234.875ZM230.331 114.132H239.594V116H232.567V120.668H235.172C238.513 120.668 241.018 122.242 241.018 125.434C241.018 128.701 238.733 130.494 234.875 130.494H230.331V114.132Z" fill="#FF0000"/>
<path d="M243.891 130.397L244.185 128.702C244.382 128.751 244.653 128.776 244.971 128.776C246.323 128.776 247.109 127.965 247.871 126.22L248.289 125.285L243.351 114.133H245.488L249.37 122.904L253.226 114.133H255.364L249.69 127.03C248.558 129.586 247.207 130.544 244.971 130.544C244.506 130.544 244.113 130.495 243.891 130.397Z" fill="#FF0000"/>
<path d="M266.64 128.629V116.001H261.406L260.744 122.928C260.45 126.073 259.809 127.694 258.925 128.629H266.64ZM255.167 128.629H256.469C257.746 127.546 258.237 126.05 258.558 122.559L259.367 114.133H268.875V128.629H270.547L270.031 134.033H268.508L268.335 130.495H257.328L256.984 134.033H255.462L255.167 128.629Z" fill="#FF0000"/>
<path d="M273.271 130.397L273.565 128.702C273.762 128.751 274.033 128.776 274.351 128.776C275.703 128.776 276.489 127.965 277.251 126.22L277.669 125.285L272.73 114.133H274.868L278.75 122.904L282.606 114.133H284.743L279.07 127.03C277.938 129.586 276.587 130.544 274.351 130.544C273.886 130.544 273.493 130.495 273.271 130.397Z" fill="#FF0000"/>
<path d="M306.954 130.495H287.544V114.133H289.78V128.629H296.414V114.133H298.624V128.629H305.258V114.133H307.494V128.629H309.189L308.649 134.033H307.126L306.954 130.495Z" fill="#FF0000"/>
<path d="M312.602 114.132H321.226V116H314.811V120.937H320.438V122.78H314.811V128.628H321.397V130.494H312.602V114.132Z" fill="#FF0000"/>
<path d="M325.081 114.132H333.876V115.975H327.317V130.494H325.081V114.132Z" fill="#FF0000"/>
<path d="M349.107 122.339C349.107 118.778 347.166 115.682 343.382 115.682C339.599 115.682 337.559 118.729 337.559 122.29C337.559 125.852 339.549 128.948 343.333 128.948C347.117 128.948 349.107 125.901 349.107 122.339ZM335.226 122.339C335.226 117.842 338.198 113.839 343.333 113.839C348.443 113.839 351.466 117.793 351.466 122.29C351.466 126.761 348.494 130.791 343.382 130.791C338.247 130.791 335.226 126.811 335.226 122.339Z" fill="#FF0000"/>
<path d="M364.804 128.701C367.507 128.701 368.758 127.866 368.758 125.901C368.758 124.01 367.753 122.854 364.951 122.854H362.592V128.701H364.804ZM364.706 121.11C367.065 121.11 368.096 120.249 368.096 118.407C368.096 116.686 366.941 115.926 364.755 115.926H362.592V121.11H364.706ZM360.382 114.132H364.926C367.973 114.132 370.356 115.238 370.356 118.21C370.356 120.177 369.226 121.381 367.432 121.847V121.896C369.422 122.242 371.069 123.64 371.069 125.901C371.069 129.241 368.538 130.494 364.853 130.494H360.382V114.132Z" fill="#FF0000"/>
<path d="M379.961 114.132H382.197V120.963H391.066V114.132H393.302V130.494H391.066V122.829H382.197V130.494H379.961V114.132Z" fill="#FF0000"/>
<path d="M406.271 124.795L404.33 119.513C403.813 118.138 403.593 117.375 403.348 116.686H403.299C403.077 117.424 402.808 118.259 402.34 119.513L400.376 124.795H406.271ZM402.34 114.132H404.477L410.791 130.494H408.385L406.959 126.638H399.686L398.287 130.494H396.075L402.34 114.132Z" fill="#FF0000"/>
<path d="M411.896 122.265C411.896 117.842 414.869 113.839 420.004 113.839C422.092 113.839 423.444 114.304 424.648 115.09L423.568 116.736C422.632 116.098 421.479 115.682 419.955 115.682C416.171 115.682 414.23 118.776 414.23 122.215C414.23 125.705 416.099 128.922 420.004 128.922C421.772 128.922 423.027 128.333 423.961 127.547L424.943 129.119C424.108 129.905 422.265 130.789 419.955 130.789C414.77 130.789 411.896 126.687 411.896 122.265Z" fill="#FF0000"/>
<path d="M431.034 116H426.415V114.132H437.888V116H433.269V130.494H431.034V116Z" fill="#FF0000"/>
<path d="M453.12 122.339C453.12 118.778 451.179 115.682 447.395 115.682C443.611 115.682 441.572 118.729 441.572 122.29C441.572 125.852 443.562 128.948 447.346 128.948C451.129 128.948 453.12 125.901 453.12 122.339ZM439.238 122.339C439.238 117.842 442.21 113.839 447.346 113.839C452.455 113.839 455.477 117.793 455.477 122.29C455.477 126.761 452.505 130.791 447.395 130.791C442.26 130.791 439.238 126.811 439.238 122.339Z" fill="#FF0000"/>
<path d="M466.483 121.354V115.952H464.273C461.89 115.952 460.758 116.836 460.758 118.578C460.758 120.323 461.815 121.354 464.125 121.354H466.483ZM457.491 128.653H457.737C458.843 128.653 459.505 127.376 460.931 125.311C461.642 124.254 462.404 123.223 462.945 122.879V122.83C460.44 122.659 458.497 121.282 458.497 118.604C458.497 115.779 460.562 114.133 464.051 114.133H468.695V130.495H466.483V123.101H465.821C464.764 123.127 464.1 124.476 462.676 126.564C460.735 129.438 459.949 130.495 458.401 130.495H457.54L457.491 128.653Z" fill="#FF0000"/>
<path d="M492.697 130.495H473.287V114.133H475.523V128.629H482.157V114.133H484.367V128.629H491.001V114.133H493.237V128.629H494.932L494.392 134.033H492.87L492.697 130.495Z" fill="#FF0000"/>
<path d="M498.344 114.132H506.968V116H500.556V120.937H506.182V122.78H500.556V128.628H507.141V130.494H498.344V114.132Z" fill="#FF0000"/>
<path d="M512.052 114.132H514.141L518.048 125.066C518.513 126.392 518.785 127.204 519.054 128.039H519.103C519.325 127.253 519.62 126.367 520.087 125.066L524.018 114.132H526.13L528.34 130.494H526.107L524.755 120.226C524.605 119.045 524.533 118.383 524.484 117.916H524.435C524.287 118.456 524.091 119.145 523.721 120.2L520.062 130.494H517.899L514.166 120.2C513.797 119.145 513.575 118.456 513.404 117.916H513.355C513.306 118.481 513.231 119.169 513.109 120.275L511.856 130.494H509.791L512.052 114.132Z" fill="#FF0000"/>
</g>
<defs>
<clipPath id="clip0_1025_1676">
<rect width="530" height="134.033" fill="white"/>
</clipPath>
</defs>
</svg>
