<svg width="15" height="15" viewBox="0 0 15 15" fill="none" xmlns="http://www.w3.org/2000/svg">
<g opacity="0.5" clip-path="url(#clip0_33_3513)">
<path d="M13.75 5.7325V4.375C13.75 2.30687 12.0681 0.625 10 0.625H5C2.93187 0.625 1.25 2.30687 1.25 4.375V5.7325C0.5225 5.99062 0 6.685 0 7.5V10C0 11.02 0.49125 11.9275 1.25 12.4981V12.5V13.75C1.25 14.095 1.53 14.375 1.875 14.375C2.22 14.375 2.5 14.095 2.5 13.75V13.0619C2.70187 13.1031 2.91125 13.125 3.125 13.125H11.875C12.0887 13.125 12.2981 13.1031 12.5 13.0619V13.75C12.5 14.095 12.78 14.375 13.125 14.375C13.47 14.375 13.75 14.095 13.75 13.75V12.5V12.4981C14.5087 11.9275 15 11.02 15 10V7.5C15 6.685 14.4775 5.99062 13.75 5.7325ZM5 1.875H10C11.3787 1.875 12.5 2.99625 12.5 4.375V5.7325C11.7725 5.99062 11.25 6.685 11.25 7.5V8.75H3.75V7.5C3.75 6.685 3.2275 5.99062 2.5 5.7325V4.375C2.5 2.99625 3.62125 1.875 5 1.875ZM13.75 10C13.75 11.0337 12.9087 11.875 11.875 11.875H3.125C2.09125 11.875 1.25 11.0337 1.25 10V7.5C1.25 7.15562 1.53062 6.875 1.875 6.875C2.21937 6.875 2.5 7.15562 2.5 7.5V9.375C2.5 9.72 2.78 10 3.125 10H11.875C12.22 10 12.5 9.72 12.5 9.375V7.5C12.5 7.15562 12.7806 6.875 13.125 6.875C13.4694 6.875 13.75 7.15562 13.75 7.5V10Z" fill="white"/>
</g>
<defs>
<clipPath id="clip0_33_3513">
<rect width="15" height="15" fill="white"/>
</clipPath>
</defs>
</svg>
