<svg width="15" height="15" viewBox="0 0 15 15" fill="none" xmlns="http://www.w3.org/2000/svg">
<g opacity="0.5" clip-path="url(#clip0_33_3523)">
<path d="M13.0041 2.68121C12.946 2.62314 12.8771 2.57708 12.8012 2.54565C12.7253 2.51422 12.644 2.49805 12.5619 2.49805C12.4797 2.49805 12.3984 2.51422 12.3226 2.54565C12.2467 2.57708 12.1778 2.62314 12.1197 2.68121C12.0616 2.73928 12.0156 2.80821 11.9841 2.88408C11.9527 2.95996 11.9365 3.04127 11.9365 3.12339C11.9365 3.20552 11.9527 3.28683 11.9841 3.3627C12.0156 3.43858 12.0616 3.50751 12.1197 3.56558C13.1615 4.6099 13.7466 6.02481 13.7466 7.49996C13.7466 8.9751 13.1615 10.39 12.1197 11.4343C12.0024 11.5516 11.9365 11.7107 11.9365 11.8765C11.9365 12.0424 12.0024 12.2014 12.1197 12.3187C12.237 12.436 12.396 12.5019 12.5619 12.5019C12.7277 12.5019 12.8868 12.436 13.0041 12.3187C14.2802 11.0397 14.9968 9.30671 14.9968 7.49996C14.9968 5.6932 14.2802 3.96023 13.0041 2.68121Z" fill="white"/>
<path d="M11.3124 4.55682C11.2543 4.49855 11.1853 4.45228 11.1094 4.42067C11.0334 4.38905 10.952 4.3727 10.8697 4.37256C10.7875 4.37241 10.706 4.38847 10.6299 4.41982C10.5539 4.45117 10.4847 4.49719 10.4265 4.55526C10.3682 4.61333 10.3219 4.68231 10.2903 4.75826C10.2587 4.83421 10.2423 4.91564 10.2422 4.99791C10.242 5.08017 10.2581 5.16166 10.2895 5.23772C10.3208 5.31378 10.3668 5.38293 10.4249 5.4412C10.9704 5.9875 11.2767 6.72795 11.2767 7.49995C11.2767 8.27195 10.9704 9.01239 10.4249 9.5587C10.3668 9.61697 10.3208 9.68611 10.2895 9.76217C10.2581 9.83823 10.242 9.91972 10.2422 10.002C10.2423 10.0843 10.2587 10.1657 10.2903 10.2416C10.3219 10.3176 10.3682 10.3866 10.4265 10.4446C10.5441 10.5619 10.7036 10.6276 10.8697 10.6273C10.952 10.6272 11.0334 10.6108 11.1094 10.5792C11.1853 10.5476 11.2543 10.5013 11.3124 10.4431C12.092 9.66198 12.5298 8.60351 12.5298 7.49995C12.5298 6.39639 12.092 5.33791 11.3124 4.55682Z" fill="white"/>
<path d="M8.6375 0.12507C6.73706 0.482112 5.04668 1.55623 3.91625 3.12507H3.125C2.2966 3.12639 1.50252 3.45606 0.916752 4.04182C0.330987 4.62759 0.00132226 5.42167 0 6.25007L0 8.75007C0.00132226 9.57847 0.330987 10.3726 0.916752 10.9583C1.50252 11.5441 2.2966 11.8737 3.125 11.8751H3.91625C5.0469 13.4437 6.73718 14.5177 8.6375 14.8751C8.67476 14.8823 8.71266 14.8859 8.75063 14.8857C8.91639 14.8857 9.07536 14.8198 9.19257 14.7026C9.30978 14.5854 9.37563 14.4265 9.37563 14.2607V0.74132C9.37586 0.649528 9.35587 0.558813 9.31708 0.475621C9.27828 0.392429 9.22164 0.318802 9.15118 0.259974C9.08072 0.201146 8.99816 0.158561 8.90938 0.135245C8.8206 0.111929 8.72778 0.108455 8.6375 0.12507ZM8.125 13.4594C6.74649 13.02 5.56118 12.1196 4.76813 10.9094C4.71146 10.8223 4.63395 10.7506 4.5426 10.701C4.45126 10.6513 4.34897 10.6252 4.245 10.6251H3.125C2.62772 10.6251 2.15081 10.4275 1.79918 10.0759C1.44754 9.72427 1.25 9.24735 1.25 8.75007V6.25007C1.25 5.75279 1.44754 5.27588 1.79918 4.92424C2.15081 4.57261 2.62772 4.37507 3.125 4.37507H4.25C4.35385 4.37506 4.45607 4.34916 4.5474 4.29973C4.63874 4.2503 4.71632 4.17888 4.77313 4.09194C5.56456 2.88209 6.74805 1.98128 8.125 1.54069V13.4594Z" fill="white"/>
</g>
<defs>
<clipPath id="clip0_33_3523">
<rect width="15" height="15" fill="white"/>
</clipPath>
</defs>
</svg>
