<svg width="15" height="15" viewBox="0 0 15 15" fill="none" xmlns="http://www.w3.org/2000/svg">
<g opacity="0.5" clip-path="url(#clip0_33_3541)">
<path d="M13.4482 9.10376C14.3112 9.10376 15.0107 8.4042 15.0107 7.54126C15.0107 6.67831 14.3112 5.97876 13.4482 5.97876C12.5853 5.97876 11.8857 6.67831 11.8857 7.54126C11.8857 8.4042 12.5853 9.10376 13.4482 9.10376Z" fill="white"/>
<path d="M7.5 9.0625C8.36294 9.0625 9.0625 8.36294 9.0625 7.5C9.0625 6.63706 8.36294 5.9375 7.5 5.9375C6.63706 5.9375 5.9375 6.63706 5.9375 7.5C5.9375 8.36294 6.63706 9.0625 7.5 9.0625Z" fill="white"/>
<path d="M1.5625 9.0625C2.42544 9.0625 3.125 8.36294 3.125 7.5C3.125 6.63706 2.42544 5.9375 1.5625 5.9375C0.699555 5.9375 0 6.63706 0 7.5C0 8.36294 0.699555 9.0625 1.5625 9.0625Z" fill="white"/>
</g>
<defs>
<clipPath id="clip0_33_3541">
<rect width="15" height="15" fill="white"/>
</clipPath>
</defs>
</svg>
