<svg width="50" height="50" viewBox="0 0 50 50" fill="none" xmlns="http://www.w3.org/2000/svg">
<rect width="50" height="50" rx="10" fill="#FF0000" fill-opacity="0.1"/>
<g clip-path="url(#clip0_34_4675)">
<path d="M25 12.5C21.6848 12.5 18.5054 13.817 16.1612 16.1612C13.817 18.5054 12.5 21.6848 12.5 25C13.1146 41.5677 36.8917 41.5521 37.5 25C37.5 21.6848 36.183 18.5054 33.8388 16.1612C31.4946 13.817 28.3152 12.5 25 12.5ZM25 14.5833C26.9087 14.5847 28.7803 15.11 30.411 16.1018C32.0417 17.0937 33.3689 18.5141 34.2479 20.2083L26.9052 21.6771C25.5988 21.9397 24.2533 21.9397 22.9469 21.6771L15.7375 20.2375C16.6137 18.5357 17.9414 17.1078 19.5752 16.1105C21.209 15.1132 23.0858 14.5848 25 14.5833ZM21.875 34.9375C19.9557 34.3303 18.2528 33.1813 16.9712 31.629C15.6896 30.0766 14.8839 28.187 14.651 26.1875L18.7135 27C19.1637 27.0897 19.5885 27.2777 19.9576 27.5505C20.3267 27.8232 20.6311 28.1742 20.849 28.5781L21.499 29.7792C21.7456 30.2354 21.8749 30.7459 21.875 31.2646V34.9375ZM28.125 34.9375V31.2646C28.1251 30.7451 28.2547 30.2339 28.5021 29.7771L29.1521 28.575C29.3704 28.1715 29.6749 27.821 30.044 27.5484C30.4131 27.2759 30.8376 27.0879 31.2875 26.9979L35.35 26.1854C35.1174 28.1854 34.3117 30.0756 33.0299 31.6284C31.7481 33.1811 30.0448 34.3303 28.125 34.9375ZM30.8792 24.9552C30.1293 25.1043 29.4215 25.417 28.8064 25.8711C28.1913 26.3252 27.6841 26.9095 27.3208 27.5823L26.6667 28.7844C26.2558 29.5465 26.041 30.3988 26.0417 31.2646V35.3646C25.3489 35.4333 24.6511 35.4333 23.9583 35.3646V31.2646C23.959 30.3988 23.7442 29.5465 23.3333 28.7844L22.6792 27.5833C22.3162 26.9103 21.809 26.3257 21.1939 25.8714C20.5787 25.4171 19.8709 25.1042 19.1208 24.9552L14.6271 24.0563C14.6826 23.4309 14.7956 22.8119 14.9646 22.2073L22.5396 23.7219C24.1151 24.0386 25.738 24.0386 27.3135 23.7219L35.0281 22.1792C35.201 22.7921 35.3165 23.4198 35.3729 24.0542L30.8792 24.9552Z" fill="#DB1E1E"/>
</g>
<defs>
<clipPath id="clip0_34_4675">
<rect width="25" height="25" fill="white" transform="translate(12.5 12.5)"/>
</clipPath>
</defs>
</svg>
