<svg width="50" height="50" viewBox="0 0 50 50" fill="none" xmlns="http://www.w3.org/2000/svg">
<rect width="50" height="50" rx="10" fill="#FF0000" fill-opacity="0.1"/>
<g clip-path="url(#clip0_34_4691)">
<path d="M14.063 37.5C13.663 37.5 13.263 37.3479 12.9578 37.0427C12.3474 36.4323 12.3474 35.4438 12.9578 34.8334L34.8328 12.9573C35.4432 12.3469 36.4318 12.3469 37.0422 12.9573C37.6526 13.5667 37.6526 14.5573 37.0422 15.1667L15.1682 37.0427C14.863 37.3479 14.463 37.5 14.063 37.5ZM21.8755 17.1875C21.8755 14.6032 19.7724 12.5 17.188 12.5C14.6036 12.5 12.5005 14.6032 12.5005 17.1875C12.5005 19.7719 14.6036 21.875 17.188 21.875C19.7724 21.875 21.8755 19.7719 21.8755 17.1875ZM18.7505 17.1875C18.7505 18.049 18.0495 18.75 17.188 18.75C16.3266 18.75 15.6255 18.049 15.6255 17.1875C15.6255 16.3261 16.3266 15.625 17.188 15.625C18.0495 15.625 18.7505 16.3261 18.7505 17.1875ZM37.5005 32.8125C37.5005 30.2282 35.3974 28.125 32.813 28.125C30.2286 28.125 28.1255 30.2282 28.1255 32.8125C28.1255 35.3969 30.2286 37.5 32.813 37.5C35.3974 37.5 37.5005 35.3969 37.5005 32.8125ZM34.3755 32.8125C34.3755 33.674 33.6745 34.375 32.813 34.375C31.9516 34.375 31.2505 33.674 31.2505 32.8125C31.2505 31.9511 31.9516 31.25 32.813 31.25C33.6745 31.25 34.3755 31.9511 34.3755 32.8125Z" fill="#DB1E1E"/>
</g>
<defs>
<clipPath id="clip0_34_4691">
<rect width="25" height="25" fill="white" transform="translate(12.5 12.5)"/>
</clipPath>
</defs>
</svg>
