<svg width="50" height="50" viewBox="0 0 50 50" fill="none" xmlns="http://www.w3.org/2000/svg">
<rect width="50" height="50" rx="10" fill="#FF0000" fill-opacity="0.1"/>
<g clip-path="url(#clip0_34_4699)">
<path d="M37.8228 21.5268C37.6012 20.8215 37.1585 20.2061 36.5601 19.7719C35.9617 19.3376 35.2395 19.1074 34.5002 19.1153H29.7671L28.3295 14.6347C28.1035 13.9294 27.6592 13.3141 27.0609 12.8776C26.4626 12.441 25.7411 12.2058 25.0005 12.2058C24.2598 12.2058 23.5383 12.441 22.94 12.8776C22.3417 13.3141 21.8974 13.9294 21.6714 14.6347L20.2338 19.1153H15.5007C14.7638 19.1164 14.046 19.3503 13.4499 19.7836C12.8539 20.217 12.41 20.8276 12.1817 21.5283C11.9534 22.229 11.9524 22.9839 12.1788 23.6852C12.4052 24.3866 12.8475 24.9984 13.4424 25.4333L17.2947 28.25L15.83 32.7859C15.5933 33.4894 15.5903 34.2506 15.8215 34.9559C16.0526 35.6613 16.5055 36.273 17.1127 36.7C17.7095 37.1407 18.4326 37.3767 19.1745 37.373C19.9163 37.3693 20.637 37.126 21.2294 36.6794L25.0005 33.9039L28.7726 36.6762C29.3683 37.1143 30.0876 37.3523 30.827 37.3559C31.5665 37.3595 32.288 37.1285 32.8879 36.6962C33.4879 36.2639 33.9352 35.6525 34.1658 34.9498C34.3963 34.2472 34.3981 33.4896 34.1709 32.7859L32.7062 28.25L36.5629 25.4333C37.1646 25.0038 37.612 24.392 37.8389 23.6884C38.0658 22.9849 38.0602 22.2269 37.8228 21.5268ZM35.2845 23.6837L30.7952 26.9652C30.6108 27.0997 30.4736 27.289 30.4032 27.5061C30.3328 27.7232 30.3327 27.957 30.403 28.1742L32.1093 33.45C32.1956 33.7176 32.1949 34.0057 32.1072 34.2728C32.0195 34.5399 31.8493 34.7724 31.6212 34.9367C31.393 35.1011 31.1186 35.1888 30.8375 35.1874C30.5563 35.186 30.2828 35.0954 30.0564 34.9287L25.6418 31.6787C25.4558 31.5422 25.2312 31.4685 25.0005 31.4685C24.7697 31.4685 24.5451 31.5422 24.3591 31.6787L19.9445 34.9287C19.7182 35.0977 19.444 35.1901 19.1616 35.1926C18.8792 35.1952 18.6033 35.1078 18.374 34.943C18.1446 34.7782 17.9737 34.5447 17.886 34.2762C17.7983 34.0078 17.7984 33.7184 17.8862 33.45L19.5979 28.1742C19.6682 27.957 19.6681 27.7232 19.5977 27.5061C19.5273 27.289 19.3901 27.0997 19.2057 26.9652L14.7164 23.6837C14.4903 23.5182 14.3223 23.2855 14.2364 23.0187C14.1505 22.752 14.1511 22.465 14.2381 22.1986C14.325 21.9322 14.494 21.7002 14.7207 21.5355C14.9475 21.3709 15.2205 21.2822 15.5007 21.282H21.0257C21.2551 21.282 21.4785 21.2092 21.6638 21.0741C21.8492 20.939 21.9869 20.7485 22.057 20.5302L23.7362 15.2966C23.8224 15.0288 23.9913 14.7952 24.2187 14.6295C24.4461 14.4638 24.7202 14.3746 25.0015 14.3746C25.2829 14.3746 25.557 14.4638 25.7843 14.6295C26.0117 14.7952 26.1807 15.0288 26.2669 15.2966L27.946 20.5302C28.0162 20.7485 28.1539 20.939 28.3392 21.0741C28.5246 21.2092 28.748 21.282 28.9774 21.282H34.5024C34.7826 21.2822 35.0556 21.3709 35.2823 21.5355C35.5091 21.7002 35.678 21.9322 35.765 22.1986C35.852 22.465 35.8526 22.752 35.7667 23.0187C35.6808 23.2855 35.5128 23.5182 35.2867 23.6837H35.2845Z" fill="#DB1E1E"/>
</g>
<defs>
<clipPath id="clip0_34_4699">
<rect width="26" height="26" fill="white" transform="translate(12 12)"/>
</clipPath>
</defs>
</svg>
