<svg width="37" height="45" viewBox="0 0 37 45" fill="none" xmlns="http://www.w3.org/2000/svg">
<path d="M32.7975 14.9248L14.9138 1.81109C13.5169 0.788247 11.8642 0.172173 10.1386 0.0311553C8.4131 -0.109862 6.68223 0.229684 5.13786 1.01216C3.5935 1.79463 2.29596 2.98947 1.38909 4.46423C0.482218 5.93898 0.00142716 7.63606 1.13135e-05 9.36734V35.608C-0.00268211 37.3409 0.475595 39.0407 1.3816 40.5179C2.28761 41.9952 3.58581 43.1921 5.13169 43.9753C6.67757 44.7586 8.41048 45.0974 10.1375 44.9542C11.8646 44.811 13.518 44.1914 14.9138 43.1642L32.7975 30.0505C33.9842 29.1796 34.9491 28.0416 35.6142 26.7285C36.2793 25.4155 36.6259 23.9642 36.6259 22.4923C36.6259 21.0204 36.2793 19.5692 35.6142 18.2561C34.9491 16.9431 33.9842 15.8051 32.7975 14.9342V14.9248Z" fill="white"/>
</svg>
