<svg width="35" height="33" viewBox="0 0 35 33" fill="none" xmlns="http://www.w3.org/2000/svg">
<path d="M27.7083 5.83333H24.6794C24.1894 3.05812 22.1229 0.767083 19.3215 0.0466666C18.55 -0.153125 17.7479 0.316458 17.5452 1.09521C17.344 1.87542 17.815 2.67021 18.5952 2.87C20.526 3.36729 21.875 5.11 21.875 7.10792V23.3333H5.83333C4.22479 23.3333 2.91667 22.0252 2.91667 20.4167V14.5833H6.5625C7.36896 14.5833 8.02083 13.93 8.02083 13.125C8.02083 12.32 7.36896 11.6667 6.5625 11.6667H2.91667C1.30813 11.6667 0 12.9748 0 14.5833V20.4167C0 23.1583 1.90167 25.464 4.45521 26.0852C4.40271 26.3783 4.375 26.6773 4.375 26.9792C4.375 29.7937 6.66458 32.0833 9.47917 32.0833C12.2937 32.0833 14.5833 29.7937 14.5833 26.9792C14.5833 26.7327 14.5644 26.4906 14.5294 26.25H20.4706C20.4356 26.4906 20.4167 26.7327 20.4167 26.9792C20.4167 29.7937 22.7063 32.0833 25.5208 32.0833C28.3354 32.0833 30.625 29.7937 30.625 26.9792C30.625 26.6773 30.5973 26.3783 30.5448 26.0852C33.0983 25.464 35 23.1583 35 20.4167V13.125C35 9.10437 31.729 5.83333 27.7083 5.83333ZM32.0833 13.125V14.5833H24.7917V8.75H27.7083C30.1204 8.75 32.0833 10.7129 32.0833 13.125ZM11.6667 26.9792C11.6667 28.1852 10.6852 29.1667 9.47917 29.1667C8.27313 29.1667 7.29167 28.1852 7.29167 26.9792C7.29167 26.7035 7.34563 26.46 7.42438 26.25H11.5354C11.6142 26.46 11.6681 26.7035 11.6681 26.9792H11.6667ZM25.5208 29.1667C24.3148 29.1667 23.3333 28.1852 23.3333 26.9792C23.3333 26.7035 23.3873 26.46 23.466 26.25H27.5771C27.6558 26.46 27.7098 26.7035 27.7098 26.9792C27.7098 28.1852 26.7269 29.1667 25.5208 29.1667ZM29.1667 23.3333H24.7917V17.5H32.0833V20.4167C32.0833 22.0252 30.7752 23.3333 29.1667 23.3333ZM0 1.45833C0 0.653333 0.651875 0 1.45833 0H13.3496C14.156 0 14.8079 0.653333 14.8079 1.45833C14.8079 2.26333 14.156 2.91667 13.3496 2.91667H1.45833C0.651875 2.91667 0 2.26333 0 1.45833ZM0 7.29167C0 6.48667 0.651875 5.83333 1.45833 5.83333H10.4329C11.2394 5.83333 11.8913 6.48667 11.8913 7.29167C11.8913 8.09667 11.2394 8.75 10.4329 8.75H1.45833C0.651875 8.75 0 8.09667 0 7.29167Z" fill="#DB1E1E"/>
</svg>
