<?xml version="1.0" encoding="UTF-8" standalone="no"?>
<svg
   width="1380.2001"
   height="148.2"
   viewBox="0 0 1380.2001 148.2"
   fill="none"
   version="1.1"
   id="svg43"
   sodipodi:docname="Group 779.svg"
   inkscape:version="1.3 (0e150ed, 2023-07-21)"
   xmlns:inkscape="http://www.inkscape.org/namespaces/inkscape"
   xmlns:sodipodi="http://sodipodi.sourceforge.net/DTD/sodipodi-0.dtd"
   xmlns="http://www.w3.org/2000/svg"
   xmlns:svg="http://www.w3.org/2000/svg">
  <sodipodi:namedview
     id="namedview43"
     pagecolor="#ffffff"
     bordercolor="#999999"
     borderopacity="1"
     inkscape:showpageshadow="2"
     inkscape:pageopacity="0"
     inkscape:pagecheckerboard="0"
     inkscape:deskcolor="#d1d1d1"
     inkscape:zoom="0.64852415"
     inkscape:cx="615.24308"
     inkscape:cy="225.89752"
     inkscape:window-width="1440"
     inkscape:window-height="900"
     inkscape:window-x="0"
     inkscape:window-y="0"
     inkscape:window-maximized="0"
     inkscape:current-layer="svg43" />
  <path
     d="m 392.12,89.100006 h -9.676 l 24.846,-57.4 h 7.462 l 24.928,57.4 h -9.676 l -5.084,-11.808 h -27.716 z m 29.192,-20.336 -10.25,-24.026 -10.25,24.026 z m 63.293,-25.338 -9.102,2.706 c -0.492,-1.859 -1.749,-3.417 -3.772,-4.674 -2.022,-1.312 -4.373,-1.968 -7.052,-1.968 -2.952,0 -5.412,0.711 -7.38,2.132 -1.968,1.367 -2.952,3.116 -2.952,5.248 -0.328,1.859 1.066,3.717 4.182,5.576 0.547,0.328 1.613,0.765 3.198,1.312 2.023,0.656 3.198,1.039 3.526,1.148 l 4.346,1.23 c 4.319,1.148 7.982,2.624 10.988,4.428 4.046,2.46 6.068,6.423 6.068,11.89 0,5.303 -1.968,9.594 -5.904,12.874 -3.99,3.225 -9.047,4.838 -15.17,4.838 -5.576,0 -10.359,-1.285 -14.35,-3.854 -3.936,-2.624 -6.478,-5.904 -7.626,-9.84 l 9.102,-2.87 c 0.492,2.187 1.914,4.018 4.264,5.494 2.406,1.476 5.276,2.214 8.61,2.214 3.39,0 6.205,-0.738 8.446,-2.214 2.242,-1.531 3.362,-3.499 3.362,-5.904 0,-1.585 -0.628,-2.952 -1.886,-4.1 -1.093,-1.093 -2.214,-1.886 -3.362,-2.378 -1.148,-0.547 -2.87,-1.121 -5.166,-1.722 -6.942,-2.023 -11.534,-3.608 -13.776,-4.756 -5.357,-2.897 -8.036,-7.134 -8.036,-12.71 0,-5.029 1.804,-9.102 5.412,-12.218 3.608,-3.116 8.255,-4.674 13.94,-4.674 5.03,0 9.376,1.23 13.038,3.69 3.608,2.351 5.959,5.385 7.052,9.102 z m 20.52,45.674 h -9.184 v -57.4 h 9.184 z m 16.321,0 h -9.676 l 24.846,-57.4 h 7.462 l 24.928,57.4 h -9.676 l -5.084,-11.808 H 526.53 Z m 29.192,-20.336 -10.25,-24.026 -10.25,24.026 z m 51.928,20.336 h -9.676 l 24.846,-57.4 h 7.462 l 24.928,57.4 h -9.676 l -5.084,-11.808 H 607.65 Z m 29.192,-20.336 -10.25,-24.026 -10.25,24.026 z m 24.98,-37.064 h 9.184 v 48.872 h 30.012 v 8.528 h -39.196 z m 47.005,0 h 9.184 v 48.872 h 30.012 v 8.528 h -39.196 z m 56.19,57.4 h -9.184 v -57.4 h 9.184 z m 16.322,0 h -9.676 l 24.846,-57.4 h 7.462 l 24.928,57.4 h -9.676 l -5.084,-11.808 h -27.716 z m 29.192,-20.336 -10.25,-24.026 -10.25,24.026 z m 33.836,20.336 h -8.856 v -57.4 h 8.118 l 32.882,41.574 v -41.574 h 8.856 v 57.4 h -8.118 l -32.882,-41.574 z m 80.044,-58.466 c 5.74,0 10.933,1.394 15.58,4.182 4.701,2.788 8.309,6.587 10.824,11.398 l -8.938,3.28 c -1.804,-3.116 -4.237,-5.549 -7.298,-7.298 -3.062,-1.804 -6.451,-2.706 -10.168,-2.706 -5.795,0 -10.606,1.995 -14.432,5.986 -3.882,4.045 -5.822,9.02 -5.822,14.924 0,5.904 1.94,10.879 5.822,14.924 3.826,3.991 8.637,5.986 14.432,5.986 3.717,0 7.106,-0.875 10.168,-2.624 3.061,-1.804 5.494,-4.264 7.298,-7.38 l 8.938,3.28 c -2.515,4.811 -6.123,8.61 -10.824,11.398 -4.647,2.788 -9.84,4.182 -15.58,4.182 -8.474,0 -15.553,-2.843 -21.238,-8.528 -5.686,-5.685 -8.528,-12.765 -8.528,-21.238 0,-8.473 2.842,-15.553 8.528,-21.238 5.685,-5.685 12.764,-8.528 21.238,-8.528 z m 35.221,1.066 h 41.822 v 8.528 h -32.638 v 15.58 h 28.288 v 8.528 h -28.288 v 16.236 h 33.048 v 8.528 h -42.232 z"
     fill="#fbfffe"
     id="path16" />
  <g
     opacity="0.5"
     id="g23"
     transform="translate(-29.9,-259.89999)">
    <g
       opacity="0.46"
       filter="url(#filter0_f_34_4627)"
       id="g19">
      <path
         d="m 1181.59,280 h 55.04 l -125.85,108 h -55.07 z"
         fill="#ff0000"
         id="path17" />
      <path
         d="m 1258.27,280 h 55.05 l -125.86,108 h -55.07 z"
         fill="#fbfffe"
         id="path18" />
      <path
         d="M 1334.96,280 H 1390 l -125.85,108 h -55.07 z"
         fill="#ff0000"
         id="path19" />
    </g>
    <g
       opacity="0.46"
       filter="url(#filter1_f_34_4627)"
       id="g22">
      <path
         d="m 258.413,280 h -55.044 l 125.855,108 h 55.069 z"
         fill="#ff0000"
         id="path20" />
      <path
         d="m 181.727,280 h -55.043 l 125.854,108 h 55.069 z"
         fill="#fbfffe"
         id="path21" />
      <path
         d="M 105.044,280 H 50 l 125.854,108 h 55.069 z"
         fill="#ff0000"
         id="path22" />
    </g>
  </g>
  <g
     opacity="0.46"
     id="g25"
     transform="translate(-29.9,-259.89999)">
    <path
       d="m 1181.59,280 h 55.04 l -125.85,108 h -55.07 z"
       fill="#ff0000"
       id="path23" />
    <path
       d="m 1258.27,280 h 55.05 l -125.86,108 h -55.07 z"
       fill="#fbfffe"
       id="path24" />
    <path
       d="M 1334.96,280 H 1390 l -125.85,108 h -55.07 z"
       fill="#ff0000"
       id="path25" />
  </g>
  <g
     opacity="0.46"
     id="g28"
     transform="translate(-29.9,-259.89999)">
    <path
       d="m 258.413,280 h -55.044 l 125.855,108 h 55.069 z"
       fill="#ff0000"
       id="path26" />
    <path
       d="m 181.727,280 h -55.043 l 125.854,108 h 55.069 z"
       fill="#fbfffe"
       id="path27" />
    <path
       d="M 105.044,280 H 50 l 125.854,108 h 55.069 z"
       fill="#ff0000"
       id="path28" />
  </g>
  <rect
     x="384.10001"
     y="139.10001"
     width="612"
     height="3"
     rx="1.5"
     fill="#db1e1e"
     id="rect29" />
  <defs
     id="defs43">
    <clipPath
       id="paint1_angular_34_4627_clip_path">
      <rect
         width="1430.12"
         height="328.465"
         transform="matrix(0.707107,-0.707107,-0.707107,-0.707107,1153.27,747.856)"
         id="rect30"
         x="0"
         y="0" />
    </clipPath>
    <clipPath
       id="paint2_angular_34_4627_clip_path">
      <rect
         x="688.74597"
         y="283.336"
         width="1430.12"
         height="328.465"
         transform="rotate(-45,688.746,283.336)"
         id="rect31" />
    </clipPath>
    <clipPath
       id="paint5_angular_34_4627_clip_path">
      <rect
         x="286.65799"
         y="747.85602"
         width="1430.12"
         height="328.465"
         transform="rotate(-135,286.658,747.856)"
         id="rect32" />
    </clipPath>
    <clipPath
       id="paint6_angular_34_4627_clip_path">
      <rect
         width="1430.12"
         height="328.465"
         transform="matrix(-0.707107,-0.707107,-0.707107,0.707107,751.178,283.336)"
         id="rect33"
         x="0"
         y="0" />
    </clipPath>
    <filter
       id="filter0_f_34_4627"
       x="1015.9"
       y="259.89999"
       width="394.20001"
       height="148.2"
       filterUnits="userSpaceOnUse"
       color-interpolation-filters="sRGB">
      <feFlood
         flood-opacity="0"
         result="BackgroundImageFix"
         id="feFlood33" />
      <feBlend
         mode="normal"
         in="SourceGraphic"
         in2="BackgroundImageFix"
         result="shape"
         id="feBlend33" />
      <feGaussianBlur
         stdDeviation="10.05"
         result="effect1_foregroundBlur_34_4627"
         id="feGaussianBlur33" />
    </filter>
    <filter
       id="filter1_f_34_4627"
       x="29.9"
       y="259.89999"
       width="394.20001"
       height="148.2"
       filterUnits="userSpaceOnUse"
       color-interpolation-filters="sRGB">
      <feFlood
         flood-opacity="0"
         result="BackgroundImageFix"
         id="feFlood34" />
      <feBlend
         mode="normal"
         in="SourceGraphic"
         in2="BackgroundImageFix"
         result="shape"
         id="feBlend34" />
      <feGaussianBlur
         stdDeviation="10.05"
         result="effect1_foregroundBlur_34_4627"
         id="feGaussianBlur34" />
    </filter>
    <radialGradient
       id="paint0_radial_34_4627"
       cx="0"
       cy="0"
       r="1"
       gradientUnits="userSpaceOnUse"
       gradientTransform="matrix(0,-443.164,368.503,0,346,431.23)">
      <stop
         stop-color="white"
         id="stop34" />
      <stop
         offset="1"
         stop-color="white"
         stop-opacity="0"
         id="stop35" />
    </radialGradient>
    <linearGradient
       id="paint3_linear_34_4627"
       x1="330"
       y1="0"
       x2="330"
       y2="1430.51"
       gradientUnits="userSpaceOnUse">
      <stop
         stop-color="#08081E"
         id="stop36" />
      <stop
         offset="0.5"
         stop-color="#08081E"
         stop-opacity="0"
         id="stop37" />
      <stop
         offset="1"
         stop-color="#08081E"
         id="stop38" />
    </linearGradient>
    <radialGradient
       id="paint4_radial_34_4627"
       cx="0"
       cy="0"
       r="1"
       gradientUnits="userSpaceOnUse"
       gradientTransform="matrix(0,-443.164,368.503,0,63.8535,651.316)">
      <stop
         stop-color="white"
         id="stop39" />
      <stop
         offset="1"
         stop-color="white"
         stop-opacity="0"
         id="stop40" />
    </radialGradient>
    <linearGradient
       id="paint7_linear_34_4627"
       x1="1084.92"
       y1="284.91199"
       x2="1084.92"
       y2="1715.42"
       gradientUnits="userSpaceOnUse">
      <stop
         stop-color="#08081E"
         id="stop41" />
      <stop
         offset="0.5"
         stop-color="#08081E"
         stop-opacity="0"
         id="stop42" />
      <stop
         offset="1"
         stop-color="#08081E"
         id="stop43" />
    </linearGradient>
  </defs>
</svg>
