<svg width="50" height="50" viewBox="0 0 50 50" fill="none" xmlns="http://www.w3.org/2000/svg">
<rect width="50" height="50" rx="10" fill="#FF0000" fill-opacity="0.1"/>
<g clip-path="url(#clip0_34_4683)">
<path d="M36.399 17.9844C35.1354 16.2261 33.9708 15 32.3187 13.7188C29.7875 11.7688 26.2448 12.1781 24.2521 14.6542L20.8042 18.9438C19.701 20.3156 19.5052 22.1375 20.175 23.6646L13.4156 30.424C12.825 31.0136 12.5 31.799 12.5 32.6333V35.4167C12.5 36.5656 13.4344 37.5 14.5833 37.5H16.6667C17.8156 37.5 18.75 36.5646 18.75 35.4156V34.375H19.7917C20.3667 34.375 20.8333 33.9094 20.8333 33.3333V32.2917H22.9167C23.1896 32.2917 23.4521 32.1844 23.6469 31.9938L26.0333 29.6469C26.699 29.9969 27.4271 30.1938 28.1667 30.1938C29.1604 30.1938 30.1573 29.874 30.9906 29.2229L35.2469 25.9021C37.699 23.9896 38.2052 20.5104 36.3979 17.9833L36.399 17.9844ZM22.4896 30.2094H19.7917C19.2323 30.1969 18.7385 30.6896 18.75 31.25V32.2917H17.7083C17.1333 32.2917 16.6667 32.7573 16.6667 33.3333V35.4156H14.5833V32.6333C14.5833 32.3594 14.6948 32.0906 14.8885 31.8969L21.426 25.3604L24.399 28.3333L22.4896 30.2094ZM33.9656 24.2604L29.7094 27.5813C28.7104 28.3583 27.2833 28.2708 26.3885 27.3771L22.6104 23.599C21.7021 22.6906 21.624 21.25 22.4292 20.249L25.8771 15.9594C27.1646 14.3594 29.4458 14.1281 31.0469 15.3688C32.5375 16.524 33.5604 17.6021 34.7052 19.1958C35.8604 20.8125 35.5365 23.0365 33.9677 24.2604H33.9656ZM31.9625 20.0833C32.3698 20.4906 32.3698 21.149 31.9625 21.5563C31.7594 21.7594 31.4927 21.8615 31.226 21.8615C30.9594 21.8615 30.6927 21.7594 30.4896 21.5563L28.4062 19.4729C27.999 19.0656 27.999 18.4073 28.4062 18C28.8135 17.5927 29.4719 17.5927 29.8792 18L31.9625 20.0833Z" fill="#DB1E1E"/>
</g>
<defs>
<clipPath id="clip0_34_4683">
<rect width="25" height="25" fill="white" transform="translate(12.5 12.5)"/>
</clipPath>
</defs>
</svg>
