<svg width="35" height="35" viewBox="0 0 35 35" fill="none" xmlns="http://www.w3.org/2000/svg">
<path d="M34.5725 32.5107L25.8677 23.8059C28.2399 20.9047 29.4062 17.2027 29.1254 13.4657C28.8446 9.72864 27.1382 6.24249 24.3592 3.72831C21.5802 1.21413 17.9411 -0.135734 14.1947 -0.0420625C10.4483 0.0516089 6.88125 1.58164 4.23132 4.23157C1.5814 6.88149 0.0513648 10.4486 -0.0423066 14.1949C-0.135978 17.9413 1.21388 21.5804 3.72806 24.3594C6.24225 27.1385 9.72839 28.8449 13.4654 29.1257C17.2024 29.4064 20.9044 28.2401 23.8056 25.868L32.5104 34.5728C32.7855 34.8384 33.1539 34.9854 33.5362 34.9821C33.9186 34.9788 34.2844 34.8254 34.5548 34.555C34.8251 34.2846 34.9785 33.9188 34.9818 33.5365C34.9852 33.1541 34.8382 32.7857 34.5725 32.5107ZM14.5831 26.2501C12.2757 26.2501 10.0201 25.5658 8.10149 24.2839C6.18291 23.0019 4.68757 21.1798 3.80454 19.048C2.92152 16.9162 2.69048 14.5704 3.14064 12.3073C3.5908 10.0442 4.70195 7.96542 6.33356 6.3338C7.96517 4.70219 10.044 3.59105 12.3071 3.14089C14.5702 2.69073 16.916 2.92176 19.0478 3.80479C21.1796 4.68781 23.0017 6.18316 24.2836 8.10173C25.5656 10.0203 26.2498 12.2759 26.2498 14.5834C26.2463 17.6765 25.0161 20.642 22.8289 22.8291C20.6417 25.0163 17.6763 26.2466 14.5831 26.2501Z" fill="#DB1E1E"/>
</svg>
