<svg width="35" height="35" viewBox="0 0 35 35" fill="none" xmlns="http://www.w3.org/2000/svg">
<path d="M33.2909 14.4579L28.3311 9.49813C27.6194 4.12708 22.9819 0 17.5001 0C12.7896 0 8.72818 2.97354 7.2086 7.3325C6.90527 7.36167 6.60193 7.40833 6.30006 7.4725C3.18506 8.12438 0.705892 10.6794 0.134226 13.8279C-0.395149 16.7563 0.663601 19.6117 2.91673 21.4594V21.8735C2.91673 22.2615 3.06985 22.6319 3.34402 22.9046L4.50048 24.061L3.34402 25.2175C2.77381 25.7877 2.77381 26.7094 3.34402 27.2796L4.50048 28.436L3.34402 29.5925C3.06985 29.8667 2.91673 30.2371 2.91673 30.6235C2.91673 31.01 3.06985 31.3819 3.34402 31.6546L5.74735 34.0565C6.37443 34.6835 7.19693 34.9985 8.02235 34.9985C8.84485 34.9985 9.67027 34.6835 10.2973 34.0565L11.8446 32.5077C12.6701 31.6823 13.1265 30.5827 13.1265 29.4146V21.4944C14.9669 19.9763 16.0432 17.7188 16.0432 15.3096C16.0432 12.8829 14.9626 10.6123 13.0769 9.08104C12.2238 8.38833 11.2467 7.89833 10.2142 7.60667C11.4932 4.78625 14.2976 2.91521 17.503 2.91521C21.4696 2.91521 24.8078 5.86833 25.3984 9.72854L20.6705 14.4565C19.584 15.5415 18.9613 17.045 18.9613 18.5806V29.1652C18.9613 32.3823 21.5776 34.9985 24.7946 34.9985H29.1696C32.3867 34.9985 35.003 32.3823 35.003 29.1652V18.5806C35.003 17.045 34.3803 15.5415 33.2938 14.4565L33.2909 14.4579ZM13.1251 15.3125C13.1251 17.0173 12.2763 18.6025 10.8544 19.5548C10.4505 19.826 10.2084 20.2796 10.2084 20.7667V29.4175C10.2084 29.801 10.0538 30.1773 9.7811 30.4485L8.23381 31.9973C8.13464 32.0965 7.9086 32.0965 7.80943 31.9973L6.43714 30.6265L7.5936 29.47C8.16381 28.8998 8.16381 27.9781 7.5936 27.4079L6.43714 26.2515L7.5936 25.095C8.16381 24.5248 8.16381 23.6031 7.5936 23.0329L5.83339 21.2727V20.7302C5.83339 20.2446 5.59131 19.7896 5.18881 19.5198C3.47235 18.3677 2.63673 16.3873 3.00568 14.3515C3.36735 12.3579 4.93214 10.7392 6.89943 10.3279C8.4861 9.99687 10.0203 10.36 11.238 11.3488C12.4382 12.3244 13.1265 13.7681 13.1265 15.314L13.1251 15.3125ZM32.0834 29.1667C32.0834 30.7752 30.7753 32.0833 29.1667 32.0833H24.7917C23.1832 32.0833 21.8751 30.7752 21.8751 29.1667V18.5821C21.8751 17.815 22.1871 17.0625 22.7296 16.52L26.9792 12.2704L31.2288 16.52C31.7713 17.0625 32.0834 17.815 32.0834 18.5821V29.1667ZM8.02089 11.6667C9.22839 11.6667 10.2084 12.6467 10.2084 13.8542C10.2084 15.0617 9.22839 16.0417 8.02089 16.0417C6.81339 16.0417 5.83339 15.0617 5.83339 13.8542C5.83339 12.6467 6.81339 11.6667 8.02089 11.6667Z" fill="#DB1E1E"/>
</svg>
