<svg width="30" height="35" viewBox="0 0 30 35" fill="none" xmlns="http://www.w3.org/2000/svg">
<path d="M24.1704 3.09932L15.0427 0.0732813C14.7437 -0.0244271 14.4229 -0.0244271 14.124 0.0732813L4.99771 3.09932C2.00813 4.08953 0 6.87057 0 10.0206V17.5616C0 27.1327 10.2156 32.9864 13.3481 34.5512C13.3481 34.5512 14.105 34.9989 14.5877 34.9989C15.0704 34.9989 15.7413 34.6489 15.7413 34.6489C18.8913 33.3816 29.1681 28.4043 29.1681 17.5616V10.0206C29.1681 6.87057 27.16 4.08953 24.1719 3.09932H24.1704ZM26.25 10.0206V15.9764H16.0417V3.47703L23.2517 5.86724C25.044 6.46224 26.25 8.13057 26.25 10.0206ZM5.915 5.86724L13.125 3.47703V15.9764H2.91667V10.0206C2.91667 8.13057 4.12125 6.46224 5.915 5.86724ZM3.01 18.8931H13.125V31.1183C9.74896 29.1802 3.79604 24.9495 3.01 18.8931ZM16.0417 31.3254V18.8931H26.1683C25.4625 25.8537 19.3827 29.7168 16.0417 31.3254Z" fill="#DB1E1E"/>
</svg>
