<svg width="494" height="494" viewBox="0 0 494 494" fill="none" xmlns="http://www.w3.org/2000/svg">
<path d="M465.702 462.534H391.16C376.826 462.534 363.962 453.736 358.761 440.386L308.627 311.686H201.365C198.922 311.686 196.998 309.066 197.88 306.786L213.226 267.182C213.744 265.843 215.276 265.127 216.711 265.127H443.808C445.24 265.127 446.534 266.011 447.048 267.345L462.389 306.949C463.271 309.229 461.589 311.684 459.149 311.684H412.32L468.94 457.797C469.824 460.077 468.14 462.532 465.699 462.532L465.702 462.534Z" fill="#FBFFFE"/>
<path d="M288.792 254.696C287.36 254.696 286.073 253.817 285.552 252.48L252.617 167.922C252.298 167.115 252.298 166.218 252.609 165.405L278.29 99.1402L300.878 40.8432C302.027 37.8817 306.213 37.8817 307.359 40.8432L389.139 251.858C389.67 253.226 388.659 254.698 387.192 254.698H288.79L288.792 254.696Z" fill="#FBFFFE"/>
<path d="M242.932 162.276L203.079 265.127L202.814 265.809L200.727 271.205L189.546 300.058L187.458 305.447L185.038 311.684L135.183 440.329C129.996 453.716 117.115 462.534 102.762 462.534H28.3064C25.8586 462.534 24.1766 460.079 25.0583 457.799L140.074 161.481C140.995 159.105 143.282 157.541 145.831 157.541H239.691C242.132 157.541 243.816 159.996 242.932 162.276Z" fill="#FBFFFE"/>
<path d="M289.02 43.2496L249.631 144.893C249.109 146.229 247.822 147.111 246.39 147.111H150.707C148.259 147.111 146.577 144.655 147.459 142.376L179.164 60.7051C184.351 47.3326 197.232 38.5146 211.578 38.5146H285.779C288.227 38.5146 289.901 40.9698 289.02 43.2496Z" fill="#FBFFFE"/>
</svg>
