<svg width="36" height="34" viewBox="0 0 36 34" fill="none" xmlns="http://www.w3.org/2000/svg">
<path d="M34.9436 33.6536H29.0269C27.8891 33.6536 26.8681 32.9552 26.4552 31.8956L22.4758 21.68H13.9619C13.768 21.68 13.6153 21.472 13.6852 21.2911L14.9033 18.1475C14.9445 18.0412 15.0661 17.9844 15.18 17.9844H33.2058C33.3195 17.9844 33.4222 18.0546 33.463 18.1604L34.6807 21.304C34.7507 21.485 34.6172 21.6798 34.4235 21.6798H30.7065L35.2007 33.2776C35.2709 33.4585 35.1371 33.6534 34.9434 33.6534L34.9436 33.6536Z" fill="#FF0000"/>
<path d="M20.9022 17.1587C20.7885 17.1587 20.6863 17.0889 20.645 16.9828L18.0308 10.271C18.0055 10.2069 18.0055 10.1357 18.0302 10.0712L20.0686 4.81144L21.8615 0.184116C21.9527 -0.0509554 22.285 -0.0509554 22.376 0.184116L28.8672 16.9334C28.9093 17.042 28.8292 17.1589 28.7127 17.1589H20.902L20.9022 17.1587Z" fill="#FF0000"/>
<path d="M17.2618 9.82506L14.0984 17.9888L14.0775 18.043L13.9118 18.4713L13.0243 20.7615L12.8586 21.1893L12.6664 21.6843L8.70925 31.8955C8.29753 32.9581 7.27509 33.6581 6.13581 33.6581H0.225888C0.0315962 33.6581 -0.101918 33.4632 -0.0319262 33.2822L9.09744 9.76193C9.17057 9.57332 9.35212 9.44922 9.55445 9.44922H17.0046C17.1983 9.44922 17.332 9.6441 17.2618 9.82506Z" fill="#FF0000"/>
<path d="M20.9193 0.37584L17.7928 8.44375C17.7514 8.54982 17.6493 8.61981 17.5356 8.61981H9.94073C9.74644 8.61981 9.61293 8.42493 9.68292 8.24397L12.1995 1.76137C12.6112 0.699921 13.6336 0 14.7723 0H20.6621C20.8564 0 20.9893 0.19488 20.9193 0.37584Z" fill="#FF0000"/>
</svg>
