<svg width="45" height="45" viewBox="0 0 45 45" fill="none" xmlns="http://www.w3.org/2000/svg">
<path d="M22.4999 2.87415C11.6605 2.87415 2.87402 11.6606 2.87402 22.5001C2.87402 33.3395 11.6605 42.126 22.4999 42.126C33.3393 42.126 42.1258 33.3395 42.1258 22.5001C42.1258 11.6606 33.3393 2.87415 22.4999 2.87415ZM40.8448 22.5001C40.8448 32.6333 32.6331 40.8449 22.4999 40.8449C12.3667 40.8449 4.15505 32.6333 4.15505 22.5001C4.15505 12.3668 12.3667 4.15517 22.4999 4.15517C32.6331 4.15517 40.8448 12.3668 40.8448 22.5001Z" fill="white"/>
<path d="M32.01 14.1747C32.2728 14.4539 32.6669 14.9302 32.8804 15.2094L36.8549 12.6802C36.6578 12.4174 36.3458 12.0232 36.0994 11.744L33.5866 13.4028L33.4224 13.5506L33.5538 13.37L34.6706 11.1528L33.8823 10.3645L31.6651 11.4813L31.4844 11.6127L31.6323 11.4484L33.291 8.93565C32.9954 8.6893 32.7162 8.45937 32.3549 8.18018L29.8257 12.1546C30.1377 12.401 30.5647 12.7623 30.8275 13.0086L33.2089 11.7769L33.3567 11.6619L33.2417 11.8097L32.01 14.1747Z" fill="white"/>
<path d="M22.9934 9.14919L24.0773 6.71853L24.143 6.50503L24.1266 6.73496L24.2416 9.98678C24.6193 10.0196 25.0135 10.0689 25.4076 10.1346L25.227 5.32255C24.685 5.25686 24.143 5.22401 23.601 5.19116L22.5335 7.85175L22.5007 8.04883L22.4678 7.85175L21.4003 5.19116C20.8583 5.20759 20.3164 5.25686 19.7744 5.32255L19.5938 10.1346C19.9879 10.0689 20.3821 10.0196 20.7598 9.98678L20.8748 6.73496L20.8583 6.50503L20.924 6.71853L22.008 9.14919H22.9934Z" fill="white"/>
<path d="M14.2069 12.9759C14.831 12.3189 15.1923 11.547 14.5682 10.8244C14.2233 10.4302 13.6485 10.3481 13.1722 10.5452L13.1229 10.5616L13.1394 10.5124C13.2051 10.3317 13.2543 9.72403 12.7452 9.31345C12.4989 9.11637 12.1868 9.03425 11.8748 9.0671C11.2835 9.13279 10.8401 9.52695 9.59192 10.9065C9.21419 11.3171 8.67222 11.974 8.34375 12.401L11.7434 15.62C12.8766 14.3718 13.32 13.912 14.2069 12.9759ZM9.78901 12.1875C10.4788 11.3499 11.2014 10.5945 11.5299 10.2988C11.6284 10.2003 11.7434 10.1018 11.8912 10.0689C12.1211 10.0032 12.351 10.1675 12.4003 10.3974C12.4496 10.6273 12.3018 10.8408 12.154 11.0215C11.7762 11.4321 10.4459 12.828 10.4459 12.828L9.78901 12.1875ZM11.1193 13.4521C11.1193 13.4521 12.4167 12.089 12.8273 11.6456C12.9916 11.4649 13.1065 11.3664 13.2215 11.3171C13.3693 11.2514 13.5335 11.235 13.6813 11.3335C13.8292 11.4321 13.8948 11.5963 13.862 11.7605C13.8127 11.9576 13.6649 12.1383 13.5335 12.2861C13.3529 12.4832 11.8255 14.1091 11.8255 14.1091L11.1193 13.4521Z" fill="white"/>
<path d="M22.4998 10.8723V22.5001H10.8721C10.8721 16.0621 16.0619 10.8723 22.4998 10.8723Z" fill="white"/>
<path d="M34.1277 22.5C34.1277 28.938 28.9215 34.1277 22.5 34.1277V22.5H34.1277Z" fill="white"/>
</svg>
