<svg width="99" height="33" viewBox="0 0 99 33" fill="none" xmlns="http://www.w3.org/2000/svg">
<g clip-path="url(#clip0_33_1251)">
<path d="M98.7916 1.34187C98.2669 1.38163 77.3383 2.28614 64.7851 2.75331C61.6963 2.91235 60.7855 2.84277 58.2115 1.98795C54.4 0.805121 50.9548 0 49.4995 0C48.0442 0 44.599 0.80512 40.7875 1.97801C38.2135 2.83283 37.2928 2.90241 34.2139 2.73343C21.6706 2.2762 0.732087 1.38163 0.207387 1.33193C-0.0500131 1.30211 -0.0500131 1.42139 0.0885869 1.56054C0.910287 2.43524 1.39539 2.71355 3.16749 2.96205C7.30569 3.53855 28.2739 5.00964 32.917 5.6756C35.8771 6.11295 36.58 7.14669 37.7878 9.1744C41.0548 14.4723 43.6486 17.0169 49.2124 19.8C49.3015 19.8497 49.4203 19.8795 49.4797 19.8795C49.5391 19.8795 49.6678 19.8497 49.747 19.8099C55.3108 17.0169 57.9046 14.4723 61.1716 9.1744C62.3992 7.14669 63.0823 6.11295 66.0424 5.6756C70.6855 5.00964 91.6636 3.53855 95.7919 2.96205C97.564 2.70361 98.0392 2.43524 98.8708 1.56054C99.049 1.44127 99.049 1.32199 98.7916 1.34187ZM59.8252 6.59006C58.8847 11.4705 54.2614 15.6551 49.7272 18.3687C49.6183 18.4383 49.5391 18.4383 49.4995 18.4383C49.4599 18.4383 49.3807 18.4383 49.2718 18.3687C44.7475 15.6551 40.1143 11.4605 39.1738 6.59006C38.8471 4.75121 39.5401 4.40331 40.6984 3.98584C42.7675 3.23042 47.5294 1.7494 49.4995 1.7494C51.4795 1.7494 56.2315 3.22048 58.3006 3.98584C59.449 4.40331 60.1519 4.74127 59.8252 6.59006ZM96.1879 4.38343C95.3365 5.22831 94.396 6.03343 93.6832 6.57018C91.2478 8.43886 89.4262 8.89608 86.4661 9.00542C83.9614 9.09488 68.6659 9.83042 66.874 9.96958C65.587 10.059 65.2009 10.2678 64.8544 10.6852C64.696 10.8642 64.6663 11.0232 64.894 11.0232C66.4186 11.0232 75.8137 10.9337 83.5654 10.7548C83.6347 10.7548 83.6545 10.7946 83.5951 10.8244C78.0511 12.6633 73.6159 13.8163 69.1114 13.7864C66.8344 13.7666 64.5871 13.7467 63.6862 13.7467C62.716 13.7467 62.3299 13.8361 61.9636 14.3033C61.8151 14.4922 61.8448 14.6015 62.1715 14.6313C63.5179 14.7506 65.4583 14.8898 67.7353 15.019C67.9432 15.0389 67.9432 15.0886 67.765 15.1283C62.5972 16.3608 59.8549 16.9473 56.2216 17.5437C55.9642 17.5834 55.9642 17.4741 56.0929 17.3747C59.3599 14.7705 60.4687 12.862 62.9734 8.95572C63.7258 7.75301 64.6564 7.20633 66.676 6.94789C67.7848 6.80874 91.4359 4.60211 96.079 4.18464C96.3265 4.15482 96.3265 4.25422 96.1879 4.38343ZM29.8777 13.7765C25.3732 13.8063 20.938 12.6533 15.394 10.8145C15.3247 10.7846 15.3544 10.7449 15.4237 10.7449C23.1754 10.9238 32.5705 11.0133 34.0951 11.0133C34.3228 11.0133 34.303 10.8642 34.1347 10.6753C33.7981 10.2578 33.4021 10.0491 32.1151 9.95964C30.3232 9.82048 15.0277 9.09488 12.523 8.99548C9.56289 8.88614 7.74129 8.42892 5.30589 6.56024C4.59309 6.03343 3.65259 5.22831 2.80119 4.37349C2.66259 4.23434 2.66259 4.14488 2.91999 4.16476C7.56309 4.58223 31.2241 6.78886 32.323 6.92801C34.3426 7.18645 35.2732 7.73313 36.0256 8.93584C38.5402 12.8521 39.6292 14.7605 42.9061 17.3548C43.0447 17.4741 43.0447 17.5834 42.7873 17.5437C39.154 16.9473 36.4216 16.3708 31.2439 15.1184C31.0657 15.0786 31.0657 15.0289 31.2736 15.009C33.5506 14.8699 35.4712 14.7307 36.8374 14.6214C37.1641 14.5916 37.174 14.4822 37.0453 14.2934C36.679 13.8361 36.2929 13.7367 35.3227 13.7367C34.402 13.7268 32.1547 13.7467 29.8777 13.7765ZM46.0345 5.96386L46.1236 6.29187V6.30181H44.896V7.06717H45.9454V7.39518H44.896V8.25H46.1335V8.58795H44.3317V6.35151C44.3317 6.26205 44.3119 6.20241 44.2426 6.17259L44.1238 6.11295L44.1832 5.96386H46.0345ZM42.8467 7.18645H43.6684V8.36928C43.5793 8.43886 43.2328 8.63765 42.6487 8.63765C41.8567 8.63765 41.2528 8.1506 41.2528 7.28584C41.2528 6.32169 41.9359 5.8744 42.7378 5.88434C43.0249 5.89428 43.2526 5.93404 43.6387 6.09307L43.5199 6.52048C43.1932 6.25211 42.8863 6.22229 42.7477 6.22229C42.1834 6.22229 41.8567 6.65964 41.8567 7.26596C41.8567 7.85241 42.223 8.25 42.7279 8.27982C42.8863 8.28976 43.0348 8.24006 43.1437 8.18042V7.59398C43.1437 7.50452 43.114 7.4747 43.0447 7.44488L42.7873 7.33554L42.8467 7.18645ZM51.3904 5.96386L51.4795 6.29187V6.30181H50.2519V7.06717H51.3013V7.39518H50.2519V8.25H51.4795V8.58795H49.6777V6.35151C49.6777 6.26205 49.6579 6.20241 49.5886 6.17259L49.4698 6.11295L49.5292 5.96386H51.3904ZM54.2713 5.97379H55.0039V8.58795H54.4297V6.35151C54.4297 6.26205 54.4099 6.21235 54.3307 6.17259L54.2119 6.11295L54.2713 5.97379ZM48.5491 5.95392H48.9649V8.56807H48.5095L47.1631 6.86837V8.56807H46.7473V6.34157C46.7473 6.25211 46.7275 6.21235 46.6483 6.17259L46.5295 6.11295L46.5988 5.96386H47.0641H47.1532L48.559 7.74307V5.95392H48.5491ZM57.5482 7.90211C57.5482 8.37922 57.0631 8.64759 56.5186 8.64759C56.1919 8.64759 55.7662 8.56807 55.6573 8.53825L55.7167 8.09096C55.9444 8.19036 56.2414 8.2997 56.5186 8.2997C56.8156 8.2997 56.974 8.17048 56.974 7.97169C56.974 7.71325 56.677 7.60392 56.3305 7.44488C55.9246 7.25602 55.6375 7.03735 55.6375 6.63976C55.6375 6.22229 56.0137 5.9241 56.6869 5.9241C56.9938 5.9241 57.271 5.98374 57.4888 6.06325L57.4096 6.4509C57.172 6.35151 56.9047 6.24217 56.6275 6.24217C56.3503 6.24217 56.2117 6.36145 56.2117 6.51054C56.2117 6.80873 56.5483 6.89819 56.875 7.07711C57.2116 7.23614 57.5482 7.43494 57.5482 7.90211ZM53.806 7.90211C53.806 8.37922 53.3209 8.64759 52.7764 8.64759C52.4497 8.64759 52.024 8.56807 51.9151 8.53825L51.9745 8.09096C52.2022 8.19036 52.4992 8.2997 52.7863 8.2997C53.0833 8.2997 53.2318 8.17048 53.2318 7.97169C53.2318 7.71325 52.9348 7.60392 52.5883 7.44488C52.1923 7.25602 51.9151 7.03735 51.9151 6.63976C51.9151 6.22229 52.2616 5.9241 52.9348 5.9241C53.2417 5.9241 53.5189 5.98374 53.7367 6.06325L53.6575 6.4509C53.4199 6.35151 53.1526 6.24217 52.8754 6.24217C52.5982 6.24217 52.4596 6.36145 52.4596 6.51054C52.4596 6.80873 52.7962 6.89819 53.1229 7.07711C53.4694 7.23614 53.806 7.43494 53.806 7.90211ZM33.0061 29.3521H35.0752V32.334C34.8574 32.503 33.9862 33 32.5111 33C30.5212 33 29.0065 31.7774 29.0065 29.6105C29.0065 27.1852 30.7192 26.0521 32.7487 26.0919C33.4714 26.1117 34.0456 26.2211 35.0158 26.6286L34.7188 27.7021C33.907 27.0361 33.115 26.9566 32.7784 26.9566C31.3726 26.9566 30.5311 28.05 30.5311 29.5708C30.5311 31.0518 31.4518 32.0557 32.7091 32.1253C33.115 32.1452 33.4813 32.016 33.7585 31.8669V30.3858C33.7585 30.1672 33.6991 30.0877 33.5011 29.9982L32.8576 29.7199L33.0061 29.3521ZM47.3512 26.241H48.4006V32.8211H47.2522L43.8763 28.5569V32.8211H42.8269V27.2051C42.8269 26.9964 42.7873 26.887 42.5695 26.7777L42.2725 26.6286L42.4408 26.241H43.6189H43.8367L47.3611 30.7238V26.241H47.3512ZM41.035 26.2608L41.2726 27.0958V27.1157H38.1937V29.044H40.837V29.859H38.1937V32.006H41.2726V32.8608H36.7483V27.2449C36.7483 27.0063 36.7087 26.8771 36.5107 26.7976L36.2137 26.6485L36.3622 26.2608H41.035ZM54.5089 26.2608L54.7465 27.0958V27.1157H51.6676V29.044H54.3109V29.859H51.6676V32.006H54.7465V32.8608H50.2222V27.2449C50.2222 27.0063 50.1826 26.8771 49.9846 26.7976L49.6876 26.6485L49.8361 26.2608H54.5089ZM69.9925 31.1313C69.9925 32.334 68.7748 33 67.4086 33C66.5968 33 65.5078 32.8012 65.2306 32.7217L65.3791 31.5886C65.9533 31.847 66.7057 32.1054 67.4086 32.1054C68.1511 32.1054 68.5372 31.7873 68.5372 31.2904C68.5372 30.6443 67.7848 30.366 66.9136 29.9584C65.8939 29.4813 65.1613 28.9247 65.1613 27.9208C65.1613 26.8672 66.1018 26.1217 67.7848 26.1217C68.557 26.1217 69.2599 26.2708 69.8143 26.4596L69.6262 27.4437C69.0322 27.1852 68.3689 26.9268 67.666 26.9268C66.9631 26.9268 66.6166 27.225 66.6166 27.5928C66.6166 28.3482 67.468 28.5768 68.2798 29.0042C69.1312 29.4614 69.9925 29.9684 69.9925 31.1313ZM61.7458 26.2807H63.5773V32.8608H62.122V27.2449C62.122 27.0063 62.0824 26.897 61.8646 26.7976L61.5676 26.6485L61.7458 26.2807ZM60.5677 31.1313C60.5677 32.334 59.35 33 57.9838 33C57.172 33 56.083 32.8012 55.8058 32.7217L55.9543 31.5886C56.5285 31.847 57.2809 32.1054 57.9838 32.1054C58.7263 32.1054 59.1124 31.7873 59.1124 31.2904C59.1124 30.6443 58.3699 30.366 57.4888 29.9584C56.4889 29.4813 55.8058 28.9247 55.8058 27.9208C55.8058 26.8672 56.677 26.1217 58.3699 26.1217C59.1421 26.1217 59.845 26.2708 60.3994 26.4596L60.2113 27.4437C59.6173 27.1852 58.954 26.9268 58.2511 26.9268C57.5482 26.9268 57.2017 27.225 57.2017 27.5928C57.2017 28.3482 58.0531 28.5768 58.8649 29.0042C59.7163 29.4614 60.5677 29.9684 60.5677 31.1313Z" fill="white"/>
</g>
<defs>
<clipPath id="clip0_33_1251">
<rect width="99" height="33" fill="white"/>
</clipPath>
</defs>
</svg>
