<svg width="45" height="45" viewBox="0 0 45 45" fill="none" xmlns="http://www.w3.org/2000/svg">
<g clip-path="url(#clip0_33_1257)">
<path d="M32.9625 2.53125C29.8125 0.9 26.2687 0 22.5 0C18.7313 0 15.1875 0.9 12.0375 2.53125C4.89375 6.3 0 13.8375 0 22.5C0 31.1625 4.89375 38.7 12.0938 42.4688C15.1875 44.0438 18.7313 45 22.5 45C26.2687 45 29.7563 44.0438 32.9062 42.4125C40.1063 38.7 45 31.1625 45 22.5C45 13.8375 40.1063 6.3 32.9625 2.53125ZM2.25 22.5C2.25 15.1312 6.1875 8.71875 12.0938 5.11875C14.9625 3.375 18.2812 2.3625 21.9375 2.25L19.4062 20.6438L12.0938 26.325L4.66875 32.1187C3.15 29.25 2.25 25.9875 2.25 22.5ZM32.9625 39.825C29.8687 41.6813 26.325 42.75 22.5 42.75C18.675 42.75 15.075 41.6813 12.0375 39.825C9.28125 38.1938 7.03125 35.9437 5.34375 33.2437L12.0375 30.4875L22.5 26.2125L32.9625 30.4312L39.7125 33.1875C38.025 35.9437 35.6625 38.1938 32.9625 39.825ZM32.9625 26.325L25.7063 20.7L23.1187 2.25C26.6625 2.3625 30.0375 3.375 32.9062 5.11875C38.8125 8.6625 42.75 15.1312 42.75 22.5C42.75 25.9875 41.9062 29.25 40.3312 32.1187L32.9625 26.325Z" fill="white"/>
</g>
<defs>
<clipPath id="clip0_33_1257">
<rect width="45" height="45" fill="white"/>
</clipPath>
</defs>
</svg>
