<svg width="50" height="50" viewBox="0 0 50 50" fill="none" xmlns="http://www.w3.org/2000/svg">
<rect width="50" height="50" rx="10" fill="#DB1E1E" fill-opacity="0.1"/>
<g clip-path="url(#clip0_33_1340)">
<path d="M36.4584 28.125H35.7636C35.5032 28.125 35.2449 28.1448 34.9876 28.1844L27.648 22.6802L29.4063 20.9969C29.8219 20.5989 29.8365 19.9385 29.4386 19.5239C29.0396 19.1083 28.3792 19.0948 27.9657 19.4916L23.6188 23.6531C23.4022 23.8698 23.1074 23.9812 22.798 23.9552C22.4876 23.9302 22.2147 23.7729 22.0282 23.5125C21.7428 23.1166 21.8303 22.4969 22.2032 22.1229L27.1022 17.5094C28.0303 16.6375 29.4813 16.4239 30.6167 16.9937L33.0292 18.2C33.748 18.5594 34.5542 18.7489 35.3574 18.7489H36.4574C37.0334 18.7489 37.499 18.2833 37.499 17.7073C37.499 17.1312 37.0334 16.6656 36.4574 16.6656H35.3574C34.8751 16.6656 34.3907 16.5521 33.9594 16.3364L31.549 15.1302C29.649 14.1792 27.223 14.5323 25.673 15.9927L25.0292 16.5989L24.3001 15.9344C23.3428 15.0625 22.1032 14.5823 20.7688 14.5823C19.9657 14.5823 19.1646 14.7719 18.449 15.1292L16.0386 16.3354C15.6063 16.551 15.1219 16.6646 14.6396 16.6646H13.5417C12.9657 16.6646 12.5001 17.1302 12.5001 17.7062C12.5001 18.2823 12.9657 18.7479 13.5417 18.7479H14.6417C15.4449 18.7479 16.2511 18.5573 16.9709 18.1989L19.3834 16.9927C20.448 16.4573 21.9438 16.6021 22.898 17.4739L23.5094 18.0312L20.7532 20.6271C19.6355 21.7437 19.4574 23.5094 20.3386 24.7291C20.8803 25.4823 21.9563 26.0406 22.8844 26.0406C23.7105 26.0406 24.5032 25.7156 25.0761 25.1416L26.124 24.1385L32.7344 29.0958C32.7022 29.1187 26.2782 33.9354 26.2782 33.9354C25.5251 34.5208 24.474 34.5208 23.7053 33.9239L17.3605 29.1656C16.4657 28.4937 15.3553 28.1239 14.2355 28.1239H13.5407C12.9646 28.1239 12.499 28.5896 12.499 29.1656C12.499 29.7416 12.9646 30.2073 13.5407 30.2073H14.2355C14.9074 30.2073 15.573 30.4291 16.1105 30.8323L22.4407 35.5802C23.1959 36.1677 24.1011 36.4614 25.0042 36.4614C25.9022 36.4614 26.799 36.1708 27.5428 35.5916L33.8897 30.8333C34.4261 30.4302 35.0917 30.2083 35.7636 30.2083H36.4584C37.0344 30.2083 37.5001 29.7427 37.5001 29.1666C37.5001 28.5906 37.0344 28.125 36.4584 28.125Z" fill="#DB1E1E"/>
</g>
<defs>
<clipPath id="clip0_33_1340">
<rect width="25" height="25" fill="white" transform="translate(12.5 12.5)"/>
</clipPath>
</defs>
</svg>
