<svg width="50" height="50" viewBox="0 0 50 50" fill="none" xmlns="http://www.w3.org/2000/svg">
<rect width="50" height="50" rx="10" fill="#DB1E1E" fill-opacity="0.1"/>
<g clip-path="url(#clip0_33_1346)">
<path d="M32.2918 21.275V19.7917C32.2918 17.8578 31.5236 16.0031 30.1562 14.6357C28.7887 13.2682 26.934 12.5 25.0002 12.5C23.0663 12.5 21.2116 13.2682 19.8442 14.6357C18.4767 16.0031 17.7085 17.8578 17.7085 19.7917V21.275C16.7807 21.6799 15.9911 22.3464 15.4361 23.1929C14.8811 24.0395 14.5848 25.0294 14.5835 26.0417V32.2917C14.5852 33.6725 15.1344 34.9963 16.1108 35.9727C17.0872 36.9491 18.411 37.4983 19.7918 37.5H30.2085C31.5893 37.4983 32.9131 36.9491 33.8895 35.9727C34.8659 34.9963 35.4152 33.6725 35.4168 32.2917V26.0417C35.4155 25.0294 35.1192 24.0395 34.5642 23.1929C34.0092 22.3464 33.2196 21.6799 32.2918 21.275ZM19.7918 19.7917C19.7918 18.4103 20.3406 17.0856 21.3173 16.1088C22.2941 15.1321 23.6188 14.5833 25.0002 14.5833C26.3815 14.5833 27.7063 15.1321 28.683 16.1088C29.6598 17.0856 30.2085 18.4103 30.2085 19.7917V20.8333H19.7918V19.7917ZM33.3335 32.2917C33.3335 33.1205 33.0043 33.9153 32.4182 34.5014C31.8322 35.0874 31.0373 35.4167 30.2085 35.4167H19.7918C18.963 35.4167 18.1682 35.0874 17.5821 34.5014C16.9961 33.9153 16.6668 33.1205 16.6668 32.2917V26.0417C16.6668 25.2129 16.9961 24.418 17.5821 23.832C18.1682 23.2459 18.963 22.9167 19.7918 22.9167H30.2085C31.0373 22.9167 31.8322 23.2459 32.4182 23.832C33.0043 24.418 33.3335 25.2129 33.3335 26.0417V32.2917Z" fill="#DB1E1E"/>
<path d="M25.0002 27.0834C24.7239 27.0834 24.4589 27.1931 24.2636 27.3885C24.0682 27.5838 23.9585 27.8488 23.9585 28.125V30.2084C23.9585 30.4846 24.0682 30.7496 24.2636 30.9449C24.4589 31.1403 24.7239 31.25 25.0002 31.25C25.2764 31.25 25.5414 31.1403 25.7367 30.9449C25.9321 30.7496 26.0418 30.4846 26.0418 30.2084V28.125C26.0418 27.8488 25.9321 27.5838 25.7367 27.3885C25.5414 27.1931 25.2764 27.0834 25.0002 27.0834Z" fill="#DB1E1E"/>
</g>
<defs>
<clipPath id="clip0_33_1346">
<rect width="25" height="25" fill="white" transform="translate(12.5 12.5)"/>
</clipPath>
</defs>
</svg>
