<svg width="50" height="50" viewBox="0 0 50 50" fill="none" xmlns="http://www.w3.org/2000/svg">
<rect width="50" height="50" rx="10" fill="#DB1E1E" fill-opacity="0.1"/>
<g clip-path="url(#clip0_33_1360)">
<path d="M19.7917 12.5H16.6667C15.5616 12.5 14.5018 12.939 13.7204 13.7204C12.939 14.5018 12.5 15.5616 12.5 16.6667V19.7917C12.5 20.8967 12.939 21.9565 13.7204 22.7379C14.5018 23.5193 15.5616 23.9583 16.6667 23.9583H19.7917C20.8967 23.9583 21.9565 23.5193 22.7379 22.7379C23.5193 21.9565 23.9583 20.8967 23.9583 19.7917V16.6667C23.9583 15.5616 23.5193 14.5018 22.7379 13.7204C21.9565 12.939 20.8967 12.5 19.7917 12.5ZM21.875 19.7917C21.875 20.3442 21.6555 20.8741 21.2648 21.2648C20.8741 21.6555 20.3442 21.875 19.7917 21.875H16.6667C16.1141 21.875 15.5842 21.6555 15.1935 21.2648C14.8028 20.8741 14.5833 20.3442 14.5833 19.7917V16.6667C14.5833 16.1141 14.8028 15.5842 15.1935 15.1935C15.5842 14.8028 16.1141 14.5833 16.6667 14.5833H19.7917C20.3442 14.5833 20.8741 14.8028 21.2648 15.1935C21.6555 15.5842 21.875 16.1141 21.875 16.6667V19.7917Z" fill="#DB1E1E"/>
<path d="M33.3332 12.5H30.2082C29.1031 12.5 28.0433 12.939 27.2619 13.7204C26.4805 14.5018 26.0415 15.5616 26.0415 16.6667V19.7917C26.0415 20.8967 26.4805 21.9565 27.2619 22.7379C28.0433 23.5193 29.1031 23.9583 30.2082 23.9583H33.3332C34.4382 23.9583 35.498 23.5193 36.2794 22.7379C37.0609 21.9565 37.4998 20.8967 37.4998 19.7917V16.6667C37.4998 15.5616 37.0609 14.5018 36.2794 13.7204C35.498 12.939 34.4382 12.5 33.3332 12.5ZM35.4165 19.7917C35.4165 20.3442 35.197 20.8741 34.8063 21.2648C34.4156 21.6555 33.8857 21.875 33.3332 21.875H30.2082C29.6556 21.875 29.1257 21.6555 28.735 21.2648C28.3443 20.8741 28.1248 20.3442 28.1248 19.7917V16.6667C28.1248 16.1141 28.3443 15.5842 28.735 15.1935C29.1257 14.8028 29.6556 14.5833 30.2082 14.5833H33.3332C33.8857 14.5833 34.4156 14.8028 34.8063 15.1935C35.197 15.5842 35.4165 16.1141 35.4165 16.6667V19.7917Z" fill="#DB1E1E"/>
<path d="M19.7917 26.0417H16.6667C15.5616 26.0417 14.5018 26.4807 13.7204 27.2621C12.939 28.0435 12.5 29.1033 12.5 30.2084V33.3334C12.5 34.4385 12.939 35.4983 13.7204 36.2797C14.5018 37.0611 15.5616 37.5001 16.6667 37.5001H19.7917C20.8967 37.5001 21.9565 37.0611 22.7379 36.2797C23.5193 35.4983 23.9583 34.4385 23.9583 33.3334V30.2084C23.9583 29.1033 23.5193 28.0435 22.7379 27.2621C21.9565 26.4807 20.8967 26.0417 19.7917 26.0417ZM21.875 33.3334C21.875 33.8859 21.6555 34.4159 21.2648 34.8066C20.8741 35.1973 20.3442 35.4167 19.7917 35.4167H16.6667C16.1141 35.4167 15.5842 35.1973 15.1935 34.8066C14.8028 34.4159 14.5833 33.8859 14.5833 33.3334V30.2084C14.5833 29.6559 14.8028 29.126 15.1935 28.7353C15.5842 28.3446 16.1141 28.1251 16.6667 28.1251H19.7917C20.3442 28.1251 20.8741 28.3446 21.2648 28.7353C21.6555 29.126 21.875 29.6559 21.875 30.2084V33.3334Z" fill="#DB1E1E"/>
<path d="M33.3332 26.0417H30.2082C29.1031 26.0417 28.0433 26.4807 27.2619 27.2621C26.4805 28.0435 26.0415 29.1033 26.0415 30.2084V33.3334C26.0415 34.4385 26.4805 35.4983 27.2619 36.2797C28.0433 37.0611 29.1031 37.5001 30.2082 37.5001H33.3332C34.4382 37.5001 35.498 37.0611 36.2794 36.2797C37.0609 35.4983 37.4998 34.4385 37.4998 33.3334V30.2084C37.4998 29.1033 37.0609 28.0435 36.2794 27.2621C35.498 26.4807 34.4382 26.0417 33.3332 26.0417ZM35.4165 33.3334C35.4165 33.8859 35.197 34.4159 34.8063 34.8066C34.4156 35.1973 33.8857 35.4167 33.3332 35.4167H30.2082C29.6556 35.4167 29.1257 35.1973 28.735 34.8066C28.3443 34.4159 28.1248 33.8859 28.1248 33.3334V30.2084C28.1248 29.6559 28.3443 29.126 28.735 28.7353C29.1257 28.3446 29.6556 28.1251 30.2082 28.1251H33.3332C33.8857 28.1251 34.4156 28.3446 34.8063 28.7353C35.197 29.126 35.4165 29.6559 35.4165 30.2084V33.3334Z" fill="#DB1E1E"/>
</g>
<defs>
<clipPath id="clip0_33_1360">
<rect width="25" height="25" fill="white" transform="translate(12.5 12.5)"/>
</clipPath>
</defs>
</svg>
