<svg width="50" height="50" viewBox="0 0 50 50" fill="none" xmlns="http://www.w3.org/2000/svg">
<rect width="50" height="50" rx="10" fill="#DB1E1E" fill-opacity="0.1"/>
<g clip-path="url(#clip0_33_1369)">
<path d="M32.2917 17.7084H30.1281C29.7781 15.7261 28.3021 14.0897 26.301 13.5751C25.75 13.4324 25.1771 13.7678 25.0323 14.324C24.8885 14.8813 25.225 15.449 25.7823 15.5917C27.1615 15.947 28.125 17.1917 28.125 18.6188V30.2084H16.6667C15.5177 30.2084 14.5833 29.274 14.5833 28.1251V23.9584H17.1875C17.7635 23.9584 18.2292 23.4917 18.2292 22.9167C18.2292 22.3417 17.7635 21.8751 17.1875 21.8751H14.5833C13.4344 21.8751 12.5 22.8095 12.5 23.9584V28.1251C12.5 30.0834 13.8583 31.7303 15.6823 32.174C15.6448 32.3834 15.625 32.597 15.625 32.8126C15.625 34.823 17.2604 36.4584 19.2708 36.4584C21.2812 36.4584 22.9167 34.823 22.9167 32.8126C22.9167 32.6365 22.9031 32.4636 22.8781 32.2917H27.1219C27.0969 32.4636 27.0833 32.6365 27.0833 32.8126C27.0833 34.823 28.7188 36.4584 30.7292 36.4584C32.7396 36.4584 34.375 34.823 34.375 32.8126C34.375 32.597 34.3552 32.3834 34.3177 32.174C36.1417 31.7303 37.5 30.0834 37.5 28.1251V22.9167C37.5 20.0449 35.1635 17.7084 32.2917 17.7084ZM35.4167 22.9167V23.9584H30.2083V19.7917H32.2917C34.0146 19.7917 35.4167 21.1938 35.4167 22.9167ZM20.8333 32.8126C20.8333 33.674 20.1323 34.3751 19.2708 34.3751C18.4094 34.3751 17.7083 33.674 17.7083 32.8126C17.7083 32.6157 17.7469 32.4417 17.8031 32.2917H20.7396C20.7958 32.4417 20.8344 32.6157 20.8344 32.8126H20.8333ZM30.7292 34.3751C29.8677 34.3751 29.1667 33.674 29.1667 32.8126C29.1667 32.6157 29.2052 32.4417 29.2615 32.2917H32.1979C32.2542 32.4417 32.2927 32.6157 32.2927 32.8126C32.2927 33.674 31.5906 34.3751 30.7292 34.3751ZM33.3333 30.2084H30.2083V26.0417H35.4167V28.1251C35.4167 29.274 34.4823 30.2084 33.3333 30.2084ZM12.5 14.5834C12.5 14.0084 12.9656 13.5417 13.5417 13.5417H22.0354C22.6115 13.5417 23.0771 14.0084 23.0771 14.5834C23.0771 15.1584 22.6115 15.6251 22.0354 15.6251H13.5417C12.9656 15.6251 12.5 15.1584 12.5 14.5834ZM12.5 18.7501C12.5 18.1751 12.9656 17.7084 13.5417 17.7084H19.9521C20.5281 17.7084 20.9937 18.1751 20.9937 18.7501C20.9937 19.3251 20.5281 19.7917 19.9521 19.7917H13.5417C12.9656 19.7917 12.5 19.3251 12.5 18.7501Z" fill="#DB1E1E"/>
</g>
<defs>
<clipPath id="clip0_33_1369">
<rect width="25" height="25" fill="white" transform="translate(12.5 12.5)"/>
</clipPath>
</defs>
</svg>
