<svg width="50" height="50" viewBox="0 0 50 50" fill="none" xmlns="http://www.w3.org/2000/svg">
<rect width="50" height="50" rx="10" fill="#DB1E1E" fill-opacity="0.1"/>
<g clip-path="url(#clip0_33_1375)">
<path d="M22.1582 16.8606C21.7644 16.4418 21.7832 15.7825 22.2019 15.3877L24.6821 13.0502C25.4207 12.3096 26.6603 12.3106 27.4217 13.0721L29.8801 15.3877C30.2988 15.7825 30.3186 16.4418 29.9238 16.8606C29.7186 17.0783 29.4426 17.1877 29.1655 17.1877C28.9092 17.1877 28.6519 17.0939 28.4509 16.9043L27.0821 15.6148V20.8335C27.0821 21.4085 26.6155 21.8752 26.0405 21.8752C25.4655 21.8752 24.9988 21.4085 24.9988 20.8335V15.6137L23.6301 16.9043C23.2123 17.2971 22.5519 17.2804 22.1571 16.8606H22.1582ZM14.2561 18.9877L15.6248 17.6971V20.8335C15.6248 21.4085 16.0915 21.8752 16.6665 21.8752C17.2415 21.8752 17.7082 21.4085 17.7082 20.8335V17.6981L19.0769 18.9877C19.278 19.1773 19.5342 19.271 19.7915 19.271C20.0686 19.271 20.3446 19.1616 20.5498 18.9439C20.9436 18.5252 20.9248 17.8658 20.5061 17.471L18.0478 15.1554C17.2853 14.3939 16.0478 14.3929 15.3082 15.1335L12.8269 17.471C12.4082 17.8658 12.3884 18.5252 12.7832 18.9439C13.178 19.3637 13.8384 19.3814 14.2561 18.9877ZM36.704 26.0575L29.6155 34.0137C27.6405 36.2304 24.8051 37.5012 21.8384 37.5012H16.6665C14.3686 37.5012 12.4998 35.6325 12.4998 33.3346V28.1262C12.4998 25.8283 14.3686 23.9596 16.6665 23.9596H25.8936C27.0801 23.9596 28.1207 24.5939 28.6946 25.5418L32.0446 21.8606C32.6092 21.2408 33.3801 20.8773 34.2176 20.8387C35.0592 20.795 35.8571 21.0887 36.4759 21.6533C37.7405 22.8064 37.8426 24.7814 36.704 26.0575ZM35.0728 23.1918C34.8655 23.0023 34.5946 22.9064 34.3144 22.9189C34.0332 22.9325 33.7748 23.0533 33.5853 23.2616L28.9748 28.3283C28.5738 29.4429 27.5801 30.2981 26.3551 30.4731L20.9801 31.2408C20.4123 31.3231 19.8832 30.9273 19.8019 30.3564C19.7207 29.7866 20.1165 29.2585 20.6853 29.1773L26.0613 28.4096C26.6446 28.3273 27.0832 27.821 27.0832 27.2325C27.0832 26.5762 26.5498 26.0418 25.8936 26.0418H16.6665C15.5176 26.0418 14.5832 26.9762 14.5832 28.1252V33.3335C14.5832 34.4825 15.5176 35.4168 16.6665 35.4168H21.8384C24.2123 35.4168 26.4801 34.3991 28.0603 32.6273L35.1488 24.671C35.5311 24.2418 35.4967 23.5783 35.0728 23.1908V23.1918Z" fill="#DB1E1E"/>
</g>
<defs>
<clipPath id="clip0_33_1375">
<rect width="25" height="25" fill="white" transform="translate(12.5 12.5)"/>
</clipPath>
</defs>
</svg>
