<svg width="45" height="45" viewBox="0 0 45 45" fill="none" xmlns="http://www.w3.org/2000/svg">
<g clip-path="url(#clip0_33_1264)">
<path d="M24.5496 33.2395C24.8106 33.0399 25.394 32.8403 25.7164 32.7022C25.7011 32.2109 25.5015 31.7503 25.6243 31.3357C25.8392 30.5988 26.3459 30.2764 26.8372 30.215C26.8679 30.2303 26.8986 30.2917 26.8679 30.3071C26.5915 30.5681 26.4841 30.9366 26.438 31.3357C26.4227 31.4893 26.392 31.9652 26.5301 32.303C26.8218 32.1494 27.5281 31.9038 27.7584 31.8577C27.7891 31.3664 27.8659 30.8905 28.004 30.5374C28.2804 29.8465 28.8945 29.2938 29.5086 29.6162C29.5393 29.6315 29.5701 29.693 29.5393 29.7083C29.1555 29.8465 28.9099 30.2457 28.6949 30.7063C28.6335 30.8444 28.4186 31.5814 28.6642 31.7349C28.6642 31.7349 28.6796 31.7349 28.6796 31.7503C29.1248 31.6582 29.2016 31.7042 29.6775 31.6581C29.7543 31.1822 29.9692 30.7677 30.1535 30.4606C30.4298 29.9232 31.1514 29.4934 31.7963 29.8772C31.827 29.8925 31.8577 29.9693 31.8116 29.9693C31.3664 30.0614 31.0747 30.3531 30.9211 30.6141C30.8444 30.737 30.4298 31.305 30.6448 31.5353C30.6601 31.5353 30.6908 31.5353 30.7215 31.5353C31.1054 31.52 31.3817 31.5967 31.7809 31.6735C31.9037 31.3818 32.0112 31.3511 32.134 31.1976C32.5793 30.6602 33.3316 30.476 33.5926 30.9826C33.6233 31.0133 33.6233 31.0747 33.5926 31.0747C33.3623 31.1054 32.9784 31.2283 32.7942 31.4586C32.7482 31.5046 32.6253 31.6428 32.5025 31.9038C33.0245 32.303 33.3162 32.6254 33.4544 33.1628C33.4851 33.2549 33.5312 33.8076 33.3469 33.5312C32.5025 32.4719 31.3664 32.2416 29.6622 32.4105C27.8352 32.5793 26.9907 32.8557 25.1637 33.8383C26.177 34.7441 24.6571 35.6346 24.4114 34.2989C23.5209 35.65 22.5844 33.9458 23.7819 33.7001C22.5537 32.5026 24.2272 31.9499 24.5496 33.2395Z" fill="white"/>
<path d="M27.6665 27.4053C28.3266 27.1903 29.0482 26.9601 29.4167 26.8833C29.4781 25.8086 30.4914 24.4728 31.689 24.9334C31.735 24.9488 31.7657 25.0102 31.7197 25.0256C31.4126 25.1177 30.43 26.0542 30.7678 26.653C31.0134 26.6683 31.689 26.653 31.8886 26.6683C32.1496 25.4862 33.1782 24.6571 34.3451 25.1944C34.3911 25.2098 34.4218 25.2866 34.3758 25.2866C33.9152 25.3633 32.8712 26.1003 32.994 26.7298C33.2089 26.7451 33.7924 26.9447 34.1608 27.1443C34.299 26.8526 34.4525 26.7451 34.5907 26.5916C35.0974 26.0542 36.1414 26.0082 36.4484 26.5302C36.4791 26.5609 36.4791 26.6223 36.4484 26.6223C36.0032 26.6069 35.604 26.6683 35.2202 27.0061C35.1588 27.0522 35.036 27.2364 34.8978 27.4974C35.2663 27.697 35.6808 28.0808 35.7576 28.4493C35.819 28.6335 35.8497 28.7871 35.819 28.9713C35.8036 29.0174 35.7115 28.9713 35.6808 28.9406C34.7135 27.8812 32.5795 27.2211 30.5068 27.4821C29.125 27.6509 27.7739 28.0348 26.6532 28.5261C27.037 28.1883 27.3747 27.8198 27.6665 27.4053ZM24.6265 29.8004C24.5344 29.8925 24.4423 29.9693 24.3655 30.0614C24.8568 30.7369 24.0738 31.2743 23.8435 30.5987C23.2601 31.2282 22.7995 30.4913 23.1833 30.1842C23.6746 30.1074 24.1659 29.9846 24.6265 29.8004Z" fill="white"/>
<path d="M24.2885 38.8588C24.4267 38.7052 24.7645 38.4135 24.9334 38.2753C24.4114 37.4616 24.7031 36.4176 25.2097 36.3408C25.2404 36.3562 25.2558 36.4023 25.2404 36.433C25.1022 36.6325 25.0408 37.7073 25.44 37.9376C25.6396 37.7994 26.0234 37.523 26.1923 37.477C25.9006 36.4944 26.4073 35.174 27.3899 35.3889C27.4206 35.4043 27.4359 35.4657 27.4206 35.4811C26.6222 35.8956 26.6068 37.1238 26.8218 37.262C27.1442 37.1699 27.4973 37.0317 27.8505 37.001C28.004 35.696 29.1555 35.1126 29.7389 35.4504C29.7696 35.4657 29.7849 35.5425 29.7696 35.5425C29.4472 35.3582 28.2343 36.6018 28.6335 36.9703C28.9098 36.955 29.2322 37.0778 29.5546 37.1546C29.6928 36.433 30.7061 35.8342 31.136 36.2948C31.1667 36.3255 31.1667 36.3869 31.1514 36.3869C30.7675 36.4637 30.2609 36.8168 30.1841 37.4923C30.9978 37.8761 30.9057 38.6745 30.7675 38.4596C29.9999 37.4463 28.3725 37.6151 27.1289 37.8761C26.4073 38.0297 25.394 38.7206 24.9641 39.2119C26.2691 39.826 25.0869 40.9775 24.5342 39.6725C23.6283 41.2692 22.7379 39.8106 23.7972 39.3808C22.5076 38.3828 23.8433 37.7073 24.2885 38.8588Z" fill="white"/>
<path d="M11.1465 37.6459C9.8568 36.1566 8.76673 34.5445 7.8916 32.9171H22.0165V37.6459H11.1465Z" fill="white"/>
<path d="M28.8179 14.5394H39.1966V18.608H28.8179V14.5394Z" fill="white"/>
<path d="M39.1966 8.36742L36.126 7.27735L32.5487 6.55575L28.5262 5.68063L24.7954 5.38892H21.9551V9.67244H39.1813L39.1966 8.36742Z" fill="white"/>
<path d="M7.23134 3.562C7.64587 3.42382 8.06041 3.301 8.4903 3.17817C8.64383 3.13211 8.79736 3.08605 8.96624 3.05535C9.13513 3.02464 9.30401 3.00929 9.4729 3.05535L9.53431 3.08605C9.59572 3.11676 9.62643 3.16282 9.65713 3.22423C9.70319 3.3317 9.71855 3.43918 9.7339 3.562C9.76461 3.80765 9.76461 4.0533 9.7339 4.29895C9.71855 4.49854 9.68784 4.69813 9.61107 4.86702C9.58037 4.94378 9.53431 5.00519 9.4729 5.06661C9.42684 5.11267 9.38078 5.15873 9.33472 5.18943C9.22725 5.2662 9.13513 5.32761 9.0123 5.37367C8.73595 5.49649 8.45959 5.58861 8.16788 5.68073C7.67658 5.84962 7.18528 6.0185 6.69398 6.18738V7.09322C6.44833 7.18534 6.20268 7.29281 5.95703 7.38493V3.97654C6.38692 3.83836 6.80145 3.70018 7.23134 3.562ZM6.69398 5.57326C7.18528 5.40438 7.67658 5.23549 8.18323 5.06661C8.33676 5.02055 8.4903 4.97449 8.62847 4.91308L8.73595 4.85166L8.78201 4.82096L8.82806 4.7749L8.87412 4.72884L8.90483 4.68278L8.95089 4.59066C8.96624 4.52925 8.9816 4.48319 8.9816 4.42178C8.99695 4.26824 8.99695 4.13007 8.95089 3.97654L8.92018 3.89977L8.88948 3.83836L8.84342 3.7923L8.78201 3.76159L8.72059 3.74624H8.65918H8.59777C8.44424 3.76159 8.30606 3.80765 8.15253 3.85371C7.66123 4.00724 7.16993 4.17613 6.67863 4.32966L6.69398 5.57326ZM12.9427 2.01134C13.2805 1.94992 13.6029 1.88851 13.9407 1.85781C14.0481 1.84245 14.1556 1.84245 14.2631 1.84245C14.3091 1.84245 14.3705 1.8578 14.4166 1.87316C14.4627 1.88851 14.4934 1.90386 14.5394 1.93457C14.5701 1.96528 14.6008 1.98063 14.6315 2.01134C14.6623 2.04204 14.6776 2.0881 14.693 2.11881C14.7237 2.18022 14.739 2.22628 14.739 2.28769C14.7697 2.48728 14.7851 2.70223 14.8004 2.91717C14.8158 3.16282 14.8158 3.39312 14.8004 3.62341C14.8004 3.71553 14.8004 3.823 14.7851 3.91512C14.7697 4.09936 14.7697 4.2836 14.7237 4.46784C14.7083 4.5139 14.693 4.55995 14.6776 4.59066C14.6469 4.65207 14.6162 4.71349 14.5701 4.7749L14.478 4.91308L14.3398 5.00519C14.2784 5.0359 14.2324 5.05125 14.171 5.08196C13.9253 5.15873 13.6797 5.20479 13.434 5.2662C12.9273 5.37367 12.4207 5.46579 11.914 5.57326C11.6684 5.61932 11.4227 5.66538 11.1771 5.69608C11.1157 5.71144 11.0389 5.71144 10.9775 5.71144L10.824 5.69608C10.7779 5.68073 10.7472 5.66538 10.7165 5.65003L10.6397 5.58861L10.5783 5.49649L10.4862 4.98984V3.62341C10.5016 3.46988 10.5169 3.301 10.5476 3.14747L10.5937 3.00929C10.6244 2.93252 10.6551 2.87111 10.7011 2.8097L10.8086 2.68687L10.9007 2.61011C10.9929 2.5487 11.1003 2.48728 11.2232 2.44122L11.7759 2.27234C12.129 2.16487 12.5282 2.0881 12.9427 2.01134ZM12.5589 2.70223L11.7605 2.88646C11.6991 2.90182 11.6377 2.93252 11.5763 2.94788L11.5149 2.99394L11.4534 3.04L11.4074 3.08605L11.3613 3.13211L11.3153 3.17817L11.2846 3.23959C11.2539 3.28565 11.2385 3.34706 11.2232 3.39312C11.1771 3.59271 11.1771 3.7923 11.1771 3.99189C11.1771 4.20683 11.1771 4.42178 11.2078 4.62137L11.2385 4.69813L11.2846 4.7749L11.346 4.83631L11.4074 4.88237L11.4842 4.91308L11.5609 4.92843H11.653C11.7145 4.92843 11.7605 4.92843 11.8066 4.91308C12.1136 4.86702 12.4207 4.8056 12.7278 4.74419C12.9734 4.69813 13.2344 4.63672 13.4801 4.57531C13.5261 4.55995 13.5875 4.5446 13.6336 4.52925L13.7104 4.48319L13.7871 4.43713L13.8485 4.37572L13.9099 4.3143L13.956 4.23754L13.9867 4.16077L14.0174 4.08401C14.0635 3.85371 14.0481 3.63877 14.0481 3.40847C14.0481 3.28565 14.0481 3.16282 14.0328 3.05535L14.0174 2.96323C14.0021 2.90182 13.9867 2.8404 13.956 2.77899L13.9253 2.71758L13.8946 2.67152L13.8485 2.62546L13.8178 2.61011L13.7564 2.5794L13.695 2.56405L13.5722 2.5487C13.434 2.5487 13.3112 2.56405 13.1884 2.5794C12.9734 2.62546 12.7585 2.67152 12.5589 2.70223ZM17.6254 1.44327C18.0092 1.41256 18.3931 1.38186 18.7769 1.38186C18.8537 1.38186 18.9458 1.38186 19.0225 1.38186C19.1147 1.38186 19.1914 1.39721 19.2682 1.44327C19.2989 1.45862 19.3296 1.47398 19.345 1.48933C19.4064 1.53539 19.4524 1.58145 19.4831 1.65821C19.5138 1.70427 19.5292 1.76569 19.5445 1.81175C19.5752 1.93457 19.5752 2.07275 19.5752 2.19557C19.5752 2.36446 19.5752 2.51799 19.5599 2.68687C19.5599 2.74829 19.5445 2.8097 19.5292 2.87111L19.4985 2.93252C19.4678 2.97858 19.4524 3.00929 19.4217 3.05535L19.345 3.11676C19.3142 3.13211 19.2835 3.16282 19.2375 3.17817C19.1914 3.19353 19.13 3.20888 19.0839 3.22423L18.6694 3.31635L19.0839 3.54665C19.1454 3.59271 19.1914 3.62341 19.2375 3.66947L19.2835 3.73089C19.345 3.823 19.391 3.91512 19.4371 4.02259C19.4985 4.20683 19.5292 4.39107 19.5292 4.57531C19.2835 4.59066 19.0379 4.59066 18.7922 4.60601C18.7769 4.46784 18.7615 4.34501 18.7155 4.20683L18.6541 4.0533L18.6234 3.97654L18.5773 3.91512L18.5312 3.85371L18.4698 3.80765L18.3931 3.76159C18.347 3.74624 18.3009 3.73089 18.2549 3.73089C18.1628 3.71553 18.0553 3.73089 17.9632 3.73089C17.4872 3.76159 17.0266 3.80765 16.5507 3.85371L16.3664 3.86906V4.7749C16.1208 4.8056 15.8751 4.83631 15.6295 4.85166V1.62751C16.305 1.55074 16.9652 1.48933 17.6254 1.44327ZM16.3818 3.31635C16.8731 3.27029 17.3644 3.22423 17.8557 3.19353C18.0246 3.17817 18.1935 3.16282 18.3624 3.14747C18.4084 3.14747 18.4545 3.13211 18.5005 3.11676L18.5619 3.10141L18.6234 3.0707L18.6694 3.04L18.7155 2.99394L18.7462 2.94788L18.7769 2.90182C18.7922 2.85576 18.8076 2.82505 18.8076 2.77899C18.8229 2.64081 18.8229 2.50264 18.8229 2.36446C18.8229 2.3184 18.8076 2.27234 18.7922 2.21093L18.7615 2.16487L18.7308 2.11881L18.6848 2.07275L18.6387 2.04204L18.5926 2.01134L18.5312 1.99598C18.4852 1.98063 18.4391 1.98063 18.3931 1.98063C18.1474 1.98063 17.9018 2.01134 17.6715 2.02669C17.2416 2.0574 16.827 2.10345 16.3972 2.13416L16.3818 3.31635ZM21.6019 4.06865C21.8782 4.06865 22.1546 4.06865 22.4463 4.06865C22.6305 4.06865 22.8301 4.06865 23.0297 4.0533C23.0758 4.0533 23.1065 4.03795 23.1525 4.03795C23.1986 4.02259 23.2293 4.00724 23.26 3.99189L23.3061 3.96118L23.3368 3.91512L23.3675 3.86906L23.3828 3.823L23.3982 3.71553V3.562L23.3675 3.39312L23.3521 3.34706L23.3368 3.301L23.3061 3.25494L23.26 3.22423L23.2139 3.19353L23.1065 3.16282L22.9222 3.13211H22.6919H21.1413C20.9877 3.13211 20.8342 3.13211 20.696 3.10141C20.65 3.08605 20.6193 3.08605 20.5886 3.0707L20.5425 3.04L20.4964 3.00929L20.4657 2.97858L20.435 2.93252L20.4043 2.88646C20.3736 2.82505 20.3429 2.76364 20.3275 2.70223C20.2968 2.53334 20.2968 2.3491 20.2968 2.18022C20.2968 1.96528 20.3122 1.75033 20.4043 1.55074C20.4197 1.52004 20.4504 1.48933 20.4657 1.45862C20.5732 1.36651 20.7114 1.32045 20.8496 1.28974C20.9877 1.25903 21.1413 1.25903 21.2794 1.25903C21.6172 1.25903 21.955 1.25903 22.2927 1.25903C22.8455 1.25903 23.4135 1.27439 23.9662 1.28974V1.78104C23.2293 1.76569 22.4923 1.75033 21.7554 1.75033C21.5865 1.75033 21.4176 1.75033 21.2487 1.76569C21.218 1.76569 21.172 1.78104 21.1413 1.78104L21.0799 1.81175L21.0338 1.85781L21.0031 1.91922L20.9877 1.98063L20.9724 2.0881C20.9724 2.18022 20.9724 2.25699 20.9724 2.3491L20.9877 2.41052L21.0031 2.47193L21.0491 2.53334L21.1259 2.5794L21.2027 2.59475C21.9703 2.61011 22.7533 2.62546 23.521 2.65617L23.6131 2.67152C23.7359 2.70223 23.8588 2.74829 23.9509 2.8404C23.9969 2.88646 24.0277 2.93252 24.043 2.97858C24.1198 3.14747 24.1351 3.34706 24.1351 3.5313C24.1351 3.74624 24.1351 3.96118 24.0737 4.16077C24.0584 4.19148 24.0584 4.22219 24.043 4.25289L23.9969 4.3143C23.9662 4.36036 23.9355 4.39107 23.8895 4.42178C23.8127 4.46784 23.7359 4.51389 23.6592 4.52925C23.5364 4.55995 23.3982 4.55995 23.2754 4.57531C22.8915 4.59066 22.523 4.59066 22.1392 4.59066C21.5404 4.59066 20.9417 4.60601 20.3583 4.60601C20.3583 4.43713 20.3583 4.25289 20.3583 4.08401C20.7574 4.06865 21.1566 4.06865 21.5558 4.06865H21.6019ZM26.6837 4.74419C26.3767 4.71349 26.0543 4.69813 25.7472 4.65207C25.609 4.63672 25.4708 4.60601 25.348 4.55995C25.2866 4.52925 25.2252 4.5139 25.1638 4.46784C25.1177 4.43713 25.087 4.40642 25.041 4.37572C25.0103 4.34501 24.9795 4.29895 24.9488 4.26824C24.9181 4.22219 24.9028 4.17613 24.8874 4.13007C24.8414 3.96118 24.826 3.77695 24.826 3.59271C24.8107 3.14747 24.8107 2.71758 24.826 2.27234V2.16487C24.8414 1.96528 24.8567 1.76569 24.9795 1.5968C25.0256 1.55074 25.0563 1.50468 25.1177 1.47398C25.2713 1.39721 25.4555 1.36651 25.6244 1.35115C25.8086 1.3358 25.9775 1.3358 26.1617 1.35115C26.5149 1.36651 26.8833 1.38186 27.2365 1.41256C27.7585 1.45862 28.2651 1.50468 28.7871 1.5661V2.14951C28.0962 2.0881 27.4207 2.02669 26.7298 1.98063C26.5149 1.96528 26.2846 1.94992 26.0543 1.96528L25.9468 1.98063L25.87 1.99598L25.8086 2.02669L25.7472 2.07275L25.6858 2.13416L25.6397 2.19557L25.609 2.27234C25.5937 2.3184 25.5783 2.36446 25.5783 2.41052C25.5476 2.62546 25.5323 2.85576 25.5476 3.08605C25.5476 3.27029 25.5476 3.45453 25.5783 3.63877C25.5937 3.68483 25.5937 3.73089 25.609 3.77695L25.6397 3.85371L25.6858 3.91512L25.7472 3.97654L25.8086 4.02259L25.87 4.0533L25.9468 4.08401C26.0082 4.09936 26.0696 4.11471 26.131 4.11471C26.3306 4.14542 26.5456 4.16077 26.7452 4.17613C27.436 4.23754 28.1423 4.29895 28.8332 4.37572C28.8332 4.55995 28.8332 4.72884 28.8332 4.91308V4.97449C28.4033 4.92843 27.9581 4.88237 27.5282 4.85166C27.2672 4.79025 26.9755 4.7749 26.6837 4.74419ZM31.3818 3.28565C31.9499 3.39312 32.5179 3.50059 33.086 3.60806V2.30305C33.347 2.36446 33.608 2.42587 33.8844 2.47193V5.83426C33.6234 5.77285 33.3623 5.71144 33.086 5.65003V4.32966C32.6254 4.23754 32.1802 4.14542 31.7196 4.0533C31.305 3.97654 30.8751 3.89977 30.4606 3.823V5.12802C30.1996 5.08196 29.9386 5.05125 29.6622 5.00519V1.73498C29.9233 1.76569 30.1996 1.79639 30.4606 1.84245V3.13211C30.7677 3.17817 31.0747 3.22423 31.3818 3.28565ZM37.4156 3.50059C37.6919 3.59271 37.9683 3.68483 38.26 3.77695V4.32966C37.4463 4.0533 36.6172 3.7923 35.7881 3.5313L35.5118 3.45453V4.29895C36.1106 4.48319 36.7247 4.66743 37.3235 4.86702C37.5845 4.95914 37.8608 5.0359 38.1218 5.12802V5.61932C37.3542 5.35832 36.5712 5.11267 35.7881 4.88237L35.5118 4.8056V5.69608C36.0952 5.86497 36.6786 6.04921 37.2467 6.23344C37.5845 6.34092 37.9222 6.46374 38.2753 6.57121V7.13928C37.1699 6.7708 36.0491 6.43303 34.913 6.11062L34.7902 6.07991V2.70223C35.6653 2.94788 36.5404 3.22423 37.4156 3.50059Z" fill="white"/>
<path d="M5.91072 28.2037C5.41942 26.5609 5.15842 25.0256 5.14307 23.7052H15.4297C15.4604 25.4401 16.182 27.0368 17.3181 28.2037H5.91072Z" fill="white"/>
<path d="M4.68262 3.40842L4.88221 3.33165C10.6243 1.21292 16.351 0.107499 22.0931 2.67797e-05C27.8351 -0.092092 33.5618 0.813742 39.3039 2.74824L39.5188 2.825V3.03994C39.4728 9.9335 39.4267 16.827 39.3807 23.7206C39.3653 27.2825 37.4922 32.2876 33.961 36.6633C31.1207 40.1945 27.1903 43.3265 22.2773 44.9847H22.1084C17.1494 43.7104 13.2343 40.7012 10.3786 37.1853C6.72458 32.6561 4.8515 27.2518 4.83615 23.5824C4.80544 20.2508 4.79009 16.9192 4.75938 13.6029L4.68262 3.40842ZM11.3766 37.4616H21.8167V33.2702H8.42878C8.38272 33.1935 8.33666 33.1167 8.30595 33.0399C9.02755 34.3296 9.87197 35.6039 10.8392 36.8168C11.0235 37.0318 11.1923 37.2467 11.3766 37.4616ZM21.8321 37.9837H11.8525C14.4318 40.8086 17.7635 43.1576 21.8321 44.2938V37.9837ZM11.6376 37.7534C11.6222 37.738 11.6222 37.738 11.6222 37.7226C11.6222 37.738 11.6376 37.7534 11.6376 37.7534ZM8.13707 32.7329H21.8321V30.261C21.9395 30.261 22.047 30.261 22.1545 30.261C22.2312 30.261 22.2926 30.261 22.3694 30.261V44.3091C22.3541 44.3091 22.3387 44.3245 22.3387 44.3245C27.0061 42.6971 30.7522 39.6878 33.4851 36.2948C36.8781 32.0881 38.6898 27.2979 38.7665 23.8588C38.7665 23.8741 38.7665 23.8741 38.7665 23.8895H28.8945C28.8945 23.782 28.9098 23.6745 28.9098 23.5671V23.3521H38.7819C38.7973 21.8782 38.7973 20.4043 38.8126 18.9458H28.9098V18.4238H38.8126C38.828 17.2262 38.828 16.044 38.8433 14.8618H28.9098V14.3398H28.8331V14.3245H38.8433C38.8587 12.8813 38.8587 11.4535 38.874 10.0103H22.2159V14.3398H21.6785V5.63462C16.2128 5.72674 10.7317 6.81681 5.23533 8.9509L5.21998 8.39818C10.8699 6.21804 16.5199 5.14332 22.1545 5.09726C27.743 5.0512 33.3162 6.01845 38.874 7.93759C38.874 8.12183 38.874 8.30607 38.874 8.4903C38.8894 6.74005 38.9047 4.98979 38.9047 3.25489C33.3008 1.39716 27.6969 0.522033 22.1084 0.614152C16.4278 0.70627 10.7625 1.79634 5.09715 3.89972L5.37351 13.6029C5.40421 16.8578 5.41957 20.1126 5.45027 23.3828C5.45027 23.3828 5.45027 23.3828 5.45027 23.3675H15.4452V23.5824C15.4452 23.6899 15.4452 23.7974 15.4605 23.9048H5.43492C5.46563 25.1331 5.72663 26.5609 6.17187 28.0655C6.17187 28.0502 6.15652 28.0348 6.15652 28.0195H17.1186C17.2108 28.1269 17.3029 28.2344 17.4104 28.3265L17.7481 28.5568H6.3254C6.77064 29.9079 7.36941 31.3204 8.13707 32.7329ZM6.29469 28.4494C6.27934 28.4187 6.27934 28.388 6.26399 28.3726C6.27934 28.4033 6.29469 28.4187 6.29469 28.4494ZM6.23328 28.2498C6.21793 28.2191 6.21793 28.1884 6.20258 28.1577C6.21793 28.1884 6.23328 28.2191 6.23328 28.2498ZM38.7512 23.5824V23.5978C38.7512 23.5978 38.7512 23.5978 38.7512 23.5824ZM38.7512 23.6745V23.6899C38.7512 23.6899 38.7512 23.6899 38.7512 23.6745ZM38.7512 23.6745C38.7512 23.6592 38.7512 23.6592 38.7512 23.6592V23.6745ZM38.7512 23.6285C38.7512 23.6131 38.7512 23.6131 38.7512 23.6131V23.6285ZM38.7512 23.3982C38.7512 23.3828 38.7512 23.3828 38.7512 23.3828V23.3982ZM22.2159 9.48826H38.8587C38.8587 9.58037 38.8587 9.65714 38.8587 9.74926C38.8587 9.33473 38.8587 8.92019 38.8587 8.50566C33.3162 6.57116 27.7737 5.60392 22.2159 5.63462V9.48826ZM22.1852 44.3705C22.1698 44.3705 22.1698 44.3705 22.1545 44.3859C22.1698 44.3859 22.1698 44.3859 22.1852 44.3705ZM21.9702 44.3398C21.9242 44.3245 21.8935 44.3245 21.8474 44.3091C21.8935 44.3091 21.9395 44.3245 21.9702 44.3398Z" fill="white"/>
<path d="M7.61518 11.8987C7.90689 11.7144 8.21395 11.5302 8.52102 11.3767C8.47496 10.9007 8.4289 10.1638 8.55172 9.76459C8.78202 9.02764 9.45756 8.42886 10.2559 8.56704C10.302 8.5824 10.3327 8.62845 10.302 8.64381C9.85674 8.8741 9.50362 9.22723 9.30402 9.71853C9.24261 9.8567 9.02767 10.8393 9.35008 10.9161C9.38079 10.9314 9.4115 10.9314 9.45756 10.9314C10.041 10.6858 10.6397 10.4708 11.2539 10.2866C11.2539 9.81064 11.2692 9.15046 11.4381 8.79734C11.7452 8.10645 12.5128 7.5998 13.3419 7.84545C13.388 7.8608 13.4187 7.92221 13.388 7.93756C12.8967 8.10645 12.4975 8.39816 12.2365 8.85875C12.1597 8.99693 11.8373 9.93347 12.1751 10.0563H12.1904C12.7585 9.93347 13.3419 9.826 13.9714 9.74923C14.0481 9.27329 14.171 8.65916 14.3859 8.33675C14.8465 7.66121 15.7677 7.20061 16.6275 7.52303C16.6735 7.53838 16.7042 7.5998 16.6582 7.61515C16.0901 7.75333 15.5988 8.01433 15.2457 8.45957C15.1536 8.58239 14.6776 9.44217 14.954 9.64176C14.9847 9.64176 15.0154 9.64176 15.0461 9.62641C15.5374 9.58035 16.1055 9.56499 16.6428 9.5957C16.781 9.30399 16.9192 9.04299 17.0727 8.8741C17.6101 8.32139 18.7923 8.1218 19.1454 8.59775C19.1761 8.62845 19.1914 8.68987 19.1454 8.68987C18.6387 8.70522 18.1167 8.78199 17.7329 9.13511C17.6715 9.19652 17.4565 9.41146 17.3337 9.65711C18.1474 9.79529 18.8383 10.0716 19.0533 10.5937C19.13 10.7625 19.1761 10.9161 19.1454 11.1003C19.1454 11.1464 19.0379 11.1157 19.0072 11.0696C17.9785 10.1177 16.3358 10.0102 14.1403 10.3941C11.9141 10.7779 10.0563 11.4381 8.06042 12.39C8.85878 13.2958 7.59983 13.9867 7.18529 13.0348C6.21805 14.1863 5.32757 12.5128 6.64793 12.3132C5.89563 11.1464 7.41559 11.1003 7.61518 11.8987Z" fill="white"/>
<path d="M7.8914 21.0799C8.1524 20.8803 8.49017 20.7114 8.76652 20.5426C8.49017 20.0973 8.32128 19.4525 8.42875 19.038C8.61299 18.301 9.07359 17.9479 9.64165 17.9786C9.68771 17.9786 9.71842 18.04 9.68771 18.0554C9.28853 18.3164 9.22712 18.6541 9.10429 19.1608C9.04288 19.4371 9.19641 19.8977 9.396 20.0666C9.90265 19.7903 9.8873 19.8363 10.4247 19.6367C10.2711 19.1608 10.3018 18.5159 10.5014 18.1168C10.8085 17.4719 11.3151 17.2263 11.8218 17.3338C11.8679 17.3491 11.8986 17.3952 11.8525 17.4105C11.4533 17.5794 10.6396 18.2242 11.177 19.4371C11.6683 19.2683 11.699 19.2375 12.3284 19.0994C12.3745 18.6234 12.3899 18.0554 12.5741 17.7176C12.9579 17.0267 13.8638 16.7043 14.2783 16.8732C14.3244 16.8885 14.3551 16.9499 14.309 16.9653C14.0787 17.1188 13.7716 17.2416 13.4646 17.7022C13.2957 17.9479 13.004 18.5159 13.0807 18.8998C13.526 18.8384 14.1094 18.8077 14.6161 18.823C14.7235 18.5313 14.9385 18.1782 15.0767 18.0093C15.1688 17.9018 15.2916 17.8097 15.4144 17.7636V19.4832C14.57 19.4371 13.6335 19.5293 12.743 19.7442C10.7317 20.2201 10.2097 20.5886 8.4134 21.5559C9.48812 22.2314 8.44411 23.2601 7.78392 22.2468C6.61709 23.5825 5.86478 21.8629 7.07768 21.6019C6.15649 20.4811 7.6611 19.8824 7.8914 21.0799Z" fill="white"/>
<path d="M7.3693 16.5046C7.67636 16.3204 8.09089 16.1822 8.39795 16.0287C8.36725 15.5527 8.30584 15.1228 8.44401 14.7237C8.68966 14.0021 9.07349 13.6336 9.68762 13.695C9.73368 13.7104 9.76438 13.7564 9.73368 13.7871C9.28844 14.0174 9.39591 14.3245 9.19632 14.8004C9.1349 14.9386 8.98137 15.522 9.30379 15.6141C9.33449 15.6295 9.3652 15.6295 9.41126 15.6295C9.99468 15.3992 9.77974 15.4146 10.3785 15.261C10.3939 14.8004 10.4246 14.1709 10.5781 13.8332C10.9005 13.173 11.4993 12.8506 12.052 12.9888C12.0981 13.0041 12.1902 13.1116 12.1441 13.1269C11.6989 13.2651 10.9312 14.1709 11.2536 14.8772C11.6375 14.8158 11.8985 14.693 12.5894 14.6008C12.6815 14.1249 12.835 13.6489 13.0653 13.3265C13.5412 12.6663 14.2782 12.5282 14.7081 12.7278C14.7541 12.7431 14.8156 12.8659 14.7695 12.8813C14.2014 13.0041 14.1861 12.9427 13.8176 13.3879C13.618 13.6182 13.2188 14.2477 13.5105 14.5394C14.0018 14.5087 14.3396 14.4473 14.877 14.4934C15.0152 14.217 15.1226 13.8332 15.2762 13.6796C15.8135 13.1269 16.7501 13.0809 17.0571 13.4494C17.0878 13.4801 17.1032 13.5415 17.0571 13.5415C16.5505 13.5568 16.3662 13.695 15.967 14.0481C15.921 14.0788 15.8289 14.2017 15.7214 14.3552H15.4297V15.3071C14.6006 15.2303 13.6948 15.261 12.8504 15.3838C10.6242 15.7216 9.81044 16.2283 7.96807 17.1187C8.75108 18.0399 7.47677 18.6848 7.09294 17.7175C6.11034 18.8536 5.23521 17.1495 6.58629 16.9806C5.83398 15.7677 7.15435 15.4453 7.3693 16.5046Z" fill="white"/>
<path d="M28.5722 14.6623V23.5824C28.5722 27.0983 25.7011 29.954 22.1546 29.954C18.6234 29.954 15.737 27.0983 15.737 23.5824V14.6623H28.5722ZM28.8792 14.3398H15.4146V23.5671C15.4146 27.2365 18.4391 30.261 22.1392 30.261C25.8547 30.261 28.8639 27.2365 28.8639 23.5671L28.8792 14.3398Z" fill="white"/>
<path d="M21.8625 20.8803C21.9239 20.9417 22.0621 20.8649 22.1082 20.8035C22.2156 20.6346 22.2003 20.4197 22.2156 20.2047C22.231 19.9744 22.231 19.7748 22.1542 19.5599C22.0314 19.1914 21.8625 18.8997 21.448 18.8383C21.4019 18.8229 21.3098 18.9151 21.3405 18.9458C21.6169 19.2375 21.7243 19.2221 21.8011 19.6674C21.8779 20.0973 21.8318 20.8496 21.8625 20.8803ZM18.9608 26.2385C19.0222 26.2539 19.1604 26.0696 19.2064 25.9622C19.2525 25.87 19.2371 25.6858 19.2371 25.6704C19.2218 25.6397 19.0683 25.7011 18.9915 25.7011C18.9147 25.7011 18.8533 25.6858 18.7458 25.6704C18.6384 25.6551 18.6537 25.4094 18.6384 25.2713C18.6077 24.9181 18.5923 24.565 18.6077 24.2119C18.6077 24.1198 18.6384 23.9969 18.7151 23.9355C18.8226 23.8741 18.9761 23.8895 19.099 23.9048C19.3446 23.9509 19.5749 24.0737 19.8359 24.1198C19.9741 24.1505 20.1276 24.1351 20.2658 24.0891C20.3886 24.0584 20.4807 23.9662 20.5882 23.9202C20.6496 23.9048 20.7264 23.8895 20.7725 23.9202C20.972 24.0277 21.1102 24.2272 21.3098 24.304C21.5708 24.3808 21.8472 24.3501 22.1235 24.3654C22.3385 24.3654 22.5534 24.3347 22.7684 24.3654C22.8605 24.3808 23.014 24.3961 23.0447 24.5036C23.0754 24.6418 22.8451 24.7646 22.8758 24.9028C22.9372 25.1177 23.1829 25.2252 23.2904 25.4094C23.3364 25.4862 23.3211 25.5783 23.2904 25.6551C23.2597 25.7165 23.1522 25.7319 23.1061 25.7933C23.0447 25.8854 23.0294 25.9929 22.9679 26.085C22.9065 26.1771 22.8144 26.2539 22.7223 26.3306C22.5227 26.4842 22.3231 26.6377 22.0928 26.7605C22.0161 26.8066 21.8779 26.7145 21.8472 26.7912C21.7858 26.9294 21.7243 27.0983 21.6629 27.1904C21.6015 27.2825 21.5248 27.2979 21.4787 27.3439C21.4326 27.4053 21.3712 27.5128 21.4019 27.5282C21.4326 27.5435 21.7243 27.5435 21.8318 27.5282C21.9393 27.5128 22.0007 27.4975 22.0314 27.4821C22.0621 27.4514 22.0161 27.3593 21.9853 27.175C21.97 26.9908 22.4766 26.914 22.7223 26.7759C22.9833 26.607 23.2443 26.4227 23.5053 26.2692C23.6128 26.2078 23.7663 26.1924 23.8584 26.1003C23.9045 26.0543 23.8891 25.9775 23.8891 25.9161C23.8891 25.7626 23.8584 25.609 23.8584 25.4555C23.8584 25.3787 23.8584 25.2866 23.9198 25.2406C23.9659 25.1945 24.058 25.1791 24.1041 25.2098C24.1962 25.2559 24.2115 25.3941 24.2883 25.4555C24.4111 25.5476 24.5647 25.5783 24.7028 25.6397C24.8257 25.7011 25.0406 25.7011 25.056 25.824C25.0867 26.0543 24.9331 26.2692 24.841 26.4688C24.795 26.5763 24.6875 26.6377 24.6261 26.7452C24.5954 26.8066 24.5954 26.8833 24.5493 26.9294C24.4265 27.0522 24.2576 27.129 24.1348 27.2518C24.0427 27.3439 23.9659 27.436 23.9198 27.5435C23.8891 27.6049 23.8738 27.6663 23.8431 27.7278C23.797 27.7892 23.7202 27.8045 23.6742 27.8966C23.6281 27.9888 23.5207 28.2344 23.6128 28.2191C23.7049 28.2037 24.2423 28.1116 24.2576 28.0502C24.273 28.0041 24.2269 27.8659 24.1962 27.6971C24.1655 27.5282 24.5493 27.4053 24.7336 27.2979C24.841 27.2365 24.9946 27.2672 25.0867 27.1904C25.1481 27.1443 25.1174 27.0369 25.1327 26.9755C25.1788 26.868 25.2095 26.7452 25.3016 26.653C25.4091 26.5302 25.5933 26.4842 25.6854 26.3613C25.7776 26.2078 25.885 26.0236 25.8543 25.8547C25.8236 25.7165 25.6547 25.6704 25.5626 25.563C25.4859 25.4862 25.4091 25.3941 25.3784 25.2866C25.3323 25.1331 25.3016 24.9795 25.3477 24.826C25.4091 24.6418 25.5933 24.519 25.7008 24.3654C25.7929 24.2272 25.9311 24.1198 25.9772 23.9662C26.0232 23.782 25.9311 23.5824 25.9157 23.3982C25.9157 23.3675 25.885 23.3214 25.9157 23.2907C26.0386 23.1832 26.1767 23.0451 26.3456 23.0143C26.4992 22.999 26.622 23.1525 26.7755 23.1832C26.9291 23.1986 27.1133 23.2139 27.2668 23.1525C27.3129 23.1372 27.3282 23.0297 27.2975 22.9836C27.1901 22.8915 26.9598 22.9222 26.9137 22.7994C26.883 22.6919 27.0979 22.6612 27.1593 22.5538C27.2361 22.4156 27.2975 22.262 27.2975 22.0932C27.2975 22.0317 27.1747 22.0318 27.1286 22.0625C27.0519 22.1085 27.0519 22.216 26.9905 22.2774C26.9444 22.3235 26.8676 22.3388 26.8062 22.3388C26.7448 22.3388 26.6527 22.3081 26.622 22.262C26.5759 22.216 26.5452 22.1085 26.5913 22.0778C26.7141 22.001 26.883 22.0318 27.0212 22.001C27.0826 21.9857 27.1594 21.9703 27.1901 21.9243C27.2361 21.8322 27.2361 21.7247 27.1901 21.6326C27.1747 21.5865 27.0979 21.5865 27.0519 21.6019C26.9905 21.6172 26.9598 21.7093 26.883 21.7093C26.7909 21.7093 26.6988 21.6633 26.6373 21.6019C26.5913 21.5405 26.5759 21.4483 26.6066 21.3869C26.6527 21.2794 26.8062 21.2487 26.8523 21.1413C26.9137 21.0031 26.9598 20.8342 26.9291 20.6807C26.9137 20.6193 26.7909 20.5886 26.7448 20.6346C26.668 20.6807 26.6834 20.7881 26.6373 20.8496C26.5759 20.9417 26.5452 21.0799 26.4531 21.1259C26.3917 21.1566 26.2842 21.0952 26.2689 21.0184C26.2382 20.8956 26.3149 20.7728 26.3456 20.6653C26.3917 20.5425 26.4531 20.4197 26.5299 20.3122C26.6066 20.2047 26.7602 20.1587 26.8216 20.0358C26.8676 19.9437 26.9137 19.8209 26.8523 19.7441C26.8062 19.6827 26.6988 19.7288 26.6373 19.7748C26.5913 19.8055 26.6066 19.913 26.5606 19.9437C26.4224 20.0051 26.2535 19.9591 26.1307 20.0205C26.0232 20.0819 25.9772 20.1894 25.9157 20.2968C25.8083 20.4811 25.7929 20.8035 25.7469 20.8342C25.7008 20.8803 25.5933 20.8649 25.5626 20.8035C25.5166 20.7267 25.5933 20.6039 25.5319 20.5271C25.4859 20.4811 25.363 20.4811 25.317 20.5271C25.2556 20.5886 25.2402 20.6807 25.2402 20.7728C25.2402 20.911 25.2556 21.0491 25.317 21.172C25.4244 21.3716 25.5933 21.5251 25.7315 21.7093C25.8697 21.8936 26.0386 22.0625 26.1153 22.2774C26.1614 22.4156 26.1767 22.5845 26.1153 22.7073C26.0693 22.8301 25.9465 22.9529 25.8236 22.9529C25.6547 22.9376 25.5319 22.7533 25.3937 22.6612C25.2556 22.5691 25.1174 22.4463 24.9639 22.4156C24.6107 22.3542 24.2423 22.4156 23.8738 22.4156C23.5514 22.4156 23.2136 22.4616 22.8912 22.4156C22.7377 22.4002 22.5688 22.3388 22.4613 22.2313C22.3538 22.1239 22.2771 21.9703 22.2771 21.8322C22.2617 21.6326 22.3385 21.4483 22.4152 21.2641C22.4766 21.1413 22.5688 21.0184 22.6916 20.9417C22.7837 20.8803 22.9372 20.8496 23.0294 20.8803C23.1368 20.9263 23.4285 21.3255 23.49 21.3102C23.5514 21.2948 23.5053 20.9417 23.4746 20.8342C23.4132 20.6653 23.2289 20.5732 23.1829 20.4043C23.1675 20.3583 23.2443 20.2968 23.2904 20.2968C23.3825 20.2968 23.49 20.3583 23.5667 20.435C23.6128 20.4657 23.8124 20.7574 23.8584 20.7421C23.9045 20.7267 23.8277 20.3276 23.7817 20.2047C23.7049 20.0358 23.4592 19.913 23.4439 19.867C23.4285 19.8363 23.4439 19.8055 23.49 19.7902C23.5821 19.7902 23.6742 19.8363 23.7663 19.867C23.8431 19.8977 23.9659 19.9898 24.012 19.9744C24.058 19.9591 24.012 19.8209 23.9659 19.7595C23.797 19.5599 23.5667 19.4371 23.3978 19.2528C23.3057 19.1607 23.2136 19.0379 23.2136 18.8997C23.2136 18.8229 23.3057 18.7462 23.3825 18.7155C23.5207 18.6541 23.7049 18.6234 23.8277 18.5466C23.8738 18.5159 23.8431 18.4852 23.797 18.4698C23.5974 18.3931 23.3825 18.3624 23.1675 18.3624C23.0447 18.3624 22.9372 18.4391 22.8144 18.4698C22.7377 18.5005 22.6609 18.5466 22.5688 18.5466C22.4152 18.5466 22.2463 18.5619 22.1389 18.4698C22.0775 18.4084 22.1542 18.2856 22.2003 18.1935C22.2464 18.1167 22.3231 18.0706 22.3845 18.0092C22.4306 17.9632 22.5688 17.9171 22.5227 17.9018C22.4766 17.8864 22.231 17.8864 22.0928 17.9325C21.97 17.9632 21.8625 18.0092 21.7704 18.1014C21.6936 18.1781 21.709 18.347 21.6015 18.3931C21.4173 18.5005 21.3252 18.4698 21.1256 18.5619C21.0795 18.5927 20.972 18.7155 20.926 18.7308C20.6803 18.7615 20.189 18.6387 20.1737 18.6848C20.143 18.7308 20.5575 18.9611 20.6343 19.1761C20.665 19.2682 20.4347 19.13 20.3426 19.1454C20.189 19.1607 20.0355 19.1914 19.9127 19.2528C19.7898 19.3142 19.6824 19.4217 19.5903 19.5292C19.4981 19.6213 19.4521 19.7441 19.3446 19.8209C19.2986 19.8516 19.1911 19.8055 19.1604 19.8516C19.1143 19.913 19.099 20.0512 19.1757 20.0512L19.6056 20.0819C19.6824 20.0819 19.5288 20.2508 19.5749 20.3276C19.6056 20.3736 19.7131 20.3583 19.7591 20.3276C19.8206 20.2968 19.8513 20.2047 19.928 20.1587C20.0048 20.1126 20.0816 20.0512 20.1737 20.0512C20.2811 20.0512 20.4193 20.0973 20.4654 20.1894C20.5114 20.2815 20.404 20.389 20.3886 20.4811C20.3733 20.5886 20.4347 20.7267 20.3579 20.8035C20.1276 21.0184 20.0509 20.8342 19.7131 21.2641C19.4367 21.6019 19.5596 21.4176 19.4674 21.8629C19.4521 21.955 19.4367 22.0471 19.36 22.1085C19.2832 22.1546 19.1604 22.1853 19.0836 22.1392C18.9301 22.0625 18.838 21.9089 18.7305 21.7554C18.6691 21.6786 18.6998 21.5404 18.623 21.479C18.5155 21.4176 18.362 21.4176 18.2392 21.4483C18.1471 21.479 18.101 21.5865 18.0549 21.6633C17.9321 21.8322 17.84 22.0318 17.7325 22.2006C17.6404 22.3388 17.5176 22.4616 17.4408 22.5998C17.3948 22.6766 17.4255 22.7687 17.3794 22.8455C17.2873 23.0604 17.2105 23.26 17.1031 23.4596C17.057 23.5364 16.9649 23.5824 16.9342 23.6745C16.9188 23.7667 16.9495 23.9662 16.9956 23.9662C17.0416 23.9662 17.1952 23.8588 17.2873 23.7974C17.3948 23.7513 17.5944 23.6899 17.6097 23.6592C17.6251 23.6285 17.5022 23.521 17.4408 23.4442C17.3334 23.3061 17.5636 23.1065 17.6558 22.9529C17.6865 22.8915 17.7632 22.8762 17.7939 22.8148C17.8554 22.6919 17.8707 22.5384 17.9321 22.4156C18.0089 22.2467 18.101 22.0778 18.2238 21.955C18.2852 21.8936 18.3927 21.8475 18.4695 21.9089C18.5923 21.9857 18.6077 22.1546 18.6844 22.2928C18.7458 22.3849 18.8226 22.477 18.8533 22.5845C18.884 22.6766 18.7919 22.7994 18.8533 22.8762C18.9301 22.9683 19.0836 22.999 19.2064 23.0143L19.4828 23.0451L19.5135 23.4289C19.5288 23.5671 19.2218 23.4596 19.0836 23.4903C18.9608 23.521 18.838 23.5671 18.6998 23.5978C18.577 23.6285 18.3467 23.521 18.316 23.6592C18.2085 24.1965 18.3467 24.7339 18.3774 25.2713C18.3774 25.4094 18.3006 25.6397 18.4388 25.7011L18.6998 25.8086C18.7458 25.9161 18.7765 26.0543 18.838 26.131C18.8226 26.2078 18.8994 26.2232 18.9608 26.2385Z" fill="white"/>
<path d="M27.4207 15.998C27.4207 15.8906 27.3439 15.8445 27.2058 15.8445H26.6838C26.5456 15.8445 26.4688 15.8906 26.4688 15.998C26.4688 16.1055 26.5456 16.1516 26.6838 16.1516H26.7912V17.1188C26.7912 17.2877 26.8373 17.3645 26.9448 17.3645C27.0522 17.3645 27.0983 17.2877 27.0983 17.1188V16.1516H27.2058C27.3593 16.1516 27.4207 16.1055 27.4207 15.998ZM25.9314 16.3358C25.9314 16.4586 25.87 16.52 25.7472 16.52H25.609V16.1516H25.7472C25.87 16.1516 25.9314 16.213 25.9314 16.3358ZM26.2692 17.2109C26.2692 17.1495 26.2385 17.0881 26.1771 17.0113L25.9314 16.7043C26.131 16.6582 26.2539 16.5047 26.2539 16.2897C26.2539 16.0134 26.0696 15.8138 25.7472 15.8138H25.5169C25.348 15.8138 25.302 15.8906 25.302 16.0594V17.1034C25.302 17.2723 25.348 17.3491 25.4555 17.3491C25.563 17.3491 25.609 17.2723 25.609 17.1034V16.735L25.9622 17.2416C26.0236 17.3184 26.0696 17.3645 26.131 17.3645C26.2078 17.3645 26.2692 17.303 26.2692 17.2109ZM24.6418 16.735H24.3194L24.4883 16.1823L24.6418 16.735ZM25.0717 17.1956C25.0717 17.1649 25.0717 17.1342 25.0563 17.0881L24.7186 16.0134C24.6725 15.8906 24.5957 15.8138 24.4883 15.8138C24.3808 15.8138 24.304 15.8906 24.258 16.0287L23.9048 17.0881C23.8895 17.1188 23.8895 17.1495 23.8895 17.1802C23.8895 17.2723 23.9509 17.3491 24.0277 17.3491C24.0891 17.3491 24.1505 17.303 24.1812 17.1956L24.2273 17.042H24.7186L24.7493 17.1802C24.78 17.2877 24.826 17.3491 24.9028 17.3491C25.0103 17.3645 25.0717 17.303 25.0717 17.1956ZM23.6745 16.6582C23.6745 16.4893 23.6131 16.4279 23.4903 16.4279H23.2907C23.1679 16.4279 23.1065 16.474 23.1065 16.5814C23.1065 16.6889 23.1679 16.735 23.2907 16.735H23.3828C23.3828 16.9192 23.2907 17.042 23.1372 17.042C22.9683 17.042 22.8455 16.8578 22.8455 16.5661C22.8455 16.2744 22.9683 16.1055 23.1372 16.1055C23.3061 16.1055 23.3828 16.2437 23.4596 16.2437C23.521 16.2437 23.5824 16.1669 23.5824 16.0901C23.5824 15.9366 23.4135 15.7831 23.1525 15.7831C22.7841 15.7831 22.5538 16.0901 22.5538 16.5814C22.5538 17.0574 22.7841 17.3798 23.1218 17.3798C23.4596 17.3798 23.6745 17.0727 23.6745 16.6582ZM22.477 15.998C22.477 15.8906 22.4002 15.8445 22.2621 15.8445H21.74C21.6019 15.8445 21.5251 15.8906 21.5251 15.998C21.5251 16.1055 21.6019 16.1516 21.74 16.1516H21.8475V17.1188C21.8475 17.2877 21.8936 17.3645 22.0011 17.3645C22.1085 17.3645 22.1546 17.2877 22.1546 17.1188V16.1516H22.2621C22.4002 16.1516 22.477 16.1055 22.477 15.998ZM21.4637 15.998C21.4637 15.8906 21.3869 15.8445 21.2487 15.8445H20.7267C20.5886 15.8445 20.5118 15.8906 20.5118 15.998C20.5118 16.1055 20.5886 16.1516 20.7267 16.1516H20.8342V17.1188C20.8342 17.2877 20.8803 17.3645 20.9877 17.3645C21.0952 17.3645 21.1413 17.2877 21.1413 17.1188V16.1516H21.2487C21.3869 16.1516 21.4637 16.1055 21.4637 15.998ZM20.3276 16.6889V16.0594C20.3276 15.8906 20.2815 15.8138 20.174 15.8138C20.0666 15.8138 20.0205 15.8906 20.0205 16.0594V16.6582C20.0205 16.9192 19.9284 17.0574 19.7595 17.0574C19.5906 17.0574 19.4985 16.9192 19.4985 16.6582V16.0594C19.4985 15.8906 19.4524 15.8138 19.345 15.8138C19.2375 15.8138 19.1914 15.8906 19.1914 16.0594V16.6889C19.1914 17.1342 19.4064 17.3798 19.7595 17.3798C20.0973 17.3798 20.3276 17.1342 20.3276 16.6889ZM19.0686 15.998C19.0686 15.8906 18.9918 15.8445 18.8537 15.8445H18.3317C18.1935 15.8445 18.1167 15.8906 18.1167 15.998C18.1167 16.1055 18.1935 16.1516 18.3317 16.1516H18.4391V17.1188C18.4391 17.2877 18.4852 17.3645 18.5927 17.3645C18.7001 17.3645 18.7462 17.2877 18.7462 17.1188V16.1516H18.8537C18.9918 16.1516 19.0686 16.1055 19.0686 15.998ZM18.0092 16.8732C18.0092 16.6429 17.8864 16.5047 17.6408 16.4126C17.4872 16.3511 17.3951 16.3358 17.3951 16.2283C17.3951 16.1516 17.4565 16.1055 17.5486 16.1055C17.6254 16.1055 17.7175 16.1516 17.7789 16.1516C17.8711 16.1516 17.9171 16.0901 17.9171 16.0134C17.9171 15.8906 17.7789 15.7984 17.5486 15.7984C17.2569 15.7984 17.0727 15.998 17.0727 16.2744C17.0727 16.5047 17.1955 16.6121 17.4412 16.7043C17.5794 16.7503 17.6715 16.7964 17.6715 16.9192C17.6715 17.0113 17.6101 17.0727 17.5179 17.0727C17.3798 17.0727 17.2723 16.996 17.1955 16.996C17.1034 16.996 17.042 17.0574 17.042 17.1495C17.042 17.2723 17.2262 17.3952 17.4719 17.3952C17.8096 17.3798 18.0092 17.1649 18.0092 16.8732Z" fill="white"/>
</g>
<defs>
<clipPath id="clip0_33_1264">
<rect width="45" height="45" fill="white"/>
</clipPath>
</defs>
</svg>
