<svg width="15" height="15" viewBox="0 0 15 15" fill="none" xmlns="http://www.w3.org/2000/svg">
<g opacity="0.5" clip-path="url(#clip0_33_3518)">
<path d="M13.1252 13.7501H5.62517C5.3108 13.7501 5.14892 13.5426 5.0933 13.4539C5.0383 13.3639 4.92517 13.127 5.0658 12.8451L5.69392 11.5895C6.17955 11.7745 6.70267 11.8745 7.24392 11.8745H11.8745C12.4252 11.8745 12.9458 11.6339 13.3033 11.2139C13.6608 10.7939 13.8139 10.2382 13.7245 9.68885C13.5795 8.79698 12.7552 8.12448 11.8083 8.12448H7.25267C6.97142 8.12448 6.72392 7.9351 6.65017 7.66448L6.26392 6.24948H11.8752C12.2202 6.24948 12.5002 5.9701 12.5002 5.62448C12.5002 5.27885 12.2202 4.99948 11.8752 4.99948H5.92205L4.95392 1.45698C4.70017 0.490104 3.79767 -0.133646 2.85267 0.00510415C2.32517 0.0826041 1.85392 0.381979 1.5608 0.825729C1.26767 1.26948 1.17642 1.81948 1.3133 2.33885L3.02142 8.64448C3.2808 9.60073 3.84892 10.412 4.60017 10.9826L3.9483 12.2864C3.6558 12.8726 3.68642 13.5539 4.0308 14.1107C4.37517 14.6676 4.9708 15.0001 5.6258 15.0001H13.1258C13.4708 15.0001 13.7508 14.7207 13.7508 14.3751C13.7508 14.0295 13.4702 13.7501 13.1252 13.7501ZM2.5208 2.01698C2.47517 1.84323 2.50455 1.6651 2.60392 1.5151C2.70267 1.3651 2.88455 1.23635 3.11142 1.23635C3.39267 1.23635 3.66205 1.45948 3.74642 1.78135L5.44392 7.99448C5.6658 8.8076 6.40955 9.3751 7.25267 9.3751H11.8083C12.1439 9.3751 12.4439 9.60135 12.4914 9.8901C12.522 10.0801 12.4727 10.2626 12.3514 10.4045C12.2327 10.5445 12.0589 10.6251 11.8752 10.6251H7.24455C5.83642 10.6251 4.59642 9.67573 4.2283 8.3176L2.5208 2.01698Z" fill="white"/>
</g>
<defs>
<clipPath id="clip0_33_3518">
<rect width="15" height="15" fill="white"/>
</clipPath>
</defs>
</svg>
