<svg width="15" height="15" viewBox="0 0 15 15" fill="none" xmlns="http://www.w3.org/2000/svg">
<g opacity="0.5" clip-path="url(#clip0_33_3530)">
<path d="M14.5442 5.88692C13.5748 4.30817 11.3698 1.65942 7.49985 1.65942C3.62985 1.65942 1.42485 4.30817 0.455474 5.88692C0.155804 6.37162 -0.00292969 6.9302 -0.00292969 7.50005C-0.00292969 8.0699 0.155804 8.62848 0.455474 9.11317C1.42485 10.6919 3.62985 13.3407 7.49985 13.3407C11.3698 13.3407 13.5748 10.6919 14.5442 9.11317C14.8439 8.62848 15.0026 8.0699 15.0026 7.50005C15.0026 6.9302 14.8439 6.37162 14.5442 5.88692ZM13.4786 8.4588C12.6461 9.81255 10.7617 12.0907 7.49985 12.0907C4.23797 12.0907 2.3536 9.81255 1.5211 8.4588C1.34306 8.1707 1.24876 7.83872 1.24876 7.50005C1.24876 7.16138 1.34306 6.8294 1.5211 6.5413C2.3536 5.18755 4.23797 2.90942 7.49985 2.90942C10.7617 2.90942 12.6461 5.18505 13.4786 6.5413C13.6566 6.8294 13.7509 7.16138 13.7509 7.50005C13.7509 7.83872 13.6566 8.1707 13.4786 8.4588Z" fill="white"/>
<path d="M7.5 4.375C6.88193 4.375 6.27775 4.55828 5.76384 4.90166C5.24994 5.24504 4.8494 5.7331 4.61288 6.30411C4.37635 6.87513 4.31447 7.50347 4.43505 8.10966C4.55563 8.71585 4.85325 9.27267 5.29029 9.70971C5.72733 10.1467 6.28415 10.4444 6.89034 10.565C7.49654 10.6855 8.12487 10.6236 8.69589 10.3871C9.26691 10.1506 9.75496 9.75006 10.0983 9.23616C10.4417 8.72225 10.625 8.11807 10.625 7.5C10.624 6.6715 10.2944 5.87722 9.70861 5.29139C9.12278 4.70555 8.3285 4.37599 7.5 4.375ZM7.5 9.375C7.12916 9.375 6.76665 9.26503 6.45831 9.05901C6.14996 8.85298 5.90964 8.56014 5.76773 8.21753C5.62581 7.87492 5.58868 7.49792 5.66103 7.13421C5.73338 6.77049 5.91195 6.4364 6.17418 6.17417C6.4364 5.91195 6.77049 5.73337 7.13421 5.66103C7.49792 5.58868 7.87492 5.62581 8.21753 5.76773C8.56014 5.90964 8.85298 6.14996 9.05901 6.45831C9.26503 6.76665 9.375 7.12916 9.375 7.5C9.375 7.99728 9.17746 8.47419 8.82583 8.82583C8.4742 9.17746 7.99728 9.375 7.5 9.375Z" fill="white"/>
</g>
<defs>
<clipPath id="clip0_33_3530">
<rect width="15" height="15" fill="white"/>
</clipPath>
</defs>
</svg>
