<svg width="15" height="15" viewBox="0 0 15 15" fill="none" xmlns="http://www.w3.org/2000/svg">
<g opacity="0.5" clip-path="url(#clip0_33_3536)">
<path d="M7.5 0C5.51154 0.00215068 3.60513 0.793018 2.19907 2.19907C0.793018 3.60513 0.00215068 5.51154 0 7.5C0.375 17.4375 14.625 17.4331 15 7.5C14.9978 5.51154 14.207 3.60513 12.8009 2.19907C11.3949 0.793018 9.48846 0.00215068 7.5 0ZM7.5 13.75C5.84296 13.7482 4.2543 13.0891 3.08259 11.9174C1.91088 10.7457 1.25182 9.15704 1.25 7.5C1.5625 -0.78 13.4375 -0.778125 13.75 7.5C13.7482 9.15704 13.0891 10.7457 11.9174 11.9174C10.7457 13.0891 9.15704 13.7482 7.5 13.75ZM7.5 2.5C6.17437 2.50149 4.90347 3.02875 3.96611 3.96611C3.02875 4.90347 2.50149 6.17437 2.5 7.5C2.735 14.1175 12.2662 14.1156 12.5 7.5C12.4985 6.17437 11.9712 4.90347 11.0339 3.96611C10.0965 3.02875 8.82563 2.50149 7.5 2.5ZM6.97875 8.17875C6.96554 8.00683 6.9354 7.83663 6.88875 7.67062C6.84182 7.50578 6.77902 7.34586 6.70125 7.19312C7.00299 7.07452 7.27548 6.89201 7.5 6.65812C7.72398 6.89179 7.99581 7.07429 8.29688 7.19312C8.2191 7.34586 8.15631 7.50578 8.10938 7.67062C8.06273 7.83663 8.03258 8.00683 8.01937 8.17875C7.67613 8.10775 7.32199 8.10775 6.97875 8.17875ZM10.7 5.54625L9.49375 6.02875C9.34228 6.08884 9.17842 6.111 9.01643 6.09331C8.85443 6.07562 8.69922 6.01861 8.56429 5.92724C8.42936 5.83587 8.3188 5.71291 8.24224 5.56906C8.16568 5.42521 8.12543 5.26483 8.125 5.10188V3.8025C8.65375 3.89267 9.15709 4.09492 9.60123 4.39568C10.0454 4.69644 10.42 5.08874 10.7 5.54625ZM6.875 3.8025V5.10188C6.87457 5.26483 6.83432 5.42521 6.75776 5.56906C6.68119 5.71291 6.57064 5.83587 6.43571 5.92724C6.30078 6.01861 6.14557 6.07562 5.98357 6.09331C5.82158 6.111 5.65772 6.08884 5.50625 6.02875L4.3 5.54625C4.58 5.08874 4.95464 4.69644 5.39877 4.39568C5.84291 4.09492 6.34625 3.89267 6.875 3.8025ZM3.75 7.5C3.75 7.23339 3.77828 6.96752 3.83438 6.70687L4.89687 7.1325C5.08631 7.20808 5.25582 7.32622 5.39231 7.47778C5.52879 7.62933 5.62859 7.81025 5.68399 8.00654C5.73939 8.20282 5.74891 8.40922 5.7118 8.60977C5.6747 8.81032 5.59196 8.99965 5.47 9.16313L4.7825 10.0812C4.11912 9.38568 3.74932 8.4612 3.75 7.5ZM5.78188 10.8325L6.5 9.875C6.62051 9.72585 6.77286 9.60554 6.94589 9.5229C7.11892 9.44025 7.30825 9.39736 7.5 9.39736C7.69175 9.39736 7.88108 9.44025 8.05411 9.5229C8.22714 9.60554 8.37949 9.72585 8.5 9.875L9.21812 10.8319C8.68622 11.1037 8.09742 11.2455 7.50008 11.2456C6.90273 11.2457 6.31388 11.1041 5.78188 10.8325ZM10.2194 10.0825L9.80937 9.53687L9.53312 9.16813C9.41037 9.00471 9.32693 8.8152 9.28929 8.61431C9.25164 8.41342 9.2608 8.20656 9.31606 8.00978C9.37131 7.81301 9.47117 7.63161 9.60789 7.47969C9.74461 7.32776 9.9145 7.20938 10.1044 7.13375L11.1669 6.70813C11.2938 7.30521 11.2738 7.92422 11.1084 8.51183C10.943 9.09943 10.6373 9.63804 10.2175 10.0812L10.2194 10.0825Z" fill="white"/>
</g>
<defs>
<clipPath id="clip0_33_3536">
<rect width="15" height="15" fill="white"/>
</clipPath>
</defs>
</svg>
