<svg width="25" height="25" viewBox="0 0 25 25" fill="none" xmlns="http://www.w3.org/2000/svg">
<g opacity="0.8" clip-path="url(#clip0_33_3549)">
<path d="M19.3549 2.22917L12.8288 0.0531317C12.6152 -0.0180361 12.3842 -0.0180361 12.1705 0.0531317L5.64447 2.22917C4.60687 2.57384 3.70428 3.23673 3.06493 4.12366C2.42558 5.01059 2.08201 6.07645 2.08301 7.1698V12.5C2.08301 20.3781 11.6663 24.7292 12.0768 24.9104C12.2099 24.9696 12.354 25.0001 12.4997 25.0001C12.6454 25.0001 12.7894 24.9696 12.9226 24.9104C13.333 24.7292 22.9163 20.3781 22.9163 12.5V7.1698C22.9173 6.07645 22.5738 5.01059 21.9344 4.12366C21.2951 3.23673 20.3925 2.57384 19.3549 2.22917ZM20.833 12.5C20.833 18.1823 14.2507 21.9094 12.4997 22.8011C10.7466 21.9125 4.16634 18.1969 4.16634 12.5V7.1698C4.1664 6.51384 4.37288 5.87453 4.75652 5.34245C5.14015 4.81037 5.68149 4.4125 6.30384 4.20522L12.4997 2.13959L18.6955 4.20522C19.3179 4.4125 19.8592 4.81037 20.2428 5.34245C20.6265 5.87453 20.8329 6.51384 20.833 7.1698V12.5Z" fill="white"/>
<path d="M15.9371 8.64579L11.5746 13.0208L9.23708 10.5833C9.14327 10.4807 9.02989 10.398 8.9036 10.3399C8.77732 10.2818 8.64069 10.2496 8.50176 10.2452C8.36284 10.2407 8.22443 10.2641 8.09469 10.314C7.96495 10.3639 7.8465 10.4392 7.74632 10.5356C7.64614 10.6319 7.56626 10.7473 7.51138 10.875C7.45651 11.0027 7.42774 11.1401 7.42678 11.2791C7.42582 11.4181 7.45269 11.5559 7.50581 11.6843C7.55892 11.8128 7.6372 11.9293 7.73604 12.027L10.1381 14.527C10.3173 14.7205 10.5338 14.8757 10.7746 14.9831C11.0154 15.0905 11.2755 15.148 11.5392 15.152H11.5735C11.8319 15.1529 12.0879 15.1024 12.3266 15.0035C12.5654 14.9046 12.7821 14.7593 12.9642 14.576L17.4142 10.126C17.5114 10.029 17.5885 9.91383 17.6412 9.78703C17.6939 9.66023 17.721 9.5243 17.7212 9.387C17.7213 9.24969 17.6944 9.1137 17.642 8.9868C17.5896 8.85989 17.5127 8.74454 17.4157 8.64735C17.3187 8.55016 17.2036 8.47302 17.0768 8.42034C16.95 8.36767 16.814 8.34048 16.6767 8.34033C16.5394 8.34019 16.4034 8.36709 16.2765 8.4195C16.1496 8.47191 16.0343 8.5488 15.9371 8.64579Z" fill="white"/>
</g>
<defs>
<clipPath id="clip0_33_3549">
<rect width="25" height="25" fill="white"/>
</clipPath>
</defs>
</svg>
