<svg width="8" height="8" viewBox="0 0 8 8" fill="none" xmlns="http://www.w3.org/2000/svg">
<path d="M7.68299 0.182992C7.56579 0.0658222 7.40684 0 7.24112 0C7.07539 0 6.91645 0.0658222 6.79924 0.182992L3.93299 3.04924L1.06674 0.182992C0.949537 0.0658222 0.790594 0 0.624866 0C0.459139 0 0.300196 0.0658222 0.182992 0.182992C0.0658222 0.300196 0 0.459139 0 0.624866C0 0.790594 0.0658222 0.949537 0.182992 1.06674L3.04924 3.93299L0.182992 6.79924C0.0658222 6.91645 0 7.07539 0 7.24112C0 7.40684 0.0658222 7.56579 0.182992 7.68299C0.300196 7.80016 0.459139 7.86598 0.624866 7.86598C0.790594 7.86598 0.949537 7.80016 1.06674 7.68299L3.93299 4.81674L6.79924 7.68299C6.91645 7.80016 7.07539 7.86598 7.24112 7.86598C7.40684 7.86598 7.56579 7.80016 7.68299 7.68299C7.80016 7.56579 7.86598 7.40684 7.86598 7.24112C7.86598 7.07539 7.80016 6.91645 7.68299 6.79924L4.81674 3.93299L7.68299 1.06674C7.80016 0.949537 7.86598 0.790594 7.86598 0.624866C7.86598 0.459139 7.80016 0.300196 7.68299 0.182992Z" fill="#DB1E1E"/>
</svg>
