<svg width="13" height="13" viewBox="0 0 13 13" fill="none" xmlns="http://www.w3.org/2000/svg">
<path d="M10.5628 0H1.78777C1.33927 0 0.975271 0.363458 0.975271 0.8125C0.975271 1.26154 1.33927 1.625 1.78777 1.625H10.2264L0.238063 11.6128C-0.0793542 11.9297 -0.0793542 12.4448 0.238063 12.7617C0.396771 12.9204 0.604771 12.9995 0.812771 12.9995C1.02077 12.9995 1.22877 12.9204 1.38748 12.7617L11.3753 2.77387V11.2125C11.3753 11.6615 11.7393 12.025 12.1878 12.025C12.6363 12.025 13.0003 11.6615 13.0003 11.2125V2.4375C13.0003 1.09363 11.9066 0 10.5628 0Z" fill="white"/>
</svg>
