<svg width="25" height="25" viewBox="0 0 25 25" fill="none" xmlns="http://www.w3.org/2000/svg">
<path d="M1.60419 1.71138C0.995686 1.06231 1.45591 -1.02838e-06 2.34561 -9.89486e-07C2.62049 -9.77471e-07 2.88365 0.111344 3.07505 0.308634L12.4911 10.0144L21.9071 0.308635C22.0986 0.111345 22.3617 -1.14555e-07 22.6366 -1.0254e-07C23.5263 -6.36498e-08 23.9865 1.06231 23.378 1.71138L13.3011 12.46C12.8625 12.928 12.1197 12.928 11.6811 12.46L1.60419 1.71138Z" fill="#FF0000"/>
<path d="M1.60419 12.8149C0.995686 12.1658 1.45591 11.1035 2.34561 11.1035C2.62049 11.1035 2.88365 11.2149 3.07505 11.4121L12.4911 21.1179L21.9071 11.4122C22.0986 11.2149 22.3617 11.1035 22.6366 11.1035C23.5263 11.1035 23.9865 12.1658 23.378 12.8149L13.3011 23.5636C12.8625 24.0315 12.1197 24.0315 11.6811 23.5636L1.60419 12.8149Z" fill="#FF0000"/>
</svg>
