<svg width="50" height="50" viewBox="0 0 50 50" fill="none" xmlns="http://www.w3.org/2000/svg">
<rect width="50" height="50" rx="10" fill="#FF0000" fill-opacity="0.1"/>
<g clip-path="url(#clip0_37_195)">
<path d="M37.5 19.7344C37.4705 18.1217 36.8149 16.5838 35.6719 15.4458L33.0281 12.8052C32.8317 12.6155 32.5685 12.5105 32.2954 12.5128C32.0223 12.5152 31.761 12.6248 31.5679 12.8179C31.3748 13.011 31.2652 13.2723 31.2628 13.5454C31.2605 13.8185 31.3655 14.0817 31.5552 14.2781L33.3333 16.0562V18.75C33.3333 19.3025 33.5528 19.8324 33.9435 20.2231C34.3342 20.6138 34.8641 20.8333 35.4167 20.8333V31.25C35.4167 31.5263 35.3069 31.7912 35.1116 31.9866C34.9162 32.1819 34.6513 32.2917 34.375 32.2917C34.0987 32.2917 33.8338 32.1819 33.6384 31.9866C33.4431 31.7912 33.3333 31.5263 33.3333 31.25V30.2083C33.3333 29.3795 33.0041 28.5847 32.418 27.9986C31.832 27.4126 31.0371 27.0833 30.2083 27.0833H29.1667V17.7083C29.165 16.3275 28.6157 15.0037 27.6394 14.0273C26.663 13.0509 25.3392 12.5017 23.9583 12.5H17.7083C16.3275 12.5017 15.0037 13.0509 14.0273 14.0273C13.0509 15.0037 12.5017 16.3275 12.5 17.7083L12.5 32.2917C12.5017 33.6725 13.0509 34.9963 14.0273 35.9727C15.0037 36.9491 16.3275 37.4983 17.7083 37.5H23.9583C25.3392 37.4983 26.663 36.9491 27.6394 35.9727C28.6157 34.9963 29.165 33.6725 29.1667 32.2917V29.1667H30.2083C30.4846 29.1667 30.7496 29.2764 30.9449 29.4718C31.1403 29.6671 31.25 29.9321 31.25 30.2083V31.25C31.25 32.0788 31.5792 32.8737 32.1653 33.4597C32.7513 34.0458 33.5462 34.375 34.375 34.375C35.2038 34.375 35.9987 34.0458 36.5847 33.4597C37.1708 32.8737 37.5 32.0788 37.5 31.25C37.5 31.25 37.5 19.7531 37.5 19.7344ZM17.7083 14.5833H23.9583C24.7871 14.5833 25.582 14.9126 26.168 15.4986C26.7541 16.0847 27.0833 16.8795 27.0833 17.7083V21.875H14.5833V17.7083C14.5833 16.8795 14.9126 16.0847 15.4986 15.4986C16.0847 14.9126 16.8795 14.5833 17.7083 14.5833ZM27.0833 32.2917C27.0833 33.1205 26.7541 33.9153 26.168 34.5014C25.582 35.0874 24.7871 35.4167 23.9583 35.4167H17.7083C16.8795 35.4167 16.0847 35.0874 15.4986 34.5014C14.9126 33.9153 14.5833 33.1205 14.5833 32.2917V23.9583H27.0833V32.2917Z" fill="#DB1E1E"/>
</g>
<defs>
<clipPath id="clip0_37_195">
<rect width="25" height="25" fill="white" transform="translate(12.5 12.5)"/>
</clipPath>
</defs>
</svg>
