<svg width="50" height="50" viewBox="0 0 50 50" fill="none" xmlns="http://www.w3.org/2000/svg">
<rect width="50" height="50" rx="10" fill="#FF0000" fill-opacity="0.1"/>
<g clip-path="url(#clip0_37_209)">
<path d="M25.0007 20.8334C24.1766 20.8334 23.371 21.0777 22.6858 21.5356C22.0006 21.9934 21.4665 22.6442 21.1512 23.4055C20.8358 24.1669 20.7533 25.0047 20.914 25.8129C21.0748 26.6212 21.4717 27.3636 22.0544 27.9463C22.6371 28.529 23.3795 28.9259 24.1878 29.0866C24.996 29.2474 25.8338 29.1649 26.5952 28.8495C27.3565 28.5342 28.0073 28.0001 28.4651 27.3149C28.9229 26.6297 29.1673 25.8241 29.1673 25C29.1673 23.895 28.7283 22.8352 27.9469 22.0538C27.1655 21.2724 26.1057 20.8334 25.0007 20.8334ZM25.0007 27.0834C24.5886 27.0834 24.1858 26.9612 23.8432 26.7323C23.5006 26.5033 23.2336 26.178 23.0759 25.7973C22.9182 25.4166 22.877 24.9977 22.9574 24.5936C23.0377 24.1895 23.2362 23.8183 23.5275 23.5269C23.8189 23.2355 24.1901 23.0371 24.5942 22.9567C24.9983 22.8764 25.4172 22.9176 25.7979 23.0753C26.1786 23.233 26.504 23.5 26.7329 23.8426C26.9618 24.1852 27.084 24.588 27.084 25C27.084 25.5526 26.8645 26.0825 26.4738 26.4732C26.0831 26.8639 25.5532 27.0834 25.0007 27.0834Z" fill="#DB1E1E"/>
<path d="M34.6817 26.9792L34.2192 26.7125C34.4274 25.5796 34.4274 24.4183 34.2192 23.2854L34.6817 23.0187C35.0374 22.8136 35.3491 22.5403 35.5992 22.2146C35.8493 21.889 36.0327 21.5172 36.1391 21.1206C36.2455 20.7241 36.2728 20.3104 36.2193 19.9033C36.1658 19.4962 36.0327 19.1036 35.8275 18.7479C35.6223 18.3923 35.3491 18.0805 35.0234 17.8304C34.6977 17.5804 34.326 17.3969 33.9294 17.2905C33.5328 17.1841 33.1192 17.1568 32.7121 17.2103C32.305 17.2638 31.9124 17.3969 31.5567 17.6021L31.0932 17.8698C30.2177 17.1218 29.2116 16.5419 28.1254 16.1594V15.625C28.1254 14.7962 27.7962 14.0013 27.2101 13.4153C26.6241 12.8292 25.8292 12.5 25.0004 12.5C24.1716 12.5 23.3768 12.8292 22.7907 13.4153C22.2047 14.0013 21.8754 14.7962 21.8754 15.625V16.1594C20.7894 16.5433 19.7836 17.1246 18.9088 17.874L18.4431 17.6042C17.7249 17.1898 16.8714 17.0777 16.0704 17.2926C15.2695 17.5074 14.5867 18.0317 14.1723 18.75C13.7579 19.4683 13.6458 20.3218 13.8607 21.1227C14.0756 21.9237 14.5999 22.6064 15.3181 23.0208L15.7806 23.2875C15.5724 24.4204 15.5724 25.5817 15.7806 26.7146L15.3181 26.9812C14.5999 27.3957 14.0756 28.0784 13.8607 28.8794C13.6458 29.6803 13.7579 30.5338 14.1723 31.2521C14.5867 31.9704 15.2695 32.4946 16.0704 32.7095C16.8714 32.9244 17.7249 32.8123 18.4431 32.3979L18.9067 32.1302C19.7825 32.8783 20.789 33.4582 21.8754 33.8406V34.375C21.8754 35.2038 22.2047 35.9987 22.7907 36.5847C23.3768 37.1708 24.1716 37.5 25.0004 37.5C25.8292 37.5 26.6241 37.1708 27.2101 36.5847C27.7962 35.9987 28.1254 35.2038 28.1254 34.375V33.8406C29.2115 33.4567 30.2173 32.8754 31.0921 32.126L31.5577 32.3948C32.276 32.8092 33.1295 32.9213 33.9305 32.7064C34.7314 32.4915 35.4142 31.9673 35.8286 31.249C36.243 30.5307 36.3551 29.6772 36.1402 28.8762C35.9253 28.0753 35.401 27.3925 34.6827 26.9781L34.6817 26.9792ZM32.0275 23.0458C32.3803 24.324 32.3803 25.6739 32.0275 26.9521C31.9659 27.1746 31.98 27.4112 32.0675 27.6248C32.1549 27.8384 32.3109 28.0169 32.5109 28.1323L33.64 28.7844C33.8794 28.9225 34.0541 29.1501 34.1257 29.417C34.1973 29.684 34.1599 29.9684 34.0218 30.2078C33.8837 30.4472 33.6561 30.6219 33.3891 30.6935C33.1222 30.7651 32.8377 30.7277 32.5984 30.5896L31.4671 29.9354C31.267 29.8195 31.034 29.7735 30.8049 29.8046C30.5757 29.8357 30.3634 29.9422 30.2015 30.1073C29.2743 31.0538 28.1062 31.7291 26.8234 32.0604C26.5994 32.118 26.401 32.2484 26.2594 32.4312C26.1178 32.6139 26.041 32.8386 26.0411 33.0698V34.375C26.0411 34.6513 25.9313 34.9162 25.736 35.1116C25.5406 35.3069 25.2757 35.4167 24.9994 35.4167C24.7231 35.4167 24.4582 35.3069 24.2628 35.1116C24.0675 34.9162 23.9577 34.6513 23.9577 34.375V33.0708C23.9578 32.8396 23.881 32.615 23.7394 32.4322C23.5978 32.2495 23.3994 32.119 23.1754 32.0615C21.8925 31.7288 20.7247 31.052 19.7984 30.1042C19.6364 29.9391 19.4241 29.8326 19.195 29.8015C18.9658 29.7704 18.7328 29.8164 18.5327 29.9323L17.4036 30.5854C17.2851 30.6549 17.154 30.7002 17.0179 30.7189C16.8818 30.7375 16.7433 30.729 16.6105 30.6939C16.4777 30.6587 16.3531 30.5977 16.244 30.5143C16.1349 30.4308 16.0433 30.3266 15.9746 30.2076C15.906 30.0887 15.8615 29.9573 15.8438 29.8211C15.8261 29.6848 15.8355 29.5464 15.8715 29.4139C15.9075 29.2813 15.9693 29.1571 16.0535 29.0486C16.1377 28.94 16.2425 28.8491 16.3619 28.7812L17.4911 28.1292C17.691 28.0138 17.847 27.8353 17.9345 27.6217C18.0219 27.4081 18.036 27.1714 17.9744 26.949C17.6216 25.6708 17.6216 24.3209 17.9744 23.0427C18.0349 22.8207 18.0202 22.5849 17.9325 22.3722C17.8449 22.1594 17.6893 21.9817 17.49 21.8667L16.3609 21.2146C16.1215 21.0764 15.9468 20.8489 15.8752 20.5819C15.8036 20.315 15.841 20.0305 15.9791 19.7911C16.1172 19.5518 16.3448 19.3771 16.6117 19.3055C16.8787 19.2339 17.1631 19.2712 17.4025 19.4094L18.5338 20.0635C18.7333 20.1797 18.9658 20.2263 19.1947 20.1959C19.4236 20.1655 19.636 20.06 19.7984 19.8958C20.7255 18.9493 21.8936 18.274 23.1765 17.9427C23.4011 17.885 23.6 17.7539 23.7417 17.5703C23.8834 17.3867 23.9598 17.1611 23.9588 16.9292V15.625C23.9588 15.3487 24.0685 15.0838 24.2639 14.8884C24.4592 14.6931 24.7242 14.5833 25.0004 14.5833C25.2767 14.5833 25.5417 14.6931 25.737 14.8884C25.9324 15.0838 26.0421 15.3487 26.0421 15.625V16.9292C26.042 17.1604 26.1188 17.385 26.2604 17.5678C26.4021 17.7505 26.6005 17.881 26.8244 17.9385C28.1077 18.271 29.2759 18.9478 30.2025 19.8958C30.3645 20.0609 30.5768 20.1674 30.8059 20.1985C31.0351 20.2296 31.268 20.1836 31.4681 20.0677L32.5973 19.4146C32.7158 19.3451 32.8469 19.2998 32.983 19.2811C33.1191 19.2625 33.2576 19.271 33.3904 19.3061C33.5232 19.3413 33.6478 19.4023 33.7569 19.4857C33.866 19.5692 33.9575 19.6734 34.0262 19.7924C34.0949 19.9113 34.1394 20.0427 34.1571 20.1789C34.1748 20.3152 34.1654 20.4536 34.1294 20.5861C34.0934 20.7187 34.0316 20.8429 33.9474 20.9514C33.8632 21.06 33.7584 21.1509 33.639 21.2188L32.5098 21.8708C32.3109 21.9862 32.1557 22.164 32.0685 22.3768C31.9813 22.5895 31.9669 22.8251 32.0275 23.0469V23.0458Z" fill="#DB1E1E"/>
</g>
<defs>
<clipPath id="clip0_37_209">
<rect width="25" height="25" fill="white" transform="translate(12.5 12.5)"/>
</clipPath>
</defs>
</svg>
