<svg width="55" height="55" viewBox="0 0 55 55" fill="none" xmlns="http://www.w3.org/2000/svg">
<g clip-path="url(#clip0_37_274)">
<circle cx="27.5" cy="27.5" r="27.5" fill="#1E1E1E"/>
<path d="M27.5 0C12.3131 0 0 12.3131 0 27.5C0 42.6869 12.3131 55 27.5 55C42.6869 55 55 42.6869 55 27.5C55 12.3131 42.6869 0 27.5 0ZM27.8598 43.2277H27.8529C25.1625 43.2277 22.5179 42.5517 20.1713 41.2706L11.6485 43.5073L13.931 35.1771C12.524 32.741 11.7838 29.975 11.7838 27.1402C11.7883 18.276 18.9979 11.0665 27.8598 11.0665C32.159 11.0665 36.1969 12.7417 39.231 15.7804C42.2652 18.8192 43.9381 22.8571 43.9358 27.154C43.9335 36.0181 36.7194 43.2277 27.8598 43.2277ZM27.8644 13.7798C20.4944 13.7798 14.4994 19.7725 14.4971 27.1402C14.4971 29.6656 15.2029 32.1246 16.539 34.2513L16.8575 34.7577L15.5077 39.6871L20.5631 38.3602L21.0513 38.649C23.1023 39.8658 25.4535 40.5098 27.8529 40.5121H27.8575C35.2229 40.5121 41.2156 34.5171 41.2179 27.1517C41.2179 23.5812 39.8315 20.224 37.3083 17.6985C34.7852 15.1731 31.4302 13.7821 27.8621 13.7798H27.8644ZM35.7225 32.8854C35.3879 33.825 33.7838 34.6798 33.0115 34.7944C32.3194 34.8975 31.444 34.941 30.4815 34.6363C29.8971 34.4506 29.15 34.2054 28.1921 33.7906C24.1633 32.0513 21.5302 27.9927 21.3308 27.7246C21.1292 27.4565 19.69 25.5475 19.69 23.5698C19.69 21.5921 20.7281 20.6204 21.0971 20.2194C21.466 19.8183 21.9015 19.7175 22.1673 19.7175C22.4331 19.7175 22.7035 19.7198 22.9373 19.7313C23.1825 19.745 23.5148 19.6373 23.8402 20.421C24.1748 21.2254 24.9792 23.2031 25.08 23.4048C25.1808 23.6065 25.2473 23.8402 25.1144 24.1083C24.9792 24.3765 24.9127 24.5438 24.7133 24.7775C24.5117 25.0113 24.2917 25.3023 24.1106 25.481C23.909 25.6804 23.7004 25.8981 23.9342 26.3015C24.1679 26.7048 24.9746 28.0179 26.1685 29.0835C27.704 30.4517 28.9965 30.8756 29.3998 31.0773C29.8008 31.279 30.0346 31.2446 30.2706 30.9765C30.5067 30.7083 31.2744 29.8031 31.5425 29.4021C31.8106 28.9988 32.0788 29.0675 32.4477 29.2004C32.8144 29.3356 34.7898 30.305 35.1931 30.5067C35.5942 30.7083 35.8623 30.8069 35.9631 30.9742C36.064 31.1415 36.064 31.9458 35.7294 32.8831L35.7225 32.8854Z" fill="white"/>
</g>
<defs>
<clipPath id="clip0_37_274">
<rect width="55" height="55" fill="white"/>
</clipPath>
</defs>
</svg>
