<svg width="78" height="27" viewBox="0 0 78 27" fill="none" xmlns="http://www.w3.org/2000/svg">
<path fill-rule="evenodd" clip-rule="evenodd" d="M13.8125 0C16.9 0 19.825 1.11176 22.2625 2.7C24.5375 0.952941 27.4625 0 30.7125 0C33.8 0 36.725 0.952941 39 2.7C41.275 0.952941 44.2 0 47.2875 0C50.375 0 53.3 1.11176 55.7375 2.7C58.0125 0.952941 60.9375 0 64.1875 0C71.825 0 78 6.03529 78 13.5C78 20.9647 71.825 27 64.1875 27C61.1 27 58.175 25.8882 55.7375 24.3C53.4625 26.0471 50.5375 27 47.2875 27C44.2 27 41.275 26.0471 39 24.3C36.725 26.0471 33.8 27 30.7125 27C27.625 27 24.7 25.8882 22.2625 24.3C19.9875 26.0471 17.0625 27 13.8125 27C6.175 27 0 20.9647 0 13.5C0 6.03529 6.175 0 13.8125 0ZM41.4375 5.24118C43.225 7.46471 44.3625 10.3235 44.3625 13.5C44.3625 16.6765 43.225 19.5353 41.4375 21.7588C43.0625 22.8706 45.0125 23.5059 47.2875 23.5059C49.4 23.5059 51.5125 22.8706 53.1375 21.7588C51.35 19.5353 50.2125 16.6765 50.2125 13.5C50.2125 10.3235 51.35 7.46471 53.1375 5.24118C51.5125 4.12941 49.4 3.49412 47.2875 3.49412C45.175 3.49412 43.225 4.12941 41.4375 5.24118ZM36.2375 21.7588C34.45 19.5353 33.3125 16.6765 33.3125 13.5C33.3125 10.3235 34.45 7.46471 36.2375 5.24118C34.6125 4.12941 32.6625 3.49412 30.3875 3.49412C28.275 3.49412 26.1625 4.12941 24.5375 5.24118C26.325 7.46471 27.4625 10.3235 27.4625 13.5C27.4625 16.6765 26.325 19.5353 24.5375 21.7588C26.1625 22.8706 28.275 23.5059 30.3875 23.5059C32.5 23.5059 34.45 22.8706 36.2375 21.7588ZM58.0125 5.24118C59.8 7.46471 60.9375 10.3235 60.9375 13.5C60.9375 16.6765 59.8 19.5353 58.0125 21.7588C59.6375 22.8706 61.75 23.5059 63.8625 23.5059C69.55 23.5059 74.1 19.0588 74.1 13.5C74.1 7.94118 69.55 3.49412 63.8625 3.49412C61.75 3.49412 59.6375 4.12941 58.0125 5.24118ZM38.675 7.62353C37.5375 9.21177 36.725 11.2765 36.725 13.5C36.725 15.7235 37.375 17.6294 38.675 19.3765C39.8125 17.7882 40.625 15.7235 40.625 13.5C40.625 11.2765 39.975 9.37059 38.675 7.62353ZM55.4125 19.2176C54.275 17.6294 53.625 15.5647 53.625 13.5C53.625 11.2765 54.275 9.37059 55.4125 7.78235C56.55 9.37059 57.2 11.4353 57.2 13.5C57.2 15.7235 56.55 17.6294 55.4125 19.2176ZM19.5 21.7588C17.7125 19.5353 16.575 16.6765 16.575 13.5C16.575 10.3235 17.7125 7.46471 19.5 5.24118C17.875 4.12941 15.7625 3.49412 13.65 3.49412C7.9625 3.49412 3.4125 7.94118 3.4125 13.5C3.4125 19.0588 7.9625 23.5059 13.65 23.5059C15.7625 23.5059 17.875 22.8706 19.5 21.7588ZM22.1 19.2176C20.9625 17.6294 20.3125 15.5647 20.3125 13.5C20.3125 11.2765 20.9625 9.37059 22.1 7.78235C23.2375 9.37059 23.8875 11.4353 23.8875 13.5C23.8875 15.7235 23.2375 17.6294 22.1 19.2176Z" fill="white"/>
</svg>
