<svg width="13" height="13" viewBox="0 0 13 13" fill="none" xmlns="http://www.w3.org/2000/svg">
<path d="M10.5618 0H1.78679C1.33829 0 0.974294 0.363458 0.974294 0.8125C0.974294 1.26154 1.33829 1.625 1.78679 1.625H10.2254L0.237086 11.6128C-0.0803307 11.9297 -0.0803307 12.4448 0.237086 12.7617C0.395794 12.9204 0.603794 12.9995 0.811794 12.9995C1.01979 12.9995 1.22779 12.9204 1.3865 12.7617L11.3743 2.77387V11.2125C11.3743 11.6615 11.7383 12.025 12.1868 12.025C12.6353 12.025 12.9993 11.6615 12.9993 11.2125V2.4375C12.9993 1.09363 11.9057 0 10.5618 0Z" fill="white"/>
</svg>
