<svg width="47" height="47" viewBox="0 0 47 47" fill="none" xmlns="http://www.w3.org/2000/svg">
<g opacity="0.8">
<g clip-path="url(#clip0_33_1283)">
<path d="M23.4555 35.6254C36.4153 35.6254 46.911 30.2357 46.911 23.5946C46.911 16.9534 36.4153 11.5581 23.4555 11.5581C10.5013 11.5581 0 16.9478 0 23.589C0 30.2302 10.5013 35.6254 23.4555 35.6254ZM27.8607 29.7129C27.4769 30.614 26.7983 32.5551 25.2576 33.3227C24.7848 33.5452 24.2008 33.662 23.6947 33.6787C23.5779 33.6954 23.5 33.6787 23.4722 33.6787C19.1393 33.6787 15.1123 33.0891 11.7361 32.0546C11.7083 32.0379 11.6304 32.0101 11.6304 32.0101C11.2911 31.9044 11.1298 31.7598 11.1298 31.5818C11.1298 31.4316 11.2021 31.3148 11.3245 31.198C11.369 31.1535 11.4413 31.0923 11.5303 31.0033C12.2979 30.3525 14.6673 28.6505 19.067 26.943C20.6244 26.3534 22.56 25.6136 24.5902 25.1798C25.7916 24.9517 30.2024 24.2898 27.8607 29.7129ZM39.7359 17.593C39.8082 17.4428 39.9305 17.3149 40.1363 17.3149C40.2531 17.2982 40.3866 17.3316 40.6091 17.4762C43.3624 19.1727 45.0088 21.2918 45.0088 23.589C45.0088 27.7439 39.6802 31.3037 32.0712 32.8666C31.5818 32.9723 31.2592 32.9723 31.1424 32.8388C31.0701 32.7498 31.0367 32.633 31.1424 32.4717C31.1869 32.3827 31.248 32.3104 31.3482 32.2047C35.4975 27.3101 38.6624 20.0848 39.5467 17.9879C39.6024 17.8155 39.6691 17.682 39.7359 17.593ZM19.1226 17.4317C19.5064 16.5306 20.185 14.5895 21.7257 13.8219C22.1985 13.5883 22.7825 13.4826 23.2886 13.4659C23.4054 13.4659 23.4944 13.4659 23.5222 13.4659C27.8385 13.4659 31.871 14.0722 35.2417 15.0901C35.2695 15.0901 35.3473 15.1179 35.3751 15.1346C35.6866 15.2402 35.8479 15.3848 35.8479 15.5628C35.8479 15.7241 35.7589 15.8298 35.6533 15.9466C35.6088 15.9911 35.5364 16.0634 35.4475 16.1413C34.6632 16.7921 32.3271 18.4941 27.9108 20.1794C26.3534 20.7857 24.4177 21.5088 22.3876 21.9593C21.1862 22.1985 16.7809 22.8659 19.1226 17.4317ZM14.8731 14.3114C15.3626 14.2057 15.7464 14.2057 15.8465 14.3392C15.9188 14.4115 15.9522 14.545 15.8465 14.7063C15.802 14.7953 15.7408 14.8676 15.6518 14.9844C11.4969 19.8791 8.33763 27.1043 7.45325 29.1845C7.38095 29.3347 7.31976 29.4793 7.25858 29.5683C7.16959 29.7185 7.05278 29.8353 6.85811 29.8464C6.75243 29.8464 6.60781 29.8186 6.36864 29.6851C3.61538 27.9886 1.91893 25.8695 1.91893 23.5723C1.94118 19.4341 7.2697 15.8688 14.8731 14.3114Z" fill="white"/>
<path d="M23.4555 11.5581C10.5013 11.5581 0 16.9311 0 23.5723C0 30.2135 10.5013 35.5865 23.4555 35.5865C36.4153 35.5865 46.911 30.1968 46.911 23.5723C46.911 16.9311 36.4153 11.5581 23.4555 11.5581ZM39.7581 31.4205C35.4252 33.6398 29.6406 34.869 23.4611 34.869C17.2815 34.869 11.508 33.6342 7.17515 31.4205C3.00355 29.2735 0.717515 26.498 0.717515 23.5834C0.717515 20.6689 3.01467 17.8878 7.18071 15.7408C11.5136 13.5049 17.2982 12.2923 23.4777 12.2923C29.6573 12.2923 35.4363 13.516 39.7748 15.7408C43.9519 17.8878 46.238 20.6689 46.238 23.5779C46.238 26.4869 43.9353 29.2735 39.7581 31.4205Z" fill="white"/>
</g>
</g>
<defs>
<clipPath id="clip0_33_1283">
<rect width="47" height="47" fill="white"/>
</clipPath>
</defs>
</svg>
