<svg width="92" height="23" viewBox="0 0 92 23" fill="none" xmlns="http://www.w3.org/2000/svg">
<g clip-path="url(#clip0_33_1254)">
<path d="M53.3784 20.0836C53.3784 20.2584 53.4336 20.3596 53.5348 20.3596C53.6176 20.3504 53.6912 20.3136 53.7556 20.2676L82.432 1.65604C82.9166 1.31736 83.497 1.14322 84.088 1.15924H90.39C91.356 1.15924 92.0092 1.80324 92.0092 2.76924V14.8028C92.0092 16.2564 91.6872 17.1028 90.3992 17.8756L82.754 22.4756C82.6778 22.5286 82.5889 22.5603 82.4964 22.5676C82.4044 22.5676 82.3124 22.494 82.3124 22.2272V8.18804C82.3124 8.02244 82.2664 7.91205 82.156 7.91205C82.0752 7.92134 81.9987 7.95323 81.9352 8.00404L60.9776 21.62C60.4992 21.942 59.938 22.1168 59.3676 22.1076H45.4756C44.5004 22.1076 43.8564 21.4636 43.8564 20.4884V3.14644C43.8564 3.01764 43.8012 2.89804 43.6908 2.89804C43.6103 2.90827 43.534 2.94005 43.47 2.99004L29.6424 11.2884C29.5044 11.3804 29.4676 11.4448 29.4676 11.5092C29.4676 11.5644 29.4952 11.6196 29.5872 11.7208L39.468 21.5924C39.5968 21.7212 39.6888 21.8224 39.6888 21.9328C39.6888 22.0248 39.5416 22.0984 39.3668 22.0984H30.4428C29.7436 22.0984 29.2008 21.9972 28.8236 21.62L22.8344 15.64C22.8117 15.6129 22.7836 15.5907 22.752 15.5749C22.7203 15.5591 22.6857 15.5499 22.6504 15.548C22.5855 15.551 22.5223 15.57 22.4664 15.6032L12.4568 21.62C11.8496 21.988 11.4356 22.0892 10.8376 22.0892H1.6284C0.644 22.0984 0 21.4452 0 20.4792V8.67564C0 7.21284 0.322 6.37564 1.6192 5.60284L9.3104 0.984444C9.37074 0.944929 9.44073 0.922659 9.5128 0.920044C9.6324 0.920044 9.6968 1.03964 9.6968 1.30644V17.112C9.6968 17.2776 9.7336 17.3512 9.8532 17.3512C9.936 17.342 10.0096 17.3052 10.0832 17.2592L36.064 1.62844C36.5608 1.28804 37.168 1.12244 37.7752 1.15004H51.7592C52.7252 1.15004 53.3784 1.79404 53.3784 2.76004L53.3692 20.0836H53.3784Z" fill="white"/>
</g>
<defs>
<clipPath id="clip0_33_1254">
<rect width="92" height="23" fill="white"/>
</clipPath>
</defs>
</svg>
