<svg width="45" height="32" viewBox="0 0 45 32" fill="none" xmlns="http://www.w3.org/2000/svg">
<path fill-rule="evenodd" clip-rule="evenodd" d="M22.6415 0C25.1887 0 27.7358 0.281525 30 0.844575C27.4528 4.5044 22.4528 11.4487 20.1887 14.5455L19.434 15.4839C19.434 15.4839 16.3208 19.8006 22.1698 19.8006H39.434C39.9057 18.5806 40.0943 17.2669 40.0943 15.9531C40.0943 10.4164 36.1321 5.6305 30.4717 3.28446C31.0377 2.62757 31.5094 1.97067 31.7925 1.40762C39.5283 3.94135 45 9.47801 45 15.9531C45 18.2991 44.2453 20.5513 43.0189 22.6158H17.7358C17.7358 22.6158 9.62264 22.522 13.7736 15.4839C17.1698 9.66569 21.7925 3.75367 23.3962 1.78299H22.4528C12.7358 1.78299 4.81132 8.16422 4.81132 16.0469C4.81132 23.9296 12.7358 30.3109 22.4528 30.3109C28.5849 30.3109 34.0566 27.7771 37.1698 23.8358H42.0755C38.2075 28.7155 30.8491 32 22.4528 32C10 32 0 24.868 0 16.0469C0 7.22581 10.0943 0.0938416 22.4528 0.0938416L22.6415 0Z" fill="white"/>
</svg>
