<svg width="65" height="65" viewBox="0 0 65 65" fill="none" xmlns="http://www.w3.org/2000/svg">
<rect width="65" height="65" rx="10" fill="#DB1E1E" fill-opacity="0.1"/>
<g clip-path="url(#clip0_33_1393)">
<path d="M46.6787 24.5814C45.1625 22.4714 43.765 21.0001 41.7825 19.4626C38.745 17.1226 34.4937 17.6139 32.1025 20.5851L27.965 25.7326C26.6412 27.3789 26.4062 29.5651 27.21 31.3976L19.0987 39.5089C18.39 40.2164 18 41.1589 18 42.1601V45.5001C18 46.8789 19.1212 48.0001 20.5 48.0001H23C24.3787 48.0001 25.5 46.8776 25.5 45.4989V44.2501H26.75C27.44 44.2501 28 43.6914 28 43.0001V41.7501H30.5C30.8275 41.7501 31.1425 41.6214 31.3762 41.3926L34.24 38.5764C35.0387 38.9964 35.9125 39.2326 36.8 39.2326C37.9925 39.2326 39.1887 38.8489 40.1887 38.0676L45.2962 34.0826C48.2387 31.7876 48.8462 27.6126 46.6775 24.5801L46.6787 24.5814ZM29.9875 39.2514H26.75C26.0787 39.2364 25.4862 39.8276 25.5 40.5001V41.7501H24.25C23.56 41.7501 23 42.3089 23 43.0001V45.4989H20.5V42.1601C20.5 41.8314 20.6337 41.5089 20.8662 41.2764L28.7112 33.4326L32.2787 37.0001L29.9875 39.2514ZM43.7587 32.1126L38.6512 36.0976C37.4525 37.0301 35.74 36.9251 34.6662 35.8526L30.1325 31.3189C29.0425 30.2289 28.9487 28.5001 29.915 27.2989L34.0525 22.1514C35.5975 20.2314 38.335 19.9539 40.2562 21.4426C42.045 22.8289 43.2725 24.1226 44.6462 26.0351C46.0325 27.9751 45.6437 30.6439 43.7612 32.1126H43.7587ZM41.355 27.1001C41.8437 27.5889 41.8437 28.3789 41.355 28.8676C41.1112 29.1114 40.7912 29.2339 40.4712 29.2339C40.1512 29.2339 39.8312 29.1114 39.5875 28.8676L37.0875 26.3676C36.5987 25.8789 36.5987 25.0889 37.0875 24.6001C37.5762 24.1114 38.3662 24.1114 38.855 24.6001L41.355 27.1001Z" fill="#DB1E1E"/>
</g>
<defs>
<clipPath id="clip0_33_1393">
<rect width="30" height="30" fill="white" transform="translate(18 18)"/>
</clipPath>
</defs>
</svg>
