<svg width="65" height="65" viewBox="0 0 65 65" fill="none" xmlns="http://www.w3.org/2000/svg">
<rect width="65" height="65" rx="10" fill="#DB1E1E" fill-opacity="0.1"/>
<g clip-path="url(#clip0_33_1398)">
<path d="M47.9998 40.5988C48.0006 38.7359 47.6805 36.8867 47.0535 35.1325L45.9873 32.1475C45.5521 30.9346 44.7533 29.8854 43.6999 29.1432C42.6464 28.4009 41.3897 28.0017 40.101 28H34.6485C33.3599 28.0017 32.1031 28.4009 31.0497 29.1432C29.9963 29.8854 29.1975 30.9346 28.7623 32.1475L27.696 35.1325C26.6248 38.2787 25.761 43 29.2498 44.875V45.5C29.2498 46.163 29.5132 46.7989 29.982 47.2678C30.4508 47.7366 31.0867 48 31.7498 48C32.4128 48 33.0487 47.7366 33.5175 47.2678C33.9864 46.7989 34.2498 46.163 34.2498 45.5H40.4998C40.4998 46.163 40.7632 46.7989 41.232 47.2678C41.7008 47.7366 42.3367 48 42.9998 48C43.6628 48 44.2987 47.7366 44.7675 47.2678C45.2364 46.7989 45.4998 46.163 45.4998 45.5V44.875C46.2585 44.4483 46.89 43.8273 47.3294 43.0757C47.7688 42.3242 48.0001 41.4693 47.9998 40.5988ZM34.6485 30.5H40.101C40.8742 30.501 41.6282 30.7405 42.2602 31.1859C42.8922 31.6313 43.3714 32.2609 43.6323 32.9888L44.5298 35.5H30.2198L31.1173 32.9888C31.3782 32.2609 31.8573 31.6313 32.4893 31.1859C33.1213 30.7405 33.8753 30.501 34.6485 30.5ZM43.0985 43H31.651C28.936 42.9363 29.0498 39.9613 29.4998 38H31.7498V39.25C31.7498 39.5815 31.8815 39.8995 32.1159 40.1339C32.3503 40.3683 32.6683 40.5 32.9998 40.5C33.3313 40.5 33.6492 40.3683 33.8837 40.1339C34.1181 39.8995 34.2498 39.5815 34.2498 39.25V38H40.4998V39.25C40.4998 39.5815 40.6315 39.8995 40.8659 40.1339C41.1003 40.3683 41.4183 40.5 41.7498 40.5C42.0813 40.5 42.3992 40.3683 42.6337 40.1339C42.8681 39.8995 42.9998 39.5815 42.9998 39.25V38H45.2498C45.6998 39.9613 45.8123 42.9375 43.0985 43ZM22.9998 29.25V28H20.7498C20.3023 29.9613 20.1898 32.9375 22.9035 33H24.2498C24.5813 33 24.8992 33.1317 25.1337 33.3661C25.3681 33.6005 25.4998 33.9185 25.4998 34.25V35.5C25.4998 36.163 25.2364 36.7989 24.7675 37.2678C24.2987 37.7366 23.6628 38 22.9998 38C22.3367 38 21.7008 37.7366 21.232 37.2678C20.7632 36.7989 20.4998 36.163 20.4998 35.5V34.875C17.0098 32.9925 17.8748 28.2812 18.946 25.1325L20.0123 22.1475C20.4475 20.9346 21.2463 19.8854 22.2997 19.1432C23.3531 18.4009 24.6099 18.0017 25.8985 18H31.351C32.6397 18.0017 33.8964 18.4009 34.9498 19.1432C36.0033 19.8854 36.8021 20.9346 37.2373 22.1475L37.8385 23.83C37.9499 24.1423 37.9327 24.486 37.7906 24.7856C37.6486 25.0852 37.3933 25.3161 37.081 25.4275C36.9264 25.4827 36.7624 25.5068 36.5984 25.4986C36.4345 25.4904 36.2737 25.4499 36.1254 25.3796C35.8258 25.2375 35.5949 24.9823 35.4835 24.67L34.8823 22.9887C34.6214 22.2609 34.1422 21.6313 33.5102 21.1859C32.8782 20.7405 32.1242 20.501 31.351 20.5H25.8985C25.1253 20.501 24.3713 20.7405 23.7393 21.1859C23.1073 21.6313 22.6282 22.2609 22.3673 22.9887L21.4698 25.5H27.9998C28.3313 25.5 28.6492 25.6317 28.8837 25.8661C29.1181 26.1005 29.2498 26.4185 29.2498 26.75C29.2498 27.0815 29.1181 27.3995 28.8837 27.6339C28.6492 27.8683 28.3313 28 27.9998 28H25.4998V29.25C25.4998 29.5815 25.3681 29.8995 25.1337 30.1339C24.8992 30.3683 24.5813 30.5 24.2498 30.5C23.9183 30.5 23.6003 30.3683 23.3659 30.1339C23.1315 29.8995 22.9998 29.5815 22.9998 29.25Z" fill="#DB1E1E"/>
</g>
<defs>
<clipPath id="clip0_33_1398">
<rect width="30" height="30" fill="white" transform="translate(18 18)"/>
</clipPath>
</defs>
</svg>
