<svg width="50" height="50" viewBox="0 0 50 50" fill="none" xmlns="http://www.w3.org/2000/svg">
<rect width="50" height="50" rx="10" fill="#DB1E1E" fill-opacity="0.1"/>
<g clip-path="url(#clip0_33_1353)">
<path d="M31.8554 14.7292L25.3293 12.5531C25.1157 12.482 24.8847 12.482 24.671 12.5531L18.145 14.7292C17.1074 15.0738 16.2048 15.7367 15.5654 16.6237C14.9261 17.5106 14.5825 18.5765 14.5835 19.6698V25C14.5835 32.8781 24.1668 37.2292 24.5772 37.4104C24.7104 37.4696 24.8545 37.5001 25.0002 37.5001C25.1459 37.5001 25.2899 37.4696 25.4231 37.4104C25.8335 37.2292 35.4168 32.8781 35.4168 25V19.6698C35.4178 18.5765 35.0743 17.5106 34.4349 16.6237C33.7956 15.7367 32.893 15.0738 31.8554 14.7292ZM33.3335 25C33.3335 30.6823 26.7512 34.4094 25.0002 35.3011C23.247 34.4125 16.6668 30.6969 16.6668 25V19.6698C16.6669 19.0138 16.8734 18.3745 17.257 17.8424C17.6406 17.3104 18.182 16.9125 18.8043 16.7052L25.0002 14.6396L31.196 16.7052C31.8183 16.9125 32.3597 17.3104 32.7433 17.8424C33.127 18.3745 33.3334 19.0138 33.3335 19.6698V25Z" fill="#DB1E1E"/>
<path d="M28.4376 21.1458L24.0751 25.5208L21.7376 23.0833C21.6438 22.9807 21.5304 22.898 21.4041 22.8399C21.2778 22.7818 21.1412 22.7496 21.0023 22.7452C20.8633 22.7407 20.7249 22.7641 20.5952 22.814C20.4654 22.8639 20.347 22.9392 20.2468 23.0356C20.1466 23.1319 20.0668 23.2473 20.0119 23.375C19.957 23.5027 19.9282 23.6401 19.9273 23.7791C19.9263 23.9181 19.9532 24.0559 20.0063 24.1843C20.0594 24.3128 20.1377 24.4293 20.2365 24.527L22.6386 27.027C22.8178 27.2205 23.0343 27.3757 23.2751 27.4831C23.5159 27.5905 23.776 27.648 24.0397 27.652H24.074C24.3324 27.6529 24.5884 27.6024 24.8271 27.5035C25.0658 27.4046 25.2826 27.2593 25.4647 27.076L29.9147 22.626C30.0118 22.529 30.089 22.4138 30.1417 22.287C30.1943 22.1602 30.2215 22.0243 30.2217 21.887C30.2218 21.7497 30.1949 21.6137 30.1425 21.4868C30.0901 21.3599 30.0132 21.2445 29.9162 21.1474C29.8192 21.0502 29.704 20.973 29.5773 20.9203C29.4505 20.8677 29.3145 20.8405 29.1772 20.8403C29.0399 20.8402 28.9039 20.8671 28.777 20.9195C28.6501 20.9719 28.5348 21.0488 28.4376 21.1458Z" fill="#DB1E1E"/>
</g>
<defs>
<clipPath id="clip0_33_1353">
<rect width="25" height="25" fill="white" transform="translate(12.5 12.5)"/>
</clipPath>
</defs>
</svg>
