<svg width="176" height="45" viewBox="0 0 176 45" fill="none" xmlns="http://www.w3.org/2000/svg">
<path d="M13.7619 15.7282L16.4215 8.79248C16.5656 8.42221 16.3021 8.52761 15.8187 8.51341H13.3636C13.1732 8.51341 12.9987 8.69527 12.9272 8.87276L10.297 15.6288C10.1912 15.9095 10.2615 16.105 10.4798 16.105H13.2704C13.5339 16.105 13.6152 16.0678 13.7619 15.7282Z" fill="#DB1E1E"/>
<path d="M6.41053 34.6391L13.2088 17.0771C13.2994 16.804 13.1412 16.804 12.7724 16.804L10.2562 16.8095C10.0658 16.8095 9.78595 16.9777 9.71612 17.1546L2.56428 35.6292C2.54591 35.6762 2.53927 35.7269 2.54493 35.7771C2.55059 35.8272 2.56838 35.8752 2.59676 35.9169C2.62513 35.9586 2.66324 35.9927 2.70778 36.0163C2.75232 36.04 2.80194 36.0523 2.85234 36.0524H4.28664C5.20155 36.0524 6.0761 35.5456 6.41053 34.6391Z" fill="#DB1E1E"/>
<path d="M28.4788 36.0328H23.5142C23.0481 36.0328 22.5928 35.8921 22.2079 35.629C21.8229 35.366 21.5262 34.9928 21.3565 34.5582L18.0181 25.9788H15.5735C15.4098 25.9788 15.2325 25.8695 15.1545 25.6511L14.1217 23.0641C14.0895 22.8708 14.2581 22.8741 14.3536 22.8741H27.0184C27.0655 22.8737 27.1115 22.8876 27.1505 22.914C27.1895 22.9405 27.2195 22.9782 27.2366 23.0221L28.2584 25.662C28.2721 25.6973 28.2768 25.7354 28.2724 25.773C28.2679 25.8106 28.2543 25.8465 28.2328 25.8777C28.2113 25.9088 28.1825 25.9342 28.1489 25.9516C28.1153 25.969 28.078 25.978 28.0402 25.9777H24.9217L28.6922 35.716C28.7058 35.7513 28.7106 35.7894 28.7061 35.827C28.7016 35.8646 28.688 35.9005 28.6665 35.9317C28.645 35.9628 28.6162 35.9882 28.5826 36.0056C28.5491 36.023 28.5117 36.032 28.4739 36.0317L28.4788 36.0328Z" fill="#DB1E1E"/>
<path d="M17.2298 8.78811C17.4196 8.41565 18.0143 8.41565 18.202 8.89733L23.3778 21.9888C23.3859 22.0099 23.3888 22.0327 23.3862 22.0552C23.3836 22.0777 23.3755 22.0992 23.3627 22.1178C23.35 22.1365 23.3328 22.1518 23.3128 22.1623C23.2928 22.1729 23.2705 22.1784 23.2479 22.1783H16.64C16.5929 22.1788 16.5468 22.1649 16.5078 22.1385C16.4688 22.1121 16.4388 22.0743 16.4218 22.0303L14.2941 16.4894C14.2728 16.4348 14.2733 16.4387 14.2941 16.384" fill="#DB1E1E"/>
<path d="M18.2461 35.7848C18.2767 35.8629 18.3034 36.0524 18.1883 36.0524H15.8041C15.565 36.0524 15.3314 35.9801 15.1339 35.845C14.9365 35.7098 14.7845 35.5181 14.6977 35.295L12.9847 30.8949H8.83507C8.81513 30.8944 8.79558 30.8893 8.77797 30.8799C8.76036 30.8705 8.74518 30.8572 8.73364 30.8409C8.72209 30.8246 8.71449 30.8059 8.71146 30.7861C8.70842 30.7664 8.71002 30.7462 8.71614 30.7272L9.24043 29.3729C9.25127 29.3509 9.26831 29.3325 9.28944 29.3201C9.31058 29.3077 9.33488 29.3017 9.35936 29.303H15.6579C15.6816 29.3032 15.7047 29.3106 15.7241 29.3242C15.7436 29.3377 15.7585 29.3568 15.767 29.3789" fill="#DB1E1E"/>
<path d="M12.4034 21.2882C12.4427 21.1866 12.6277 21.1866 12.6669 21.2882L15.4133 28.4729C15.4319 28.5198 15.397 28.6242 15.3473 28.6242H12.2005C12.1769 28.6238 12.1539 28.6164 12.1345 28.603C12.1151 28.5896 12.1001 28.5707 12.0914 28.5488L10.8573 25.3813C10.8464 25.3536 10.8464 25.3228 10.8573 25.295" fill="#DB1E1E"/>
<path d="M38.0713 28.3538L42.7861 16.2082H45.6814L50.3787 28.3538H47.6225L46.5996 25.6129H41.7986L40.7937 28.3544L38.0713 28.3538ZM42.5613 23.4087H45.8347L44.2253 18.8629H44.1707L42.5613 23.4087Z" fill="white"/>
<path d="M51.1572 26.5669L52.7868 24.9706C53.3411 25.5604 54.3144 26.3064 55.6467 26.3064C56.9468 26.3064 57.6053 25.6123 57.6053 24.9013C57.6053 22.7496 51.6428 23.7905 51.6428 19.5045C51.6428 17.4577 53.4432 15.9477 55.9588 15.9477C57.9866 15.9477 59.4777 16.9198 60.0669 17.6658L58.4373 19.2621C58.0216 18.8454 57.1721 18.2381 56.1323 18.2381C54.9364 18.2381 54.3641 18.8454 54.3641 19.4876C54.3641 21.6393 60.344 20.5979 60.344 24.8838C60.344 26.8962 58.6282 28.6143 55.8376 28.6143C53.4803 28.6165 51.8506 27.4866 51.1572 26.5669Z" fill="white"/>
<path d="M62.6309 28.3538V16.2082H65.231V28.3538H62.6309Z" fill="white"/>
<path d="M66.9639 28.3538L71.6787 16.2082H74.5734L79.2708 28.3538H76.5146L75.4922 25.6129H70.6912L69.6857 28.3544L66.9639 28.3538ZM71.4533 23.4087H74.7267L73.1146 18.8629H73.06L71.4533 23.4087Z" fill="white"/>
<path d="M82.563 28.3538L87.2778 16.2082H90.1726L94.8704 28.3538H92.1142L91.0913 25.6129H86.2903L85.2854 28.3544L82.563 28.3538ZM87.0525 23.4087H90.3259L88.7137 18.8629H88.6592L87.0525 23.4087Z" fill="white"/>
<path d="M96.6021 28.3538V16.2082H99.2022V25.9247H104.804V28.3538H96.6021Z" fill="white"/>
<path d="M106.707 28.3538V16.2082H109.307V25.9247H114.906V28.3538H106.707Z" fill="white"/>
<path d="M116.812 28.3538V16.2082H119.411V28.3538H116.812Z" fill="white"/>
<path d="M121.145 28.3538L125.859 16.2082H128.754L133.451 28.3538H130.695L129.673 25.6129H124.872L123.866 28.3544L121.145 28.3538ZM125.634 23.4087H128.907L127.296 18.8629H127.244L125.634 23.4087Z" fill="white"/>
<path d="M135.183 28.3538V16.2082H137.488L143.399 24.0177H143.468V16.2082H146.016V28.3538H143.728L137.8 20.5285H137.746V28.3538H135.183Z" fill="white"/>
<path d="M148.407 22.2816C148.407 18.7591 151.215 15.9466 154.994 15.9466C157.577 15.9466 159.31 17.248 160.194 18.2889L158.443 19.8508C157.734 19.1408 156.728 18.3217 154.994 18.3217C152.757 18.3217 151.042 20.0567 151.042 22.2777C151.042 24.4813 152.758 26.2169 154.994 26.2169C156.728 26.2169 157.768 25.4184 158.513 24.655L160.281 26.2169C159.345 27.3091 157.577 28.611 154.994 28.611C151.215 28.6165 148.407 25.786 148.407 22.2816Z" fill="white"/>
<path d="M162.221 28.3538V16.2082H171.148V18.5505H164.819V21.0146H169.759V23.27H164.821V26.0115H171.321V28.3538H162.221Z" fill="white"/>
</svg>
