<svg width="35" height="35" viewBox="0 0 35 35" fill="none" xmlns="http://www.w3.org/2000/svg">
<g clip-path="url(#clip0_33_1336)">
<circle cx="17.5" cy="17.5" r="17.5" fill="#1E1E1E"/>
<path d="M17.5 0C7.83563 0 0 7.83563 0 17.5C0 27.1644 7.83563 35 17.5 35C27.1644 35 35 27.1644 35 17.5C35 7.83563 27.1644 0 17.5 0ZM17.729 27.5085H17.7246C16.0125 27.5085 14.3296 27.0783 12.8363 26.2631L7.41271 27.6865L8.86521 22.3854C7.96979 20.8352 7.49875 19.075 7.49875 17.271C7.50167 11.6302 12.0896 7.04229 17.729 7.04229C20.4648 7.04229 23.0344 8.10833 24.9652 10.0421C26.896 11.9758 27.9606 14.5454 27.9592 17.2798C27.9577 22.9206 23.3669 27.5085 17.729 27.5085ZM17.7319 8.76896C13.0419 8.76896 9.22688 12.5825 9.22542 17.271C9.22542 18.8781 9.67458 20.4429 10.5248 21.7963L10.7275 22.1185L9.86854 25.2554L13.0856 24.411L13.3962 24.5948C14.7015 25.3692 16.1977 25.779 17.7246 25.7804H17.7275C22.4146 25.7804 26.2281 21.9654 26.2296 17.2783C26.2296 15.0062 25.3473 12.8698 23.7417 11.2627C22.136 9.65563 20.001 8.77042 17.7304 8.76896H17.7319ZM22.7325 20.9271C22.5196 21.525 21.4988 22.069 21.0073 22.1419C20.5669 22.2075 20.0098 22.2352 19.3973 22.0413C19.0254 21.9231 18.55 21.7671 17.9404 21.5031C15.3767 20.3962 13.701 17.8135 13.5742 17.6429C13.4458 17.4723 12.53 16.2575 12.53 14.999C12.53 13.7404 13.1906 13.1221 13.4254 12.8669C13.6602 12.6117 13.9373 12.5475 14.1065 12.5475C14.2756 12.5475 14.4477 12.549 14.5965 12.5562C14.7525 12.565 14.964 12.4965 15.171 12.9952C15.384 13.5071 15.8958 14.7656 15.96 14.894C16.0242 15.0223 16.0665 15.171 15.9819 15.3417C15.8958 15.5123 15.8535 15.6188 15.7267 15.7675C15.5983 15.9163 15.4583 16.1015 15.3431 16.2152C15.2148 16.3421 15.0821 16.4806 15.2308 16.7373C15.3796 16.994 15.8929 17.8296 16.6527 18.5077C17.6298 19.3783 18.4523 19.6481 18.709 19.7765C18.9642 19.9048 19.1129 19.8829 19.2631 19.7123C19.4133 19.5417 19.9019 18.9656 20.0725 18.7104C20.2431 18.4538 20.4138 18.4975 20.6485 18.5821C20.8819 18.6681 22.139 19.285 22.3956 19.4133C22.6508 19.5417 22.8215 19.6044 22.8856 19.7108C22.9498 19.8173 22.9498 20.3292 22.7369 20.9256L22.7325 20.9271Z" fill="white"/>
</g>
<defs>
<clipPath id="clip0_33_1336">
<rect width="35" height="35" fill="white"/>
</clipPath>
</defs>
</svg>
